<svg width="16" height="16" viewBox="0 0 16 16" fill="none" xmlns="http://www.w3.org/2000/svg">
<ellipse cx="4.39986" cy="12.9777" rx="1.33333" ry="1.33333" fill="#222222"/>
<path fill-rule="evenodd" clip-rule="evenodd" d="M4 4.08887C1.79086 4.08887 0 5.87973 0 8.08887V11.9778C0 12.53 0.447715 12.9778 1 12.9778H2.66674C2.66674 12.9777 2.66674 12.9777 2.66674 12.9777C2.66674 11.9959 3.46268 11.1999 4.44451 11.1999C5.42635 11.1999 6.22229 11.9959 6.22229 12.9777C6.22229 12.9777 6.22229 12.9777 6.22229 12.9778H10.6672C10.6672 12.9777 10.6672 12.9777 10.6672 12.9777C10.6672 11.9959 11.4631 11.1999 12.445 11.1999C13.4268 11.1999 14.2227 11.9959 14.2227 12.9777C14.2227 12.9777 14.2227 12.9777 14.2227 12.9778H15C15.5523 12.9778 16 12.53 16 11.9778V6.08887C16 4.9843 15.1046 4.08887 14 4.08887H4Z" fill="#FF864F"/>
<mask id="mask0_97_6305" style="mask-type:alpha" maskUnits="userSpaceOnUse" x="0" y="4" width="16" height="9">
<path d="M0 8.08887C0 5.87973 1.79086 4.08887 4 4.08887H14C15.1046 4.08887 16 4.9843 16 6.08887V11.9778C16 12.53 15.5523 12.9778 15 12.9778H1C0.447715 12.9778 0 12.53 0 11.9778V8.08887Z" fill="#FFEA00"/>
</mask>
<g mask="url(#mask0_97_6305)">
<path d="M0 4.08887H2.04444V8.19998C2.04444 8.75226 1.59673 9.19998 1.04444 9.19998H0V4.08887Z" fill="#CBE8FF"/>
<path d="M0 10.3112H1.25926C1.50472 10.3112 1.7037 10.5101 1.7037 10.7556V10.7556C1.7037 11.0011 1.50472 11.2 1.25926 11.2H0V10.3112Z" fill="#FFEE00"/>
</g>
<ellipse cx="12.4444" cy="12.9777" rx="1.33333" ry="1.33333" fill="#222222"/>
<path fill-rule="evenodd" clip-rule="evenodd" d="M4.788 3.69046C4.6824 3.61886 4.59087 3.54308 4.51874 3.47312C3.99608 2.95476 4.51623 2.22258 4.84163 1.92128C5.14806 1.65582 5.29263 1.67229 5.62762 1.71044C5.72961 1.72206 5.84925 1.73569 5.99648 1.74398C6.62731 1.77952 6.78284 2.46792 6.78846 2.62102C6.79296 2.74351 6.78825 2.81244 6.78534 2.83159L6.78584 2.84927C6.9463 2.74447 7.11108 2.66899 7.24713 2.62325C7.89931 2.41205 8.21707 3.07648 8.43213 3.52616L8.43214 3.52618C8.448 3.55936 8.46331 3.59137 8.47816 3.62178C9.05283 4.79891 8.7647 5.16804 8.40234 5.63226L8.36985 5.67393C8.10514 6.01426 8.02617 6.17596 7.93426 6.36416C7.89148 6.45175 7.8459 6.54508 7.77749 6.66483C7.71669 6.77125 7.24712 7.36492 6.80813 6.87994C6.66605 6.81311 6.55006 6.36803 6.46083 5.87043C6.27346 5.96347 6.0623 6.01579 5.83891 6.01579C5.81169 6.01579 5.78465 6.01501 5.75782 6.01348C5.6922 6.49728 5.30255 6.90596 5.02185 7.10421C4.41586 7.52211 3.79237 6.87566 3.55637 6.50019C3.35209 6.14999 3.39498 6.01096 3.49436 5.68878C3.52462 5.59069 3.56011 5.47563 3.59547 5.33246C3.71465 4.84977 4.17678 4.73101 4.44214 4.71341C4.43992 4.68111 4.43879 4.64852 4.43879 4.61566C4.43879 4.26101 4.57064 3.93716 4.788 3.69046Z" fill="#E31C24"/>
<path d="M4.38455 2.89524C5.8493 2.46443 6.61039 3.61325 6.80785 4.24152C7.06633 5.10313 5.87443 5.53394 5.24617 5.64165C4.49225 5.74935 4.4384 5.53395 3.68449 5.10314C2.93057 4.67233 3.25368 3.86457 3.36138 3.70301C3.44754 3.57377 3.50498 3.50556 3.52294 3.48761C3.78142 3.09988 4.20505 2.93114 4.38455 2.89524Z" fill="url(#paint0_linear_97_6305)"/>
<path d="M4.74488 5.68966C5.06367 4.46908 6.21506 4.43469 6.75091 4.57006C7.4805 4.76438 7.27873 5.79266 7.08665 6.28251C6.84068 6.86092 6.66289 6.80475 6.0302 7.14784C5.39751 7.49093 4.956 6.91024 4.88618 6.76374C4.83031 6.64654 4.80596 6.57625 4.80077 6.55575C4.63319 6.20415 4.69368 5.83185 4.74488 5.68966Z" fill="url(#paint1_linear_97_6305)"/>
<path d="M6.29914 4.3874C6.30342 4.38068 6.30741 4.37339 6.31083 4.36555C6.3402 4.30027 6.35731 4.21173 6.3037 4.15318C6.24326 4.08706 6.14262 4.10667 6.06421 4.1204C6.03855 4.12488 6.01374 4.13105 5.99037 4.13945C5.99037 4.12712 5.99008 4.1148 5.98894 4.10247C5.98324 4.03327 5.98238 3.96687 5.96071 3.89991C5.94874 3.86264 5.8997 3.85704 5.87832 3.88926C5.83526 3.95426 5.78765 4.01618 5.75572 4.08734C5.74061 4.02991 5.72521 3.97275 5.71295 3.91476C5.6967 3.83771 5.5895 3.8506 5.56669 3.91476C5.52848 4.02262 5.52392 4.14001 5.53761 4.25404C5.45093 4.20641 5.35228 4.1812 5.24964 4.18904C5.1068 4.19997 5.03353 4.34958 5.12505 4.46277C5.16696 4.5146 5.23054 4.54093 5.29184 4.56447C5.29326 4.56503 5.29441 4.56531 5.29583 4.56587C5.27844 4.57483 5.26133 4.58492 5.24451 4.59613C5.15641 4.65524 5.10024 4.7872 5.21258 4.8564C5.28585 4.90151 5.36996 4.90179 5.4515 4.8777C5.45093 4.88022 5.45036 4.88274 5.44979 4.88526C5.43126 4.98584 5.43297 5.11416 5.53675 5.17187C5.65507 5.23743 5.76399 5.13293 5.82671 5.04355C5.82985 5.03907 5.83298 5.03431 5.83612 5.02955C5.86064 5.09062 5.88887 5.1503 5.92023 5.20801C5.94674 5.25676 6.02287 5.2789 6.07048 5.24668C6.21275 5.15058 6.22758 4.98584 6.19964 4.8253C6.21161 4.8281 6.22416 4.83035 6.23756 4.83147C6.32224 4.83903 6.41461 4.81101 6.45909 4.73537C6.53579 4.60453 6.42801 4.47677 6.29886 4.3874H6.29914ZM5.46462 4.68578C5.4438 4.68942 5.42242 4.69082 5.40132 4.69082C5.44523 4.66337 5.50282 4.64712 5.5396 4.64656C5.55015 4.64656 5.55985 4.64403 5.5684 4.64011C5.54017 4.66393 5.50653 4.67793 5.46433 4.68578H5.46462ZM5.75401 4.66617C5.75315 4.66813 5.75258 4.67037 5.75173 4.67261C5.7503 4.67737 5.74887 4.68214 5.74773 4.68718C5.74602 4.68662 5.7446 4.68662 5.74289 4.68606C5.74488 4.6827 5.74659 4.67934 5.74887 4.67569C5.75087 4.67261 5.75258 4.66925 5.75401 4.66617ZM5.67703 4.87265C5.67703 4.87265 5.6776 4.87041 5.6776 4.86957C5.67931 4.86985 5.68102 4.87041 5.68273 4.87069C5.67959 4.87685 5.67646 4.88302 5.67303 4.88918C5.67446 4.88386 5.67589 4.87825 5.67703 4.87293V4.87265ZM5.90911 4.10135C5.90426 4.12096 5.8977 4.13973 5.89001 4.15794C5.89172 4.14337 5.89371 4.1288 5.89599 4.11396C5.89713 4.10611 5.89599 4.09743 5.89343 4.08902C5.8997 4.07221 5.90597 4.05512 5.91224 4.03831C5.91481 4.05904 5.91424 4.08034 5.90911 4.10135Z" fill="#FFEE00"/>
<defs>
<linearGradient id="paint0_linear_97_6305" x1="3.14598" y1="4.18483" x2="6.80785" y2="4.18483" gradientUnits="userSpaceOnUse">
<stop offset="0.569853" stop-color="#E82828"/>
<stop offset="0.952206" stop-color="#E6454B" stop-opacity="0"/>
</linearGradient>
<linearGradient id="paint1_linear_97_6305" x1="5.94635" y1="7.73906" x2="5.94635" y2="4.508" gradientUnits="userSpaceOnUse">
<stop offset="0.583333" stop-color="#EB131B"/>
<stop offset="1" stop-color="#D12329" stop-opacity="0"/>
</linearGradient>
</defs>
</svg>
