<svg xmlns="http://www.w3.org/2000/svg" width="65" height="64" viewBox="0 0 65 64" fill="none">
  <g filter="url(#filter0_d_84_918)">
    <mask id="path-1-outside-1_84_918" maskUnits="userSpaceOnUse" x="10" y="5.25061" width="45" height="54" fill="black">
      <rect fill="white" x="10" y="5.25061" width="45" height="54"/>
      <path fill-rule="evenodd" clip-rule="evenodd" d="M27.5989 54.2572C27.4391 54.1353 27.2415 54.0547 27.0417 54.0333C8.04324 52.0035 12.207 31.1776 17.2391 22.3537C17.3971 22.0768 17.5911 21.8166 17.7435 22.0966C18.0462 22.6525 19.232 23.2925 19.5223 22.7301C22.4231 17.111 25.7844 12.7076 29.546 10.2895C29.7981 10.1275 30.1375 10.1685 30.331 10.3973C30.5933 10.7073 31.0526 10.7811 31.403 10.5758C32.0161 10.2164 32.6692 10.0224 33.3469 10.0224C33.5089 10.0224 33.6694 10.0335 33.8284 10.0553C34.4375 10.1387 35.0909 9.8508 35.3698 9.30284C35.5018 9.04372 35.6542 8.79738 35.8315 8.56402C36.1029 8.20698 36.6047 8.15584 36.9767 8.40628C43.0251 12.4781 49.7134 23.3759 48.177 34.6263C48.1321 34.9547 48.0856 35.2771 48.0373 35.5938C47.8854 36.5903 49.2454 37.3493 50.069 36.7682C51.3142 35.8898 52.159 35.5692 51.7692 36.1539C50.7452 37.69 49.4615 40.0981 49 41.6923C48.9041 42.0236 48.8098 42.352 48.7164 42.6773C46.5623 50.1793 44.8909 56.0001 35.2791 56.0001C35.0127 56.0001 34.7748 55.992 34.5645 55.9767C34.5173 55.9732 34.4695 55.9726 34.4223 55.9752C31.4462 56.138 29.22 55.493 27.5989 54.2572Z"/>
    </mask>
    <path d="M48.177 34.6263L45.2046 34.2204L48.177 34.6263ZM51.7692 36.1539L49.273 34.4899V34.4899L51.7692 36.1539ZM49 41.6923L51.8816 42.5266V42.5266L49 41.6923ZM48.7164 42.6773L51.5998 43.5052L48.7164 42.6773ZM48.0373 35.5938L51.0031 36.0458L48.0373 35.5938ZM50.069 36.7682L51.7984 39.2196L50.069 36.7682ZM35.8315 8.56402L33.4431 6.74875L35.8315 8.56402ZM36.9767 8.40628L38.652 5.91768L36.9767 8.40628ZM35.3698 9.30284L38.0434 10.6638L35.3698 9.30284ZM31.403 10.5758L29.8858 7.98769L31.403 10.5758ZM34.5645 55.9767L34.3463 58.9687L34.5645 55.9767ZM34.4223 55.9752L34.2585 52.9797L34.4223 55.9752ZM29.546 10.2895L27.9238 7.76595L29.546 10.2895ZM30.331 10.3973L28.0406 12.3348L30.331 10.3973ZM19.5223 22.7301L16.8566 21.354L19.5223 22.7301ZM17.7435 22.0966L20.3784 20.6622L17.7435 22.0966ZM27.0417 54.0333L26.723 57.0164L27.0417 54.0333ZM27.5989 54.2572L25.7801 56.6429L27.5989 54.2572ZM27.3604 51.0503C23.1851 50.6042 20.606 49.174 18.9874 47.4282C17.3407 45.6522 16.4161 43.2548 16.1118 40.421C15.4903 34.6334 17.558 27.8504 19.8452 23.8399L14.6331 20.8675C11.8882 25.6809 9.35797 33.7228 10.1461 41.0616C10.5466 44.791 11.8288 48.5321 14.5875 51.5076C17.3742 54.5133 21.399 56.4475 26.723 57.0164L27.3604 51.0503ZM22.1881 24.1063C24.9896 18.6794 28.0519 14.8164 31.1682 12.8131L27.9238 7.76595C23.517 10.5988 19.8566 15.5426 16.8566 21.354L22.1881 24.1063ZM32.9201 13.1639C33.1285 13.0417 33.2632 13.0224 33.3469 13.0224V7.02243C32.0752 7.02243 30.9037 7.391 29.8858 7.98769L32.9201 13.1639ZM33.3469 13.0224C33.3718 13.0224 33.3963 13.0241 33.4214 13.0275L34.2353 7.08298C33.9425 7.0429 33.646 7.02243 33.3469 7.02243V13.0224ZM38.0434 10.6638C38.0995 10.5536 38.1581 10.4608 38.22 10.3793L33.4431 6.74875C33.1503 7.134 32.904 7.53382 32.6963 7.94186L38.0434 10.6638ZM35.3013 10.8949C37.7984 12.576 40.6643 15.8643 42.7186 20.1268C44.7572 24.3569 45.8766 29.299 45.2046 34.2204L51.1494 35.0323C52.0137 28.7032 50.5571 22.5713 48.1236 17.5219C45.7058 12.505 42.2033 8.30845 38.652 5.91768L35.3013 10.8949ZM45.2046 34.2204C45.1618 34.5338 45.1174 34.8408 45.0716 35.1418L51.0031 36.0458C51.0537 35.7134 51.1025 35.3756 51.1494 35.0323L45.2046 34.2204ZM51.7984 39.2196C52.3748 38.813 52.6336 38.7038 52.5668 38.7284C52.5419 38.7375 52.3488 38.8103 52.0543 38.8422C51.9285 38.8559 50.8417 38.9917 49.8651 38.1353C48.6253 37.048 48.8516 35.6236 48.9549 35.2245C49.0682 34.7869 49.2556 34.5159 49.273 34.4899L54.2654 37.818C54.3802 37.6457 54.6265 37.2569 54.7634 36.7283C54.8902 36.2383 55.1047 34.7498 53.8211 33.6241C52.8006 32.7293 51.6379 32.8522 51.4075 32.8772C51.0083 32.9205 50.6817 33.0288 50.4977 33.0964C49.7947 33.3547 49.0085 33.8451 48.3397 34.3169L51.7984 39.2196ZM49.273 34.4899C48.1712 36.1428 46.7016 38.8433 46.1183 40.8581L51.8816 42.5266C52.2214 41.3529 53.3192 39.2373 54.2654 37.8179L49.273 34.4899ZM46.1183 40.8581C46.0213 41.193 45.9261 41.5245 45.8329 41.8493L51.5998 43.5052C51.6934 43.1794 51.7868 42.8541 51.8816 42.5266L46.1183 40.8581ZM45.8329 41.8493C44.7055 45.7756 43.887 48.4592 42.4394 50.2933C41.2387 51.8148 39.3775 53.0001 35.2791 53.0001V59.0001C40.7925 59.0001 44.5729 57.275 47.1493 54.0105C49.4789 51.0588 50.5731 47.081 51.5998 43.5052L45.8329 41.8493ZM35.2791 53.0001C35.0712 53.0001 34.9074 52.9937 34.7827 52.9846L34.3463 58.9687C34.6423 58.9903 34.9542 59.0001 35.2791 59.0001V53.0001ZM34.2585 52.9797C31.8014 53.1141 30.3344 52.5702 29.4178 51.8714L25.7801 56.6429C28.1056 58.4158 31.0911 59.1619 34.5862 58.9707L34.2585 52.9797ZM45.0716 35.1418C44.7527 37.2338 46.0614 38.7289 47.2016 39.3789C48.3375 40.0263 50.1832 40.3591 51.7984 39.2196L48.3397 34.3169C49.1312 33.7585 49.8852 34.0022 50.1731 34.1663C50.4654 34.3329 51.17 34.9502 51.0031 36.0458L45.0716 35.1418ZM38.22 10.3793C37.4052 11.4514 36.0712 11.4132 35.3013 10.8949L38.652 5.91768C37.1381 4.89849 34.8006 4.96253 33.4431 6.74875L38.22 10.3793ZM33.4214 13.0275C35.0992 13.2572 37.1 12.5169 38.0434 10.6638L32.6963 7.94186C32.8949 7.55174 33.1915 7.32176 33.4381 7.20489C33.6793 7.09056 33.9506 7.044 34.2353 7.08298L33.4214 13.0275ZM28.0406 12.3348C29.265 13.7823 31.3381 14.0912 32.9201 13.1639L29.8858 7.98769C30.7671 7.47104 31.9216 7.63238 32.6215 8.45981L28.0406 12.3348ZM34.7827 52.9846C34.6161 52.9725 34.4405 52.9697 34.2585 52.9797L34.5862 58.9707C34.4986 58.9755 34.4186 58.974 34.3463 58.9687L34.7827 52.9846ZM31.1682 12.8131C30.2311 13.4155 28.8776 13.3243 28.0406 12.3348L32.6215 8.45981C31.3974 7.01271 29.3651 6.83942 27.9238 7.76595L31.1682 12.8131ZM15.1087 23.531C15.6818 24.5838 16.6895 25.261 17.4534 25.5892C17.8688 25.7676 18.5515 25.9938 19.3631 25.94C20.3044 25.8775 21.5231 25.3945 22.1881 24.1063L16.8566 21.354C17.0783 20.9245 17.4269 20.5487 17.8707 20.2916C18.2914 20.0478 18.69 19.9715 18.9658 19.9532C19.464 19.9201 19.7768 20.057 19.8216 20.0763C19.9091 20.1139 19.9619 20.1496 20.0071 20.1866C20.0278 20.2035 20.2058 20.3452 20.3784 20.6622L15.1087 23.531ZM19.8452 23.8399C19.8601 23.8137 19.8403 23.8516 19.7913 23.9192C19.764 23.9568 19.5964 24.192 19.2789 24.4272C18.9711 24.6551 18.0836 25.1911 16.8863 24.8879C15.7491 24.6 15.2424 23.7766 15.1087 23.531L20.3784 20.6622C20.1685 20.2767 19.5804 19.3808 18.359 19.0715C17.0774 18.747 16.103 19.3129 15.708 19.6055C15.3031 19.9053 15.0479 20.2399 14.935 20.3955C14.8004 20.581 14.6971 20.7553 14.6331 20.8675L19.8452 23.8399ZM26.723 57.0164C26.3594 56.9775 26.0416 56.8423 25.7801 56.6429L29.4178 51.8714C28.8366 51.4283 28.1236 51.1319 27.3604 51.0503L26.723 57.0164Z" fill="white" mask="url(#path-1-outside-1_84_918)"/>
  </g>
  <ellipse cx="33.3469" cy="21.8188" rx="6.40379" ry="11.7965" fill="#F08D18"/>
  <path d="M27.2375 30.2448C17.1263 41.0301 21.617 52.8266 31.9561 52.8266C39.0186 52.8266 45.8757 51.4784 48.1771 34.6263C49.7678 22.9778 42.5416 11.7075 36.3376 8C32.4304 11.7075 37.3488 19.4594 27.2375 30.2448Z" fill="#FFC700"/>
  <path d="M39.0769 32.2671C49.1881 43.0524 44.6974 54.8489 34.3583 54.8489C27.2958 54.8489 11.4217 43.8889 14.8248 33.9523C18.634 22.8299 23.7728 13.7298 29.9768 10.0223C33.884 13.7298 28.9656 21.4818 39.0769 32.2671Z" fill="#FFB800"/>
  <path d="M35.279 56C45.3076 56 46.6922 49.6636 48.9999 41.6922C49.4614 40.098 50.7451 37.69 51.7691 36.1539C52.6922 34.7692 46.6922 38.4615 44.846 42.6153C42.6219 46.3076 38.846 52.3076 35.279 54.1538C32.846 55.0769 32.4254 56 35.279 56Z" fill="#39E532"/>
  <path d="M35.7063 43.0524C37.6219 47.3625 36.7174 54.0624 35.7063 55.86C16.4949 58.2193 25.258 30.1325 30.3136 19.1224C31.6618 20.4706 31.6618 26.5374 31.9988 27.5485C32.3359 28.5596 33.0099 36.9856 35.7063 43.0524Z" fill="#00C400"/>
  <path d="M20.4063 45.0757C22.4108 48.4902 29.6453 52.7298 28.5872 54.1538C7.42633 53.0858 12.2473 30.5684 17.5375 21.8462C18.9483 22.9142 16.6207 31.1937 16.5268 32.2594C16.1741 36.2645 17.5848 40.2696 20.4063 45.0757Z" fill="#01A900"/>
  <defs>
    <filter id="filter0_d_84_918" x="8" y="5.25403" width="46.8608" height="55.746" filterUnits="userSpaceOnUse" color-interpolation-filters="sRGB">
      <feFlood flood-opacity="0" result="BackgroundImageFix"/>
      <feColorMatrix in="SourceAlpha" type="matrix" values="0 0 0 0 0 0 0 0 0 0 0 0 0 0 0 0 0 0 127 0" result="hardAlpha"/>
      <feOffset dx="-1" dy="1"/>
      <feGaussianBlur stdDeviation="0.5"/>
      <feComposite in2="hardAlpha" operator="out"/>
      <feColorMatrix type="matrix" values="0 0 0 0 0.0980392 0 0 0 0 0.121569 0 0 0 0 0.156863 0 0 0 0.25 0"/>
      <feBlend mode="normal" in2="BackgroundImageFix" result="effect1_dropShadow_84_918"/>
      <feBlend mode="normal" in="SourceGraphic" in2="effect1_dropShadow_84_918" result="shape"/>
    </filter>
  </defs>
</svg>