<svg xmlns="http://www.w3.org/2000/svg" width="10" height="10" viewBox="0 0 10 10" fill="none">
  <path fill-rule="evenodd" clip-rule="evenodd" d="M7.32491 6.44581C7.24694 6.44581 7.16973 6.43046 7.0977 6.40062C7.02566 6.37078 6.96021 6.32704 6.90507 6.27191C6.84994 6.21677 6.8062 6.15132 6.77636 6.07928C6.74652 6.00724 6.73117 5.93004 6.73117 5.85206C6.73117 5.77409 6.74652 5.69688 6.77636 5.62485C6.8062 5.55281 6.84994 5.48735 6.90507 5.43222C6.96021 5.37708 7.02566 5.33335 7.0977 5.30351C7.16973 5.27367 7.24694 5.25831 7.32491 5.25831C7.48239 5.25831 7.63341 5.32087 7.74476 5.43222C7.85611 5.54357 7.91866 5.69459 7.91866 5.85206C7.91866 6.00954 7.85611 6.16056 7.74476 6.27191C7.63341 6.38326 7.48239 6.44581 7.32491 6.44581ZM2.67408 6.44581C2.59611 6.44581 2.5189 6.43046 2.44686 6.40062C2.37483 6.37078 2.30937 6.32704 2.25424 6.27191C2.1991 6.21677 2.15537 6.15132 2.12553 6.07928C2.09569 6.00724 2.08033 5.93004 2.08033 5.85206C2.08033 5.77409 2.09569 5.69688 2.12553 5.62485C2.15537 5.55281 2.1991 5.48735 2.25424 5.43222C2.30937 5.37708 2.37483 5.33335 2.44686 5.30351C2.5189 5.27367 2.59611 5.25831 2.67408 5.25831C2.83155 5.25831 2.98258 5.32087 3.09393 5.43222C3.20528 5.54357 3.26783 5.69459 3.26783 5.85206C3.26783 6.00954 3.20528 6.16056 3.09393 6.27191C2.98258 6.38326 2.83155 6.44581 2.67408 6.44581ZM8.32575 3.7304H1.67367C1.45265 3.7304 1.24069 3.81819 1.08441 3.97448C0.928129 4.13076 0.840332 4.34272 0.840332 4.56373V8.54165C0.840332 8.65215 0.884231 8.75814 0.962371 8.83628C1.04051 8.91442 1.14649 8.95831 1.257 8.95831H2.27533C2.38584 8.95831 2.49182 8.91442 2.56996 8.83628C2.6481 8.75814 2.692 8.65215 2.692 8.54165V7.97331H7.30783V8.54165C7.30783 8.65215 7.35173 8.75814 7.42987 8.83628C7.50801 8.91442 7.61399 8.95831 7.7245 8.95831H8.74283C8.85334 8.95831 8.95932 8.91442 9.03746 8.83628C9.1156 8.75814 9.1595 8.65215 9.1595 8.54165V4.56331C9.1595 4.1029 8.787 3.72998 8.32617 3.72998" fill="#222222"/>
  <path d="M1.66675 2.04163C1.66675 1.48934 2.11446 1.04163 2.66675 1.04163H7.54175C8.09403 1.04163 8.54175 1.48934 8.54175 2.04163V3.12496H1.66675V2.04163Z" fill="#222222"/>
</svg>