<svg xmlns="http://www.w3.org/2000/svg" width="13" height="14" viewBox="0 0 13 14" fill="none">
  <path fill-rule="evenodd" clip-rule="evenodd" d="M2.75865 12.5424C2.65707 12.4408 2.6 12.303 2.6 12.1594V11.4205H2.45C2.17386 11.4205 1.95 11.1967 1.95 10.9205V3.62082H1.3V5.32082C1.3 5.45889 1.18807 5.57082 1.05 5.57082H0.25C0.111929 5.57082 0 5.45889 0 5.32082V3.47082C0 3.19468 0.223858 2.97082 0.5 2.97082H1.95V2.02271C1.95 1.46957 2.39904 1.0215 2.95218 1.02271L10.0522 1.03817C10.6036 1.03937 11.05 1.48673 11.05 2.03817V2.97082H12.5C12.7761 2.97082 13 3.19468 13 3.47082V5.32082C13 5.45889 12.8881 5.57082 12.75 5.57082H11.95C11.8119 5.57082 11.7 5.45889 11.7 5.32082V3.62082H11.05V10.9403C11.05 11.2165 10.8261 11.4403 10.55 11.4403H10.4V12.1792C10.4 12.3228 10.3429 12.4606 10.2414 12.5622C10.1398 12.6638 10.002 12.7208 9.85833 12.7208H8.99167C8.84801 12.7208 8.71023 12.6638 8.60865 12.5622C8.50707 12.4606 8.45 12.3228 8.45 12.1792V11.4403L4.55 11.4205V12.1594C4.55 12.303 4.49293 12.4408 4.39135 12.5424C4.28977 12.644 4.15199 12.701 4.00833 12.701H3.14167C2.99801 12.701 2.86023 12.644 2.75865 12.5424ZM8.97812 10.0032C8.87675 10.0032 8.77638 9.9832 8.68273 9.94442C8.58909 9.90565 8.50399 9.84875 8.43232 9.7771C8.36064 9.70545 8.30379 9.6203 8.265 9.52668C8.22621 9.43307 8.20624 9.33263 8.20624 9.2313C8.20624 9.12998 8.22621 9.02953 8.265 8.93592C8.30379 8.8423 8.36064 8.75715 8.43232 8.6855C8.50399 8.61385 8.58909 8.55696 8.68273 8.51818C8.77638 8.47941 8.87675 8.45943 8.97812 8.45943C9.18283 8.45943 9.37916 8.5408 9.52392 8.6855C9.66867 8.8302 9.74999 9.02666 9.74999 9.2313C9.74999 9.43594 9.66867 9.6324 9.52392 9.7771C9.37916 9.9218 9.18283 10.0032 8.97812 10.0032ZM4.00425 10.0634C3.90289 10.0634 3.80252 10.0434 3.70887 10.0046C3.61522 9.96587 3.53013 9.90897 3.45845 9.83732C3.38678 9.76568 3.32992 9.68052 3.29113 9.58691C3.25234 9.4933 3.23238 9.39285 3.23238 9.29152C3.23238 9.1902 3.25234 9.08975 3.29113 8.99614C3.32992 8.90253 3.38678 8.81738 3.45845 8.74573C3.53013 8.67408 3.61522 8.61718 3.70887 8.57841C3.80252 8.53963 3.90289 8.51965 4.00425 8.51965C4.20897 8.51965 4.4053 8.60103 4.55005 8.74573C4.69481 8.89043 4.77613 9.08689 4.77613 9.29152C4.77613 9.49616 4.69481 9.69262 4.55005 9.83732C4.4053 9.98203 4.20897 10.0634 4.00425 10.0634ZM3.5 2.32082C3.36193 2.32082 3.25 2.43275 3.25 2.57082V6.62082C3.25 6.75889 3.36193 6.87082 3.5 6.87082H9.5C9.63807 6.87082 9.75 6.75889 9.75 6.62082V2.57082C9.75 2.43275 9.63807 2.32082 9.5 2.32082H3.5Z" fill="#222222"/>
</svg>