<svg xmlns="http://www.w3.org/2000/svg" width="26" height="17" viewBox="0 0 26 17" fill="none">
  <path fillRule="evenodd" clipRule="evenodd" d="M8.04346 0.5C3.62518 0.5 0.043457 4.08172 0.043457 8.5V10.413C0.043457 12.6222 1.83432 14.413 4.04346 14.413H4.21739C4.21739 14.413 4.21739 14.413 4.21739 14.413C4.21739 12.8762 5.46321 11.6304 7 11.6304C8.53679 11.6304 9.78261 12.8762 9.78261 14.413C9.78261 14.413 9.78261 14.413 9.78261 14.413H16.7391C16.7391 12.8763 17.9849 11.6305 19.5217 11.6305C20.9957 11.6305 22.2021 12.7767 22.2981 14.2264C23.9152 13.7132 25.0869 12.2 25.0869 10.413V6.5C25.0869 3.18629 22.4006 0.5 19.0869 0.5H8.04346Z" fill="#E0E0E0"/>
  <mask id="mask0_66_11643" style="mask-type:alpha" maskUnits="userSpaceOnUse" x="0" y="0" width="26" height="15">
    <path d="M0.043457 8.5C0.043457 4.08172 3.62518 0.5 8.04346 0.5H19.0869C22.4006 0.5 25.0869 3.18629 25.0869 6.5V10.413C25.0869 12.6222 23.2961 14.413 21.0869 14.413H4.04346C1.83432 14.413 0.043457 12.6222 0.043457 10.413V8.5Z" fill="#FFEA00"/>
  </mask>
  <g mask="url(#mask0_66_11643)">
    <path d="M0.043457 0.5H3.24346V7.5C3.24346 8.05228 2.79574 8.5 2.24346 8.5H0.043457V0.5Z" fill="#EEEEEE"/>
    <path d="M0.043457 10.2393H2.34781C2.732 10.2393 3.04346 10.5507 3.04346 10.9349V10.9349C3.04346 11.3191 2.732 11.6306 2.3478 11.6306H0.043457V10.2393Z" fill="#BDBDBD"/>
  </g>
  <path fillRule="evenodd" clipRule="evenodd" d="M6.93046 16.5001C8.08306 16.5001 9.01742 15.5657 9.01742 14.4131C9.01742 13.2605 8.08306 12.3262 6.93046 12.3262C5.77787 12.3262 4.84351 13.2605 4.84351 14.4131C4.84351 15.5657 5.77787 16.5001 6.93046 16.5001ZM19.5217 16.5001C20.6743 16.5001 21.6086 15.5657 21.6086 14.4131C21.6086 13.2605 20.6743 12.3262 19.5217 12.3262C18.3691 12.3262 17.4347 13.2605 17.4347 14.4131C17.4347 15.5657 18.3691 16.5001 19.5217 16.5001Z" fill="#9E9E9E"/>
</svg>