<svg width="40" height="26" viewBox="0 0 40 26" fill="none" xmlns="http://www.w3.org/2000/svg">
<path fill-rule="evenodd" clip-rule="evenodd" d="M12 0.222229C5.37258 0.222229 0 5.59481 0 12.2222V18.4445C0 20.6536 1.79086 22.4445 4 22.4445H6.66675C6.66675 22.4444 6.66675 22.4444 6.66675 22.4444C6.66675 19.9898 8.6566 17.9999 11.1112 17.9999C13.5658 17.9999 15.5556 19.9898 15.5556 22.4444C15.5556 22.4444 15.5556 22.4444 15.5556 22.4445H26.6666C26.6666 22.4444 26.6666 22.4444 26.6666 22.4444C26.6666 19.9898 28.6564 18 31.111 18C33.5656 18 35.5555 19.9898 35.5555 22.4444C35.5555 22.4444 35.5555 22.4444 35.5555 22.4445H36C38.2091 22.4445 40 20.6536 40 18.4445V8.22223C40 3.80395 36.4183 0.222229 32 0.222229H12Z" fill="#E0E0E0"/>
<mask id="mask0_97_4680" style="mask-type:alpha" maskUnits="userSpaceOnUse" x="0" y="0" width="40" height="23">
<path d="M0 12.2222C0 5.59481 5.37258 0.222229 12 0.222229H32C36.4183 0.222229 40 3.80395 40 8.22223V18.4445C40 20.6536 38.2091 22.4445 36 22.4445H4C1.79086 22.4445 0 20.6536 0 18.4445V12.2222Z" fill="#FFEA00"/>
</mask>
<g mask="url(#mask0_97_4680)">
<path d="M0 0.222229H5.11111V12C5.11111 12.5523 4.6634 13 4.11111 13H0V0.222229Z" fill="#BDBDBD"/>
<path d="M0 15.778H3.25926C3.81154 15.778 4.25926 16.2257 4.25926 16.778V17.0002C4.25926 17.5525 3.81154 18.0002 3.25926 18.0002H0V15.778Z" fill="#BDBDBD"/>
</g>
<path fill-rule="evenodd" clip-rule="evenodd" d="M10.9996 25.7779C12.8405 25.7779 14.3329 24.2855 14.3329 22.4446C14.3329 20.6037 12.8405 19.1113 10.9996 19.1113C9.15864 19.1113 7.66626 20.6037 7.66626 22.4446C7.66626 24.2855 9.15864 25.7779 10.9996 25.7779ZM31.1109 25.7779C32.9519 25.7779 34.4443 24.2855 34.4443 22.4446C34.4443 20.6037 32.9519 19.1113 31.1109 19.1113C29.27 19.1113 27.7776 20.6037 27.7776 22.4446C27.7776 24.2855 29.27 25.7779 31.1109 25.7779Z" fill="#BDBDBD"/>
</svg>
