<svg xmlns="http://www.w3.org/2000/svg" width="26" height="17" viewBox="0 0 26 17" fill="none">
  <circle cx="6.88701" cy="14.4131" r="2.08696" fill="#222222"/>
  <path fillRule="evenodd" clipRule="evenodd" d="M9.93789 0.5C4.44934 0.5 0 4.94934 0 10.4379C0 12.6333 1.77974 14.413 3.97516 14.413H4.17394C4.17394 14.413 4.17394 14.413 4.17394 14.413C4.17394 12.8762 5.41975 11.6304 6.95655 11.6304C8.49334 11.6304 9.73915 12.8762 9.73915 14.413C9.73915 14.413 9.73915 14.413 9.73915 14.413H16.6956C16.6957 12.8763 17.9415 11.6305 19.4782 11.6305C20.9523 11.6305 22.1586 12.7767 22.2547 14.2264C23.8717 13.7132 25.0435 12.2 25.0435 10.413V6.5C25.0435 3.18629 22.3572 0.5 19.0435 0.5H9.93789Z" fill="#FFEA00"/>
  <mask id="mask0_66_9162" style="mask-type:alpha" maskUnits="userSpaceOnUse" x="0" y="0" width="26" height="15">
    <path d="M0 10.4379C0 4.94934 4.44934 0.5 9.93789 0.5H19.0435C22.3572 0.5 25.0435 3.18629 25.0435 6.5V10.413C25.0435 12.6222 23.2526 14.413 21.0435 14.413H3.97516C1.77974 14.413 0 12.6333 0 10.4379V10.4379Z" fill="#FFEA00"/>
  </mask>
  <g mask="url(#mask0_66_9162)">
    <path d="M0 0.5H3.2V7.5C3.2 8.05228 2.75229 8.5 2.2 8.5H0V0.5Z" fill="#CBE8FF"/>
    <path d="M0 10.2393H1.97101C2.35521 10.2393 2.66667 10.5507 2.66667 10.9349V10.9349C2.66667 11.3191 2.35521 11.6306 1.97101 11.6306H0V10.2393Z" fill="#FF7638"/>
  </g>
  <circle cx="19.4782" cy="14.4131" r="2.08696" fill="#222222"/>
</svg>