<svg xmlns="http://www.w3.org/2000/svg" width="65" height="64" viewBox="0 0 65 64" fill="none">
  <g filter="url(#filter0_d_84_661)">
    <path d="M21.2402 6.15704L19.6032 4.26746L19.572 4.29453L19.5416 4.32263L21.2402 6.15704ZM7.5 22.7004L9.58013 24.0872L9.58013 24.0872L7.5 22.7004ZM9.66981 37.8296L7.2427 37.2303L7.2427 37.2303L9.66981 37.8296ZM8.73107 41.1379L6.34216 40.401L6.34216 40.401L8.73107 41.1379ZM9.3068 48.6718L7.14734 49.9314L7.16818 49.9672L7.19019 50.0022L9.3068 48.6718ZM22.9136 54.28L24.3329 56.3381L24.3444 56.3301L24.3558 56.3221L22.9136 54.28ZM32.2786 54.6846L31.0869 52.4869L31.0869 52.4869L32.2786 54.6846ZM35.7633 52.9379L34.6914 50.6794L34.6914 50.6794L35.7633 52.9379ZM48.4999 50.2003L46.3292 48.9602L48.4999 50.2003ZM49.9555 47.4087L47.7194 46.2907L47.7142 46.3011L47.7091 46.3116L49.9555 47.4087ZM49.9555 47.4086L52.1916 48.5267L52.1968 48.5162L52.2019 48.5057L49.9555 47.4086ZM53.9999 40.9999L55.9733 42.5347L55.9733 42.5347L53.9999 40.9999ZM54.3016 40.613L52.3309 39.0747L52.3309 39.0747L54.3016 40.613ZM55.0055 21.9459L52.759 23.0427L52.759 23.0427L55.0055 21.9459ZM54.5782 21.0582L56.8335 19.9796L56.8335 19.9796L54.5782 21.0582ZM43.5757 12.6747L42.8055 10.2963L42.7922 10.3006L42.7789 10.3051L43.5757 12.6747ZM39.3162 12.6541L36.8179 12.7458L39.3162 12.6541ZM31.9628 4.51084L32.1034 2.01479L32.1034 2.01479L31.9628 4.51084ZM28.538 4.19944L28.8209 1.7155L28.8209 1.7155L28.538 4.19944ZM39.4233 14.6887L40.7733 16.7929L39.4233 14.6887ZM39.6296 52.3377L41.4412 50.6149L39.6296 52.3377ZM39.2884 14.6014L41.7628 14.9581L39.2884 14.6014ZM37.8705 51.8849L36.647 49.7048L37.8705 51.8849ZM9.05548 20.618L6.98722 19.2136L9.05548 20.618ZM8.93225 20.772L10.7812 22.4547L8.93225 20.772ZM23.0637 54.1726L21.5972 52.148L23.0637 54.1726ZM10.518 35.7715L12.649 37.0787L10.518 35.7715ZM16.2496 14.7143L13.7721 14.38L13.7721 14.38L16.2496 14.7143ZM15.524 15.6406L14.6418 13.3014L15.524 15.6406ZM18.7272 15.0485C19.0768 12.4568 21.1985 9.60274 22.9387 7.99144L19.5416 4.32263C17.4738 6.23724 14.3513 10.0868 13.7721 14.38L18.7272 15.0485ZM11.1238 22.0224C12.587 19.8674 14.8003 18.5854 16.4062 17.9797L14.6418 13.3014C12.4248 14.1375 9.21065 15.9391 6.98722 19.2136L11.1238 22.0224ZM9.58013 24.0872C10.2515 23.0801 10.6754 22.571 10.7812 22.4547L7.0833 19.0894C6.75143 19.454 6.17337 20.1834 5.41987 21.3137L9.58013 24.0872ZM11.7403 33.5298C9.13557 32.0414 8.5 30.0708 8.5 28.2629C8.5 26.2473 9.32279 24.4732 9.58013 24.0872L5.41987 21.3137C4.67721 22.4277 3.5 25.1536 3.5 28.2629C3.5 31.5801 4.86443 35.3595 9.25965 37.871L11.7403 33.5298ZM12.0969 38.4289C12.2307 37.8871 12.4243 37.445 12.649 37.0787L8.38706 34.4642C7.88666 35.2799 7.4968 36.2012 7.2427 37.2303L12.0969 38.4289ZM11.12 41.8749C11.4015 40.9622 11.75 39.8339 12.0969 38.4289L7.2427 37.2303C6.93319 38.4837 6.62252 39.4922 6.34216 40.401L11.12 41.8749ZM11.4663 47.4121C10.6222 45.9652 10.4712 45.2595 10.4611 44.757C10.4486 44.1367 10.6252 43.4789 11.12 41.8749L6.34216 40.401C5.91419 41.7883 5.43023 43.2716 5.46213 44.8575C5.4964 46.5613 6.09465 48.1268 7.14734 49.9314L11.4663 47.4121ZM21.4943 52.2219C19.7443 53.4288 17.9956 53.2243 16.106 52.0932C14.1236 50.9065 12.3856 48.8721 11.4234 47.3414L7.19019 50.0022C8.41924 51.9576 10.6713 54.6673 13.5379 56.3833C16.4972 58.1548 20.4563 59.0114 24.3329 56.3381L21.4943 52.2219ZM21.5972 52.148C21.5548 52.1787 21.5128 52.2087 21.4714 52.2379L24.3558 56.3221C24.4137 56.2812 24.4719 56.2396 24.5302 56.1973L21.5972 52.148ZM31.0869 52.4869C28.8603 53.6943 27.1729 53.132 25.86 52.1709L22.9066 56.2054C25.3572 57.9993 29.1286 59.2367 33.4703 56.8823L31.0869 52.4869ZM34.6914 50.6794C33.7166 51.142 32.5223 51.7085 31.0869 52.4869L33.4703 56.8823C34.777 56.1737 35.8647 55.6571 36.8353 55.1964L34.6914 50.6794ZM36.647 49.7048C36.1261 49.9971 35.5187 50.2867 34.6914 50.6794L36.8353 55.1964C37.6207 54.8236 38.3946 54.4576 39.0941 54.065L36.647 49.7048ZM46.3292 48.9602C46.3341 48.9516 46.2774 49.0462 46.138 49.2286C46.0086 49.3978 45.8342 49.6082 45.6231 49.8332C45.189 50.2958 44.6667 50.7489 44.1252 51.0597C43.583 51.3709 43.1556 51.4648 42.832 51.4399C42.5645 51.4194 42.0935 51.3008 41.4412 50.6149L37.818 54.0605C39.1847 55.4977 40.7622 56.2957 42.4492 56.4253C44.0802 56.5505 45.5132 56.028 46.614 55.3963C48.73 54.1819 50.2265 52.2179 50.6707 51.4404L46.3292 48.9602ZM47.7091 46.3116C47.3143 47.1199 46.9212 47.9239 46.3292 48.9602L50.6707 51.4404C51.349 50.2531 51.8023 49.324 52.2019 48.5058L47.7091 46.3116ZM47.7195 46.2906L47.7194 46.2907L52.1916 48.5267L52.1916 48.5267L47.7195 46.2906ZM52.0265 39.465C49.4355 42.7964 48.6156 44.4553 47.7091 46.3115L52.2019 48.5057C53.0022 46.8672 53.6488 45.5233 55.9733 42.5347L52.0265 39.465ZM52.3309 39.0747C52.2311 39.2025 52.1291 39.3331 52.0265 39.465L55.9733 42.5347C56.0728 42.4068 56.172 42.2797 56.2723 42.1513L52.3309 39.0747ZM52.759 23.0427C55.3358 28.3209 55.7548 31.3574 55.4449 33.3837C55.1354 35.4069 54.0641 36.8542 52.3309 39.0747L56.2723 42.1513C57.9035 40.0615 59.852 37.64 60.3874 34.1397C60.9223 30.6423 60.0111 26.5005 57.2521 20.8491L52.759 23.0427ZM52.3228 22.1368C52.4693 22.443 52.6159 22.7496 52.759 23.0427L57.2521 20.8491C57.1195 20.5775 56.9818 20.2896 56.8335 19.9796L52.3228 22.1368ZM44.3459 15.0531C45.4092 14.7088 46.1936 14.7567 46.8126 14.9531C47.4643 15.1599 48.1206 15.5929 48.7943 16.2956C50.2101 17.7721 51.2854 19.9676 52.3228 22.1368L56.8335 19.9796C55.8741 17.9734 54.4759 14.9967 52.4034 12.8352C51.3331 11.7188 49.9916 10.7162 48.3247 10.1873C46.625 9.648 44.7698 9.66018 42.8055 10.2963L44.3459 15.0531ZM40.7733 16.7929C42.0427 15.9785 43.3337 15.3936 44.3724 15.0444L42.7789 10.3051C41.3649 10.7805 39.7006 11.5406 38.0734 12.5845L40.7733 16.7929ZM36.8179 12.7458C36.8368 13.2591 36.836 13.6455 36.8288 13.9103C36.821 14.2007 36.8069 14.2939 36.814 14.2447L41.7628 14.9581C41.8221 14.5472 41.8575 13.7329 41.8146 12.5623L36.8179 12.7458ZM31.8222 7.00688C33.6932 7.11227 34.8672 8.12866 35.6776 9.4676C36.5446 10.9 36.8065 12.4353 36.8179 12.7458L41.8146 12.5623C41.7738 11.4513 41.2875 9.07988 39.9551 6.87858C38.5662 4.58379 36.0896 2.23934 32.1034 2.01479L31.8222 7.00688ZM28.255 6.68338C29.204 6.79146 30.3772 6.92548 31.8222 7.00688L32.1034 2.01479C30.8143 1.94218 29.7659 1.82314 28.8209 1.7155L28.255 6.68338ZM22.8771 8.04661C24.1432 6.94982 24.8088 6.67105 25.3008 6.56828C25.9081 6.44143 26.5872 6.49341 28.255 6.68338L28.8209 1.7155C27.3784 1.55119 25.8312 1.34959 24.2785 1.67391C22.6104 2.02233 21.1823 2.89949 19.6032 4.26746L22.8771 8.04661ZM38.0734 12.5845C39.6574 11.5683 41.7193 12.6737 41.7859 14.5275L36.7892 14.7071C36.8607 16.6971 39.0746 17.8826 40.7733 16.7929L38.0734 12.5845ZM37.9975 54.2145C38.0063 54.2203 37.9769 54.2015 37.9327 54.1658C37.8845 54.1268 37.8449 54.0889 37.818 54.0605L41.4412 50.6149C41.1914 50.3522 40.9564 50.1755 40.737 50.0318L37.9975 54.2145ZM41.7859 14.5275C41.791 14.6692 41.7837 14.8136 41.7628 14.9581L36.814 14.2447C36.7916 14.4 36.7837 14.5546 36.7892 14.7071L41.7859 14.5275ZM39.0941 54.065C38.6466 54.3162 38.2462 54.2724 38.1037 54.2419C37.9752 54.2145 37.9464 54.181 37.9975 54.2145L40.737 50.0318C40.3431 49.7738 39.7979 49.491 39.1483 49.3522C38.4846 49.2105 37.5583 49.1933 36.647 49.7048L39.0941 54.065ZM6.98722 19.2136C7.03546 19.1425 7.07429 19.0993 7.0833 19.0894L10.7812 22.4547C10.8789 22.3474 11.0015 22.2024 11.1238 22.0224L6.98722 19.2136ZM24.5302 56.1973C24.0008 56.5808 23.3468 56.5276 22.9066 56.2054L25.86 52.1709C24.6373 51.2758 22.9121 51.1955 21.5972 52.148L24.5302 56.1973ZM9.25871 37.8705C8.04901 37.1786 7.67054 35.6322 8.38706 34.4642L12.649 37.0787C13.3957 35.8616 13.001 34.2509 11.7413 33.5304L9.25871 37.8705ZM13.7721 14.38C13.8329 13.9292 14.1361 13.4921 14.6418 13.3014L16.4062 17.9797C17.6996 17.492 18.5538 16.3335 18.7272 15.0485L13.7721 14.38Z" fill="white"/>
  </g>
  <path fill-rule="evenodd" clip-rule="evenodd" d="M20.7422 22.5837C19.7616 21.9189 18.9117 21.2152 18.242 20.5657C13.3892 15.7528 18.2187 8.95455 21.24 6.15704C24.0852 3.69228 25.4275 3.84516 28.5378 4.19944C29.4848 4.3073 30.5956 4.43383 31.9627 4.51084C37.8199 4.84078 39.2639 11.2325 39.3161 12.6541C39.3579 13.7913 39.3142 14.4313 39.2871 14.6091C39.2892 14.6642 39.2907 14.7191 39.2918 14.7737C40.7818 13.8005 42.3121 13.0995 43.5755 12.6747C49.6309 10.7138 52.5813 16.8829 54.5781 21.0582C54.7254 21.3663 54.8676 21.6636 55.0054 21.9459C60.3412 32.8754 57.6659 36.3028 54.3014 40.613C54.2014 40.7411 54.1008 40.87 53.9998 40.9999C51.542 44.1599 50.8088 45.6612 49.9554 47.4086L49.9554 47.4087C49.5582 48.2219 49.135 49.0885 48.4998 50.2003C47.9353 51.1884 43.5754 56.7006 39.4994 52.1975C38.1802 51.577 37.1033 47.4444 36.2748 42.8241C34.535 43.6882 32.5742 44.174 30.4999 44.174C30.2471 44.174 29.9961 44.1668 29.7469 44.1526C29.1377 48.6447 25.5198 52.4393 22.9135 54.28C17.2869 58.1601 11.4979 52.1579 9.30668 48.6718C7.40995 45.4202 7.80818 44.1293 8.73095 41.1379C9.0119 40.2272 9.34146 39.1588 9.66969 37.8296C10.7763 33.3477 15.0672 32.2451 17.5311 32.0817C17.5104 31.7818 17.4999 31.4791 17.4999 31.174C17.4999 27.8812 18.7241 24.8743 20.7422 22.5837Z" fill="#E31C24"/>
  <path d="M17 15.2004C30.6 11.2004 37.6667 21.867 39.5 27.7004C41.9 35.7003 30.8333 39.7004 25 40.7004C18 41.7004 17.5 39.7004 10.5 35.7004C3.5 31.7004 6.5 24.2004 7.5 22.7004C8.3 21.5004 8.83333 20.8671 9 20.7004C11.4 17.1004 15.3333 15.5337 17 15.2004Z" fill="url(#paint0_linear_84_661)"/>
  <path d="M20.3444 41.1456C23.3043 29.8127 33.9948 29.4933 38.9701 30.7502C45.7443 32.5545 43.8709 42.102 42.0874 46.6502C39.8036 52.0206 38.1529 51.499 32.2785 54.6846C26.404 57.8701 22.3046 52.4785 21.6563 51.1183C21.1376 50.0301 20.9116 49.3775 20.8633 49.1872C19.3073 45.9226 19.8691 42.4659 20.3444 41.1456Z" fill="url(#paint1_linear_84_661)"/>
  <path d="M34.7769 29.0552C34.8166 28.9928 34.8537 28.9251 34.8855 28.8523C35.1581 28.2462 35.317 27.4242 34.8193 26.8805C34.2581 26.2666 33.3236 26.4487 32.5956 26.5761C32.3574 26.6177 32.127 26.675 31.91 26.753C31.91 26.6386 31.9073 26.5241 31.8967 26.4096C31.8438 25.7671 31.8358 25.1506 31.6347 24.5289C31.5235 24.1829 31.0681 24.1309 30.8696 24.43C30.4699 25.0335 30.0278 25.6084 29.7313 26.2692C29.591 25.7359 29.448 25.2052 29.3342 24.6667C29.1833 23.9514 28.188 24.071 27.9762 24.6667C27.6214 25.6683 27.5791 26.7582 27.7062 27.817C26.9014 27.3747 25.9855 27.1406 25.0325 27.2134C23.7062 27.3149 23.0258 28.704 23.8756 29.7549C24.2648 30.2362 24.8551 30.4807 25.4242 30.6992C25.4375 30.7044 25.4481 30.707 25.4613 30.7122C25.2998 30.7955 25.141 30.8891 24.9848 30.9932C24.1668 31.5421 23.6453 32.7673 24.6883 33.4098C25.3686 33.8286 26.1496 33.8312 26.9067 33.6075C26.9014 33.6309 26.8961 33.6543 26.8908 33.6777C26.7187 34.6116 26.7346 35.803 27.6982 36.3389C28.7968 36.9476 29.8081 35.9773 30.3905 35.1475C30.4196 35.1059 30.4487 35.0617 30.4778 35.0174C30.7055 35.5845 30.9676 36.1386 31.2587 36.6745C31.5049 37.1271 32.2118 37.3326 32.6538 37.0335C33.9748 36.1412 34.1125 34.6116 33.853 33.1211C33.9642 33.1471 34.0807 33.1679 34.2051 33.1783C34.9914 33.2485 35.8491 32.9884 36.262 32.286C36.9741 31.0712 35.9735 29.885 34.7743 29.0552H34.7769ZM27.0285 31.8256C26.8352 31.8594 26.6367 31.8724 26.4408 31.8724C26.8485 31.6175 27.3832 31.4666 27.7247 31.4614C27.8226 31.4614 27.9126 31.438 27.9921 31.4016C27.73 31.6227 27.4176 31.7528 27.0258 31.8256H27.0285ZM29.7154 31.6435C29.7075 31.6617 29.7022 31.6825 29.6942 31.7033C29.681 31.7476 29.6678 31.7918 29.6572 31.8386C29.6413 31.8334 29.6281 31.8334 29.6122 31.8282C29.6307 31.797 29.6466 31.7658 29.6678 31.732C29.6863 31.7033 29.7022 31.6721 29.7154 31.6435ZM29.0007 33.5607C29.0007 33.5607 29.006 33.5399 29.006 33.5321C29.0218 33.5347 29.0377 33.5399 29.0536 33.5425C29.0245 33.5997 28.9954 33.6569 28.9636 33.7142C28.9768 33.6647 28.9901 33.6127 29.0007 33.5633V33.5607ZM31.1555 26.3992C31.1105 26.5813 31.0496 26.7556 30.9781 26.9247C30.994 26.7894 31.0126 26.6542 31.0337 26.5163C31.0443 26.4434 31.0337 26.3628 31.0099 26.2848C31.0681 26.1287 31.1264 25.97 31.1846 25.8139C31.2085 26.0064 31.2032 26.2041 31.1555 26.3992Z" fill="#FFEE00"/>
  <defs>
    <filter id="filter0_d_84_661" x="0.5" y="0.500977" width="61.0334" height="60.6771" filterUnits="userSpaceOnUse" color-interpolation-filters="sRGB">
      <feFlood flood-opacity="0" result="BackgroundImageFix"/>
      <feColorMatrix in="SourceAlpha" type="matrix" values="0 0 0 0 0 0 0 0 0 0 0 0 0 0 0 0 0 0 127 0" result="hardAlpha"/>
      <feOffset dx="-1" dy="1"/>
      <feGaussianBlur stdDeviation="1"/>
      <feComposite in2="hardAlpha" operator="out"/>
      <feColorMatrix type="matrix" values="0 0 0 0 0 0 0 0 0 0 0 0 0 0 0 0 0 0 0.25 0"/>
      <feBlend mode="normal" in2="BackgroundImageFix" result="effect1_dropShadow_84_661"/>
      <feBlend mode="normal" in="SourceGraphic" in2="effect1_dropShadow_84_661" result="shape"/>
    </filter>
    <linearGradient id="paint0_linear_84_661" x1="5.5" y1="27.1741" x2="39.5" y2="27.1741" gradientUnits="userSpaceOnUse">
      <stop offset="0.569853" stop-color="#E82828"/>
      <stop offset="0.952206" stop-color="#E6454B" stop-opacity="0"/>
    </linearGradient>
    <linearGradient id="paint1_linear_84_661" x1="31.4999" y1="60.1741" x2="31.4999" y2="30.1741" gradientUnits="userSpaceOnUse">
      <stop offset="0.583333" stop-color="#EB131B"/>
      <stop offset="1" stop-color="#D12329" stop-opacity="0"/>
    </linearGradient>
  </defs>
</svg>