<svg width="16" height="16" viewBox="0 0 16 16" fill="none" xmlns="http://www.w3.org/2000/svg">
<g id="icon-pencil-mono" clip-path="url(#clip0_62_3065)">
<path id="Vector" fill-rule="evenodd" clip-rule="evenodd" d="M8.93111 4.34304C8.5406 3.95253 7.90747 3.95251 7.51694 4.343L2.37149 9.48789C2.24738 9.61198 2.15812 9.76655 2.11267 9.93606L1.35805 12.7506L0.816045 14.7753C0.800991 14.8319 0.801066 14.8914 0.816263 14.9479C0.83146 15.0045 0.861246 15.056 0.902636 15.0974C0.944026 15.1388 0.995566 15.1686 1.05209 15.1838C1.10862 15.199 1.16815 15.199 1.22471 15.184L3.24805 14.6413L6.32189 13.8173C6.32199 13.8173 6.3221 13.8173 6.32221 13.8173C6.32253 13.8173 6.32284 13.8172 6.32307 13.8169L11.6569 8.48308C12.0475 8.09256 12.0475 7.45939 11.6569 7.06887L8.93111 4.34304ZM14.862 4.33597L11.6647 1.13797C11.6029 1.07601 11.5294 1.02685 11.4485 0.99331C11.3676 0.959769 11.2809 0.942505 11.1934 0.942505C11.1058 0.942505 11.0191 0.959769 10.9382 0.99331C10.8574 1.02685 10.7839 1.07601 10.722 1.13797L9.77944 2.0802C9.38878 2.4707 9.38871 3.10398 9.77929 3.49456L12.5055 6.22072C12.896 6.6113 13.5293 6.61124 13.9198 6.22058L14.862 5.27797C14.924 5.21611 14.9732 5.14264 15.0067 5.06177C15.0402 4.98089 15.0575 4.8942 15.0575 4.80664C15.0575 4.71908 15.0402 4.63239 15.0067 4.55151C14.9732 4.47063 14.924 4.39716 14.862 4.33531" fill="white"/>
</g>
<defs>
<clipPath id="clip0_62_3065">
<rect width="16" height="16" fill="white"/>
</clipPath>
</defs>
</svg>
