<svg width="47" height="16" viewBox="0 0 47 16" fill="none" xmlns="http://www.w3.org/2000/svg">
<path d="M10.6581 3.70951C10.5266 3.39447 10.1235 3.21123 9.79196 3.39447C8.50583 4.10975 7.47577 5.1481 6.86431 6.40345C6.87786 6.03376 6.88431 5.66406 6.88182 5.29276C6.87779 4.79448 6.90737 4.24959 6.69479 3.7722C6.49402 3.32375 6.07994 2.95406 5.51696 2.9862C4.94689 3.01835 4.523 3.4652 4.2792 3.88954C3.77652 4.76073 3.88873 5.78783 4.0514 6.74582C3.98772 6.57383 3.92409 6.40345 3.85863 6.23146C3.62073 5.60941 3.40183 4.8861 2.97361 4.34121C2.51355 3.75452 1.68709 3.27874 0.931995 3.69666C0.234166 4.08242 0.086698 4.96165 0.107542 5.65763C0.150745 7.13158 1.08103 8.51391 1.91685 9.75318C2.35465 10.4042 2.83407 11.031 3.38601 11.6081C3.98609 12.2349 4.64311 12.7332 5.53213 12.955C5.801 13.0226 6.03293 12.9213 6.16817 12.7541C6.36262 12.6914 6.53877 12.5709 6.6552 12.4214C7.72598 11.0712 8.80011 9.71621 9.69806 8.25995C10.5344 6.90494 11.3309 5.30884 10.6582 3.71112L10.6581 3.70951ZM4.88747 5.16257C4.94164 4.78805 5.04542 4.41193 5.30313 4.11296C5.36082 4.04706 5.53506 3.83489 5.65805 3.89275C5.72493 3.92329 5.77297 4.10332 5.79113 4.15797C5.92902 4.58713 5.86911 5.08381 5.86531 5.5194C5.85979 6.04501 5.83298 6.57061 5.78837 7.09461C5.70875 8.02849 5.56137 8.95433 5.35677 9.86891C5.34535 9.84963 5.33564 9.82873 5.32599 9.80944C5.24759 9.18257 5.16913 8.55409 5.08896 7.92722C4.97297 7.0271 4.75688 6.0643 4.88753 5.16417L4.88747 5.16257ZM1.69336 6.35201C1.60996 6.0868 1.56047 5.82641 1.5566 5.55315C1.55421 5.49368 1.61089 5.18186 1.65145 4.99862C1.79892 5.18025 1.8578 5.36509 1.94529 5.59977C2.35654 6.69438 2.68707 7.81149 3.1089 8.9045C2.5267 8.10403 1.97607 7.25053 1.69336 6.35201ZM8.31898 7.85329C7.85531 8.50266 7.35689 9.12631 6.84035 9.74032C7.16693 8.90289 7.39273 8.0301 7.76242 7.20552C8.18918 6.25557 8.86349 5.41653 9.7245 4.76394C9.75858 5.87784 8.93718 6.98692 8.31904 7.85489L8.31898 7.85329Z" fill="#151941"/>
<path d="M18.0617 7.72764C18.0617 7.72764 18.3926 13.4435 22.3468 14.0054C26.301 14.5673 27.6154 12.7269 28.6594 10.5015C29.7035 8.27599 29.3433 4.22781 29.3433 4.22781C29.3433 4.22781 26.8679 5.65272 26.1232 6.59643C25.3795 7.54063 24.7341 8.27274 24.7341 8.27274C24.7341 8.27274 24.7154 6.06619 24.3222 4.97591C23.9296 3.887 23.2919 2.03554 23.2919 2.03554C23.2919 2.03554 22.0014 4.14538 21.8243 5.48447C21.6483 6.82404 21.7919 8.44375 21.7919 8.44375C21.7919 8.44375 20.8092 6.04313 19.9215 5.36851C19.0327 4.6934 18.1433 4.66344 18.1433 4.66344L18.0613 7.72852L18.0617 7.72764Z" fill="#FF7638"/>
<path d="M45.8529 3.70951C45.7214 3.39447 45.3183 3.21123 44.9868 3.39447C43.7007 4.10975 42.6706 5.1481 42.0591 6.40345C42.0727 6.03376 42.0791 5.66406 42.0766 5.29276C42.0726 4.79448 42.1022 4.24959 41.8896 3.7722C41.6888 3.32375 41.2748 2.95406 40.7118 2.9862C40.1417 3.01835 39.7178 3.4652 39.474 3.88954C38.9713 4.76073 39.0836 5.78783 39.2462 6.74582C39.1825 6.57383 39.1189 6.40345 39.0535 6.23146C38.8156 5.60941 38.5967 4.8861 38.1684 4.34121C37.7084 3.75452 36.8819 3.27874 36.1268 3.69666C35.429 4.08242 35.2815 4.96165 35.3024 5.65763C35.3456 7.13158 36.2759 8.51391 37.1117 9.75318C37.5495 10.4042 38.0289 11.031 38.5808 11.6081C39.1809 12.2349 39.8379 12.7332 40.7269 12.955C40.9958 13.0226 41.2278 12.9213 41.363 12.7541C41.5574 12.6914 41.7336 12.5709 41.85 12.4214C42.9208 11.0712 43.9949 9.71621 44.8929 8.25995C45.7292 6.90494 46.5258 5.30884 45.853 3.71112L45.8529 3.70951ZM40.0823 5.16257C40.1365 4.78805 40.2402 4.41193 40.498 4.11296C40.5556 4.04706 40.7299 3.83489 40.8529 3.89275C40.9198 3.92329 40.9678 4.10332 40.986 4.15797C41.1238 4.58713 41.0639 5.08381 41.0601 5.5194C41.0546 6.04501 41.0278 6.57061 40.9832 7.09461C40.9036 8.02849 40.7562 8.95433 40.5516 9.86891C40.5402 9.84963 40.5305 9.82873 40.5208 9.80944C40.4424 9.18257 40.364 8.55409 40.2838 7.92722C40.1678 7.0271 39.9517 6.0643 40.0824 5.16417L40.0823 5.16257ZM36.8882 6.35201C36.8048 6.0868 36.7553 5.82641 36.7514 5.55315C36.749 5.49368 36.8057 5.18186 36.8463 4.99862C36.9937 5.18025 37.0526 5.36509 37.1401 5.59977C37.5514 6.69438 37.8819 7.81149 38.3037 8.9045C37.7215 8.10403 37.1709 7.25053 36.8882 6.35201ZM43.5138 7.85329C43.0501 8.50266 42.5517 9.12631 42.0352 9.74032C42.3618 8.90289 42.5876 8.0301 42.9572 7.20552C43.384 6.25557 44.0583 5.41653 44.9193 4.76394C44.9534 5.87784 44.132 6.98692 43.5139 7.85489L43.5138 7.85329Z" fill="#151941"/>
</svg>
