<svg width="36" height="24" viewBox="0 0 36 24" fill="none" xmlns="http://www.w3.org/2000/svg">
<g id="L_Img_2">
<path id="Vector" d="M8.47203 20C8.47203 20 7.15143 15.9558 5.83083 11.5607C4.50887 7.16441 3 5.23067 3 5.23067C3 5.23067 6.0191 8.21963 7.15143 10.1534C8.28376 12.0871 9.22647 13.6699 9.22647 13.6699C9.22647 13.6699 9.60436 10.8564 10.1705 8.39508C10.7367 5.93373 11.4911 4.70306 11.4911 4.70306C11.4911 4.70306 12.2456 7.69202 12.4338 10.3301C12.6221 12.9669 12.8117 14.5497 12.8117 14.5497C12.8117 14.5497 13.5662 12.0884 14.5102 9.4503C15.4529 6.81351 17.1501 4 17.1501 4C17.1501 4 18.4707 5.58283 18.4707 9.62701C18.4707 13.6712 18.8486 15.0773 18.8486 15.0773C18.8486 15.0773 18.8486 13.8466 21.4898 10.5055C24.131 7.16441 27.3383 5.58283 27.3383 5.58283C27.3383 5.58283 26.7722 9.97791 25.0737 12.2638C23.3752 14.5497 22.809 15.2528 22.809 15.2528C22.809 15.2528 25.8281 12.616 27.9032 10.3301C29.9782 8.04418 32.9973 5.935 32.9973 5.935C32.9973 5.935 31.2988 8.92395 29.6017 12.2651C27.9032 15.6062 26.7722 19.2982 26.7722 19.2982C26.7722 19.2982 22.0559 18.243 17.1501 18.0675C12.2442 17.8921 8.47068 20.0013 8.47068 20.0013L8.47203 20Z" fill="#00C400"/>
</g>
</svg>
