<svg width="40" height="40" viewBox="0 0 40 40" fill="none" xmlns="http://www.w3.org/2000/svg">
<g id="R_Img_2">
<g id="Group 12">
<path id="Vector" d="M35.86 17.7687C35.6124 15.5339 35.0216 13.333 34.1024 11.2746C33.9104 10.8443 33.7027 10.4213 33.4828 10.0046C33.5144 10.0046 33.5468 9.99551 33.5802 9.97175C34.3093 9.45281 34.3964 8.38387 33.9299 7.66484C33.6878 7.29208 33.2862 7.03718 32.8354 7.00429C32.3485 6.96774 31.8773 7.16783 31.5221 7.48851C31.1817 7.7964 30.9554 8.23586 30.96 8.69085C28.0411 8.16277 25.1009 7.73885 22.1375 7.55521C19.1445 7.36883 16.1236 7.43187 13.1611 7.91792C11.5723 8.17921 10.0048 8.56203 8.48183 9.08097C8.15163 8.49442 7.40684 8.21028 6.74553 8.36742C5.98868 8.54741 5.62046 9.32765 5.76515 10.0439C5.83471 10.3875 6.01372 10.6926 6.28641 10.9082C5.14186 12.4568 4.43974 14.2832 4.15592 16.1753C3.85912 18.1542 3.99454 20.187 4.48983 22.1239C4.99717 24.112 5.88387 26.0498 7.22041 27.6331C7.891 28.428 8.67104 29.1187 9.54846 29.6851C10.4342 30.2561 11.4026 30.6874 12.4052 31.0172C14.5227 31.7152 16.7812 31.9573 19.0035 32.0258C21.5105 32.1044 24.0269 31.9043 26.4894 31.4302C28.478 31.0473 30.4972 30.5065 32.2094 29.401C33.0172 28.8793 33.7463 28.2251 34.2953 27.4394C34.9205 26.5459 35.3026 25.519 35.5438 24.4656C36.0428 22.2884 36.1058 19.9824 35.86 17.7677V17.7687Z" fill="#EEC456"/>
<path id="Vector_2" d="M29.1321 20.6675C28.4365 20.4455 27.6907 20.8658 27.4245 21.509C27.3939 21.583 27.3735 21.657 27.3596 21.731C27.2706 21.9676 27.2427 22.228 27.2919 22.4866C27.4162 23.1407 28.122 23.6259 28.7833 23.5829C29.5244 23.5345 30.0976 22.9388 30.1848 22.2262C30.2683 21.5464 29.7813 20.8731 29.133 20.6666L29.1321 20.6675Z" fill="#F19993"/>
<path id="Vector_3" d="M10.1218 20.2107C9.42615 19.9887 8.68043 20.409 8.41331 21.0522C8.3827 21.1262 8.3623 21.2002 8.34838 21.2742C8.25934 21.5108 8.23152 21.7712 8.28067 22.0297C8.40496 22.6839 9.1108 23.169 9.77211 23.1261C10.5132 23.0777 11.0864 22.482 11.1736 21.7694C11.2571 21.0896 10.7701 20.4163 10.1218 20.2098V20.2107Z" fill="#F19993"/>
<path id="Vector_4" d="M28.0144 17.7183C27.9615 17.3319 27.6378 17.0358 27.2557 16.9618C26.8624 16.8851 26.4413 17.0121 26.2261 17.3629C26.2234 17.3675 26.2215 17.3721 26.2187 17.3766C26.2095 17.3876 26.2011 17.3986 26.1946 17.4113C26.113 17.5667 26.0824 17.7339 26.0935 17.8974C26.0991 18.0006 26.1223 18.102 26.1621 18.1971C26.164 18.2016 26.1659 18.2053 26.1677 18.2099C26.1714 18.2181 26.1751 18.2263 26.1788 18.2345C26.2243 18.3378 26.2855 18.4355 26.3625 18.5223C26.6407 18.8403 27.0971 18.9271 27.4736 18.7306C27.8354 18.5415 28.07 18.1194 28.0153 17.7183H28.0144Z" fill="#1D2C3F"/>
<path id="Vector_5" d="M27.022 17.8773C27.0211 17.8755 27.0192 17.8736 27.0183 17.8718C27.0183 17.8718 27.0183 17.8718 27.0183 17.8727C27.0192 17.8736 27.0211 17.8755 27.022 17.8773Z" fill="#1D2C3F"/>
<path id="Vector_6" d="M12.9487 17.7183C12.8958 17.3319 12.5721 17.0358 12.19 16.9618C11.7967 16.8851 11.3757 17.0121 11.1605 17.3629C11.1577 17.3675 11.1558 17.3721 11.1531 17.3766C11.1438 17.3876 11.1354 17.3986 11.1289 17.4113C11.0473 17.5667 11.0167 17.7339 11.0278 17.8974C11.0334 18.0006 11.0566 18.102 11.0965 18.1971C11.0983 18.2016 11.1002 18.2053 11.102 18.2099C11.1058 18.2181 11.1095 18.2263 11.1132 18.2345C11.1586 18.3378 11.2198 18.4355 11.2968 18.5223C11.5751 18.8403 12.0314 18.9271 12.408 18.7306C12.7697 18.5415 13.0044 18.1194 12.9496 17.7183H12.9487Z" fill="#1D2C3F"/>
<path id="Vector_7" d="M11.9563 17.8773C11.9554 17.8755 11.9536 17.8736 11.9526 17.8718C11.9526 17.8718 11.9526 17.8718 11.9526 17.8727C11.9536 17.8736 11.9554 17.8755 11.9563 17.8773Z" fill="#1D2C3F"/>
<path id="Vector_8" d="M23.2414 10.9858C22.6525 13.2982 22.0626 15.6106 21.4736 17.923C21.3169 18.5369 21.161 19.1509 21.0043 19.7658C20.407 19.657 19.7995 19.647 19.1994 19.7347C18.8182 17.3702 18.4369 15.0067 18.0567 12.6422L17.7024 10.4458C17.6671 10.2284 17.3314 10.3207 17.3666 10.5372C17.7812 13.1091 18.1958 15.6809 18.6104 18.2528C18.7059 18.8476 18.8024 19.4423 18.8979 20.038C18.8757 20.3788 18.9628 20.7223 19.166 21.0037C19.3515 21.2605 19.6149 21.4551 19.9154 21.5583C19.6065 21.9302 19.2977 22.302 18.9879 22.6738C18.9081 22.7698 18.8933 22.9041 18.9879 22.9973C19.0695 23.0777 19.2365 23.0932 19.3162 22.9973C19.6112 22.6419 19.907 22.2865 20.202 21.9311C20.4877 22.5048 20.9375 22.99 21.507 23.3106C21.7667 23.4568 22.0014 23.0612 21.7417 22.915C21.2241 22.6236 20.8104 22.1741 20.5711 21.6378C20.5758 21.6332 20.5804 21.6277 20.5841 21.6232C20.6351 21.5528 20.6834 21.4797 20.7307 21.4066C21.0321 21.0905 21.2176 20.6712 21.2492 20.2372C21.264 20.1842 21.2779 20.1321 21.29 20.0791C21.2946 20.059 21.2965 20.038 21.2955 20.0179C21.302 20.0061 21.3076 19.9923 21.3113 19.9777C21.9003 17.6653 22.4902 15.3529 23.0791 13.0405L23.5791 11.0781C23.6338 10.8634 23.298 10.772 23.2433 10.9867L23.2414 10.9858Z" fill="#1D2C3F"/>
<path id="Vector_9" d="M33.5238 8.16816C33.3736 7.89133 33.1036 7.68668 32.7855 7.63917C32.4553 7.58983 32.1168 7.6949 31.8626 7.90686C31.5677 8.15354 31.4156 8.52722 31.385 8.89998C31.3729 9.04707 31.6057 9.04616 31.6178 8.89998C31.6614 8.36093 32.0574 7.84017 32.6473 7.85478C33.1918 7.86849 33.521 8.42946 33.4125 8.92282C33.3457 9.22614 33.1519 9.49109 32.8987 9.67291C32.779 9.75879 32.895 9.95796 33.0155 9.87025C33.5535 9.48287 33.8549 8.78303 33.522 8.16816H33.5238Z" fill="#1D2C3F"/>
<path id="Vector_10" d="M8.01529 9.36958C7.80382 9.00778 7.37067 8.75745 6.94124 8.81684C6.44966 8.88444 6.27157 9.39973 6.34114 9.83005C6.37917 10.0667 6.4951 10.2878 6.66669 10.4577C6.77243 10.5628 6.9366 10.4002 6.83086 10.296C6.67968 10.1462 6.58136 9.94608 6.56096 9.73412C6.54148 9.53129 6.58136 9.28736 6.74089 9.14392C6.90321 8.99773 7.15549 9.02058 7.34749 9.09001C7.54504 9.16219 7.71014 9.30654 7.81495 9.4847C7.89008 9.61261 8.09042 9.49749 8.01529 9.36958Z" fill="#1D2C3F"/>
</g>
</g>
</svg>
