<svg width="12" height="13" viewBox="0 0 12 13" fill="none" xmlns="http://www.w3.org/2000/svg">
<path id="Vector" d="M9.32895 7.2166C9.32895 7.2166 9.32895 6.55576 9.74439 4.90262C10.1598 3.25052 11.943 1.48689 11.943 1.48689C11.943 1.48689 12.2994 5.23304 11.2302 7.21557C10.1609 9.19913 8.14056 10.5208 8.14056 10.5208L7.30857 13L6.65479 12.8348L6.71382 11.0164C6.71382 11.0164 4.75246 10.7407 3.02946 9.30858C1.30757 7.87744 0 4.8479 0 4.8479C0 4.8479 2.37679 5.01311 3.92159 6.33479C5.46639 7.65647 5.94197 8.31835 5.94197 8.31835C5.94197 8.31835 5.70474 6.33479 6.06115 3.91136C6.41755 1.48689 8.08153 0 8.08153 0C8.08153 0 9.09172 3.08531 9.21089 4.68268C9.33007 6.28006 9.33007 7.2166 9.33007 7.2166H9.32895Z" fill="#00C400"/>
</svg>
