<svg width="33" height="36" viewBox="0 0 33 36" fill="none" xmlns="http://www.w3.org/2000/svg">
<g id="Layer_1" clip-path="url(#clip0_67_10295)">
<path id="Vector" d="M0.062482 24.7623C0.062482 24.7623 0.0361321 33.6979 10.0465 35.724C10.0465 35.724 19.6518 37.6656 27.6401 31.2431C27.6401 31.2431 38.5186 22.0815 28.3016 11.7037C28.1047 8.63043 27.2157 5.60154 25.7235 2.90688C25.1881 1.94024 24.571 1.02769 23.89 0.158131C23.6293 -0.173327 23.1522 0.0665988 23.0344 0.384189C22.542 1.72389 22.0483 3.06359 21.556 4.4033C21.3091 5.07315 21.0636 5.743 20.8168 6.41285C20.5796 7.05635 20.3716 7.71927 20.0998 8.3489C20.0762 8.40299 19.9944 8.56525 19.9389 8.65124C19.8876 8.73167 19.8182 8.81072 19.7655 8.85094C19.5783 8.99518 19.2857 9.04649 19.086 9.07284C18.3926 9.16299 17.6922 9.21569 16.9946 9.26977C15.5745 9.37933 14.1502 9.44036 12.7259 9.45561C11.2447 9.47087 9.76492 9.43342 8.28654 9.34605C7.52515 7.41277 6.53632 5.57658 5.32283 3.88877C5.16195 3.6641 4.87765 3.55593 4.62246 3.70571C4.56006 3.74177 4.50735 3.79585 4.46436 3.85826C4.15509 3.50323 3.59203 3.6641 3.54904 4.16476C2.95824 11.0449 -0.501968 16.2443 0.062482 24.7623Z" fill="#EC9B12"/>
<path id="Vector_2" d="M12.275 10.8327C12.2778 10.5443 12.2709 10.2558 12.2542 9.96872C12.2487 9.87442 12.189 9.81755 12.1183 9.79536C12.0656 9.57069 11.8576 9.39595 11.6204 9.39595C11.3264 9.39595 11.1281 9.63033 11.1087 9.9077C11.0504 10.7107 10.9936 11.5137 10.9353 12.3153C10.9187 12.5441 11.0449 12.6967 11.2155 12.7674C11.4637 13.0434 12.0254 12.9699 12.11 12.5469C12.1419 12.5178 12.1641 12.4762 12.171 12.4248C12.2182 12.0462 12.2501 11.6662 12.2653 11.2862C12.2764 11.2446 12.2889 11.203 12.3 11.1614C12.3305 11.0491 12.3194 10.934 12.2764 10.8313L12.275 10.8327Z" fill="#F9560E"/>
<path id="Vector_3" d="M13.3346 10.1934C13.3179 10.2613 13.3027 10.3293 13.2888 10.3973C13.1848 10.4791 13.114 10.6067 13.114 10.78C13.114 10.8466 13.114 10.9132 13.114 10.9797C13.0544 11.3722 13.053 11.7647 13.1071 12.1627C13.1071 12.1655 13.1071 12.1669 13.1071 12.1697C13.1071 12.2335 13.1085 12.2986 13.1113 12.3624C13.1168 12.5247 13.1945 12.6717 13.3151 12.766C13.3151 12.791 13.3151 12.8159 13.3151 12.8409C13.3151 13.4997 14.3386 13.501 14.3386 12.8409C14.3386 12.0046 14.3386 11.167 14.34 10.3307C14.34 9.76208 13.4719 9.62478 13.3346 10.1948V10.1934Z" fill="#F9560E"/>
<path id="Vector_4" d="M16.3857 9.93405C16.0958 9.69967 15.5383 9.82588 15.5327 10.3141C15.5286 10.6427 15.5244 10.97 15.5203 11.2987C15.5203 11.3362 15.5244 11.3722 15.5327 11.4069V11.7758C15.5327 12.4346 16.5562 12.4359 16.5562 11.7758V11.2751C16.602 11.0324 16.6478 10.7897 16.6935 10.547C16.7421 10.2919 16.6325 10.0297 16.3857 9.93405Z" fill="#F9560E"/>
<path id="Vector_5" d="M18.0528 11.1143C18.0555 10.8244 18.05 10.5346 18.0361 10.2461C18.0306 10.1407 17.9446 10.0727 17.8558 10.0616C17.8017 9.9077 17.5216 9.88551 17.4925 10.0755C17.462 10.278 17.4412 10.4805 17.4315 10.6829C17.4245 10.7301 17.4176 10.7773 17.4106 10.8244C17.3441 10.83 17.2858 10.8716 17.2734 10.9617C17.2498 11.1281 17.2539 11.2793 17.3094 11.4388C17.3579 11.5802 17.5535 11.6205 17.6409 11.5109C17.6603 11.5109 17.6783 11.5081 17.6963 11.504C17.7782 11.6246 18.0098 11.6288 18.0403 11.454L18.0763 11.2502C18.0847 11.1989 18.0763 11.1531 18.0528 11.1156V11.1143Z" fill="#F9560E"/>
<path id="Vector_6" d="M22.8303 14.4164C21.2618 14.6799 19.574 15.0155 18.2759 15.9946C17.6199 16.4897 17.1179 17.1388 16.8433 17.9168C16.4924 18.9112 16.4952 20.0096 16.4633 21.0511C16.4231 22.3492 16.4286 23.6473 16.4771 24.944C16.4868 25.1867 16.8655 25.1881 16.8558 24.944C16.8141 23.847 16.8044 22.7472 16.8266 21.6502C16.8474 20.6198 16.8308 19.5436 17.061 18.5326C17.2482 17.7088 17.6643 16.9959 18.3092 16.4495C18.8889 15.9572 19.599 15.6299 20.3146 15.3886C21.1647 15.1029 22.0468 14.9309 22.9302 14.7825C23.1701 14.7423 23.0689 14.3761 22.8289 14.4164H22.8303Z" fill="#151941"/>
<path id="Vector_7" d="M17.1805 24.7859C17.1652 24.7263 17.1111 24.6652 17.0487 24.6541C15.3901 24.3601 13.662 24.2769 12.0339 24.7706C12.0269 23.9011 11.9701 23.0329 11.8605 22.1703C11.7496 21.3007 11.6081 20.4228 11.3571 19.581C11.1338 18.8293 10.7982 18.1262 10.2934 17.5229C9.82461 16.9612 9.23935 16.505 8.62081 16.118C7.91907 15.6784 7.166 15.3248 6.41571 14.9767C6.1952 14.8754 6.00243 15.2013 6.22433 15.304C7.4933 15.8906 8.81636 16.505 9.79548 17.5326C10.9202 18.7142 11.2267 20.3674 11.4472 21.9262C11.5887 22.9233 11.6539 23.9316 11.6553 24.9384C11.6553 24.9745 11.6636 25.005 11.6774 25.03C11.6636 25.0854 11.6705 25.1479 11.7149 25.2033C12.1351 25.7387 12.633 26.1949 13.1919 26.5819C13.472 26.776 13.7633 26.9535 14.0587 27.1241C14.2071 27.2087 14.3555 27.2919 14.5052 27.3751C14.6301 27.4445 14.7798 27.561 14.931 27.5554C15.0711 27.5499 15.1806 27.4445 15.2847 27.3641C15.415 27.2642 15.5412 27.1602 15.6647 27.0506C15.9018 26.8412 16.1251 26.6152 16.3331 26.3766C16.537 26.1408 16.7284 25.894 16.9017 25.6346C17.0737 25.3781 17.2623 25.1076 17.1805 24.7859ZM15.2347 25.3642C15.2458 25.342 15.2514 25.3198 15.2541 25.2976C15.2583 25.2976 15.2611 25.2976 15.2652 25.2976C15.2958 25.2976 15.3276 25.3004 15.3582 25.3004C15.3443 25.3087 15.329 25.3184 15.3166 25.3323C15.2666 25.3864 15.2167 25.4405 15.1668 25.496C15.189 25.4516 15.2112 25.4072 15.2333 25.3628L15.2347 25.3642ZM14.87 25.159C14.8811 25.1354 14.8852 25.1104 14.8866 25.0868C14.9532 25.0785 15.0212 25.0702 15.0877 25.0633C15.0877 25.066 15.0863 25.0702 15.0849 25.073C15.035 25.0646 14.9809 25.0799 14.9379 25.134C14.8977 25.1839 14.8561 25.2352 14.8159 25.2852C14.8339 25.2422 14.852 25.2006 14.87 25.1576V25.159ZM14.0975 24.8067C14.0087 24.815 13.9186 24.8206 13.8285 24.8233C13.9172 24.8164 14.0074 24.8109 14.0975 24.8067ZM12.4139 25.4238C12.4263 25.4238 12.4374 25.4238 12.4485 25.4225C12.4485 25.4363 12.4499 25.4502 12.4527 25.4641C12.4388 25.4502 12.4263 25.4377 12.4125 25.4252L12.4139 25.4238ZM12.6996 25.6665C12.6982 25.6762 12.6968 25.6846 12.6954 25.6929C12.6704 25.6707 12.6455 25.6471 12.6205 25.6235C12.6399 25.6235 12.6607 25.6222 12.6829 25.6152C12.6926 25.6125 12.7037 25.6083 12.7134 25.6055C12.7079 25.6263 12.7037 25.6471 12.6982 25.6679L12.6996 25.6665ZM13.0199 25.8718C13.0088 25.9037 13.0088 25.9342 13.0158 25.9633C12.988 25.9411 12.9617 25.9189 12.9339 25.8968C12.9631 25.8884 12.9908 25.8746 13.0158 25.851C13.0213 25.8468 13.0255 25.8413 13.031 25.8371L13.0185 25.8732L13.0199 25.8718ZM12.9658 25.0535C12.9561 25.0605 12.9478 25.066 12.9381 25.0716C12.9215 25.0217 12.8868 24.98 12.841 24.9592C12.952 24.9371 13.0643 24.9176 13.1752 24.901C13.1517 24.9676 13.1669 25.0549 13.2182 25.1146C13.2169 25.116 13.2155 25.1173 13.2141 25.1201C13.1655 25.0355 13.0643 24.9842 12.9658 25.0549V25.0535ZM13.3361 26.0562C13.3486 26.0424 13.3597 26.0271 13.3722 26.0133C13.3958 26.0687 13.4485 26.1145 13.5067 26.1325C13.5067 26.1741 13.5261 26.2171 13.5705 26.2518C13.7092 26.36 13.8354 26.4792 13.9477 26.6138C13.6925 26.4557 13.4443 26.2906 13.2071 26.1117C13.2529 26.1117 13.2987 26.0965 13.3347 26.0562H13.3361ZM15.3498 26.8246C15.25 26.9106 15.1487 26.9951 15.0447 27.0756C15.0073 27.1047 14.9574 27.1602 14.9074 27.1643C14.8589 27.1671 14.7424 27.0742 14.698 27.0492C14.655 27.0257 14.612 27.0021 14.5704 26.9771C14.5871 26.9605 14.6009 26.9397 14.6106 26.9161C14.6814 26.8773 14.7285 26.801 14.6911 26.7108C14.6689 26.6581 14.6439 26.611 14.6148 26.5666C14.6633 26.5694 14.7133 26.5541 14.7521 26.5125C14.8284 26.4293 14.906 26.3447 14.9823 26.2615C14.9449 26.3725 14.9074 26.482 14.87 26.593C14.809 26.7733 15.06 26.9119 15.1862 26.7774C15.2985 26.6568 15.4081 26.5333 15.5149 26.4085C15.5482 26.4695 15.612 26.5167 15.6757 26.5236C15.5703 26.6276 15.4608 26.7289 15.3498 26.826V26.8246ZM16.114 25.4627C16.053 25.3545 15.8852 25.3184 15.7867 25.4544C15.709 25.5611 15.63 25.6665 15.5495 25.7706C15.5787 25.6873 15.6064 25.6027 15.6355 25.5195C15.666 25.4308 15.6189 25.3503 15.5482 25.3101C15.7714 25.3184 15.9933 25.3254 16.2166 25.3337L16.114 25.4641V25.4627ZM16.6771 25.3184C16.6812 25.2533 16.6507 25.1839 16.6022 25.1368C16.6022 25.0383 16.5037 24.962 16.4122 24.9579C16.053 24.9454 15.6924 24.9329 15.3332 24.9204C15.3443 24.8871 15.3485 24.8511 15.3429 24.8178C15.838 24.8497 16.3317 24.9135 16.8199 24.9953C16.806 25.0979 16.7478 25.2103 16.6771 25.3171V25.3184Z" fill="#151941"/>
<path id="Vector_8" d="M24.8358 6.2048C24.686 5.88582 24.5182 5.57378 24.3352 5.27283C24.2048 5.05787 24.0342 4.664 23.7249 4.71116C23.4309 4.75692 23.3325 5.17437 23.2382 5.40597C23.0981 5.74575 22.9747 6.09385 22.8693 6.44611C22.6321 7.23385 22.4851 8.04655 22.4199 8.86618C22.4005 9.10888 22.7791 9.10749 22.7985 8.86618C22.8498 8.22822 22.9552 7.59859 23.1147 6.97867C23.2728 6.36706 23.467 5.73743 23.7499 5.17159C23.7596 5.15079 23.7693 5.12583 23.7832 5.1078C23.7832 5.1078 23.7832 5.1078 23.7846 5.10641C23.8248 5.14663 23.8609 5.22984 23.8858 5.26867C23.969 5.39904 24.0495 5.53079 24.1271 5.66393C24.2811 5.93159 24.4239 6.20619 24.5515 6.48633C24.8067 7.04246 25.005 7.62494 25.1492 8.2199C25.3129 8.88975 25.4017 9.57347 25.4183 10.2641C25.4238 10.5082 25.8038 10.5082 25.7969 10.2641C25.7608 8.86063 25.4322 7.47655 24.8358 6.20619V6.2048Z" fill="#151941"/>
<path id="Vector_9" d="M6.73176 10.4721C6.73176 10.4583 6.73037 10.4444 6.7276 10.4319C6.67212 9.13105 6.12432 7.88011 5.19928 6.95923C5.11746 6.87741 4.95797 6.88712 4.90111 6.99807C4.31447 8.15748 4.10367 9.45696 4.28396 10.7426C4.31724 10.9825 4.68337 10.8813 4.65009 10.6413C4.49753 9.54988 4.66534 8.42514 5.11746 7.42383C5.89271 8.28646 6.3365 9.41258 6.35315 10.5775C6.35592 10.8216 6.73315 10.8216 6.73176 10.5775C6.73176 10.5429 6.73176 10.5082 6.73176 10.4735V10.4721Z" fill="#151941"/>
<path id="Vector_10" d="M21.7931 24.1675H19.5242C19.1345 24.1675 19.1332 24.7736 19.5242 24.7736H21.7931C22.1828 24.7736 22.1842 24.1675 21.7931 24.1675Z" fill="#151941"/>
<path id="Vector_11" d="M21.7916 26.1549C21.0927 26.0994 20.4089 25.9468 19.7488 25.7111C19.3799 25.5793 19.2218 26.166 19.5879 26.2963C20.2994 26.5501 21.0386 26.7027 21.7916 26.7623C22.1813 26.7928 22.1786 26.1868 21.7916 26.1563V26.1549Z" fill="#151941"/>
<path id="Vector_12" d="M21.4893 27.8094C20.9207 27.7525 20.3549 27.6083 19.8307 27.3808C19.6809 27.3157 19.5047 27.3365 19.416 27.489C19.3411 27.6166 19.3744 27.8385 19.5242 27.9037C20.1552 28.1769 20.8042 28.3475 21.4893 28.4154C21.653 28.4321 21.7931 28.2643 21.7931 28.1117C21.7931 27.9342 21.653 27.8246 21.4893 27.808V27.8094Z" fill="#151941"/>
<path id="Vector_13" d="M8.32934 24.4684C7.41956 24.5336 6.52504 24.3866 5.6846 24.0344C5.53343 23.9706 5.35037 24.1023 5.31154 24.2466C5.263 24.4213 5.37117 24.5558 5.52373 24.6196C6.40854 24.9885 7.37518 25.1438 8.33072 25.0745C8.71765 25.0468 8.72043 24.4393 8.33072 24.4684H8.32934Z" fill="#151941"/>
<path id="Vector_14" d="M8.48199 26.1244C8.43483 25.951 8.27119 25.8886 8.10892 25.9122C7.50287 26.0037 6.89542 26.0938 6.28937 26.1854C6.12711 26.2103 6.03835 26.4142 6.07718 26.5584C6.12433 26.7318 6.28798 26.7942 6.45024 26.7706C7.0563 26.6791 7.66374 26.589 8.2698 26.4974C8.43206 26.4725 8.52082 26.2686 8.48199 26.1244Z" fill="#151941"/>
<path id="Vector_15" d="M8.2976 28.1187C8.20746 27.9647 8.03271 27.9439 7.88293 28.0105C7.42804 28.2102 6.97454 28.4113 6.51965 28.611C6.36987 28.6776 6.3352 28.8967 6.41148 29.0257C6.50162 29.1796 6.67637 29.2004 6.82615 29.1338C7.28104 28.9341 7.73454 28.733 8.18943 28.5333C8.33921 28.4668 8.37388 28.2476 8.2976 28.1187Z" fill="#151941"/>
<path id="Vector_16" d="M24.8844 9.54019C24.7762 8.6207 24.6445 7.68319 24.1452 6.88297C24.1313 6.8594 24.1133 6.83998 24.0939 6.82334C24.0939 6.82056 24.0939 6.81918 24.0939 6.8164C24.0856 6.71239 24.0759 6.60699 24.0634 6.50297C24.0453 6.34071 23.9372 6.19925 23.7597 6.19925C23.7569 6.19925 23.7555 6.19925 23.7527 6.19925C23.6016 6.16458 23.4337 6.22422 23.4046 6.40728C23.3963 6.46414 23.3866 6.52239 23.3783 6.58064C23.2729 6.60699 23.1786 6.68326 23.1578 6.79283C23.0191 7.50983 22.8832 8.22822 22.8305 8.95771C22.8249 9.03537 22.8568 9.10471 22.9067 9.1588C22.9067 9.16712 22.9067 9.17544 22.9053 9.18377C22.8832 9.52771 23.4171 9.59289 23.5017 9.2642C23.5017 9.26282 23.5017 9.26004 23.5031 9.25866C23.621 9.46807 23.9302 9.46114 24.0343 9.23647C24.0953 9.27807 24.1715 9.28917 24.2464 9.27668C24.2575 9.36406 24.2686 9.45282 24.2783 9.54019C24.2978 9.70245 24.4045 9.84391 24.5821 9.84391C24.7318 9.84391 24.9052 9.70384 24.8858 9.54019H24.8844Z" fill="#FFF9F2"/>
<path id="Vector_17" d="M6.04392 10.0616C5.8775 9.49302 5.71107 8.92302 5.54465 8.35441C5.48779 8.16164 5.31721 8.10894 5.17297 8.15332C5.03706 8.11587 4.88035 8.16164 4.8221 8.292C4.77495 8.32945 4.74027 8.37938 4.73057 8.44178C4.62655 9.15463 4.65568 9.8647 4.83597 10.5651C4.87341 10.7093 5.02319 10.8036 5.16881 10.7828C5.25202 10.7703 5.31443 10.7315 5.35881 10.676C5.37684 10.6677 5.39487 10.658 5.41151 10.6455C5.57239 10.8313 5.98706 10.7384 5.94961 10.4458C5.94684 10.4222 5.94268 10.3986 5.9399 10.3737C6.03005 10.3099 6.08552 10.2003 6.04531 10.0616H6.04392Z" fill="#FFF9F2"/>
<path id="Vector_18" d="M16.8046 27.8758C16.5397 28.1643 16.1583 28.5776 15.7256 28.3917C15.2777 28.2003 15.1681 27.6428 15.0766 27.2212C15.0433 27.0659 14.802 27.0326 14.7299 27.1754C14.5468 27.5402 14.3415 27.959 13.9671 28.1629C13.698 28.3099 13.2806 28.3113 13.0989 28.0284C12.9672 27.8245 12.6385 28.0145 12.7716 28.2197C13.0296 28.6205 13.5497 28.7246 13.9837 28.5679C14.3651 28.4306 14.6259 28.1213 14.8311 27.7829C14.967 28.2045 15.1889 28.5984 15.6299 28.7592C16.2096 28.9714 16.7061 28.5401 17.0723 28.1421C17.2373 27.9632 16.9696 27.6941 16.8046 27.8744V27.8758Z" fill="#151941"/>
<path id="Vector_19" d="M22.9888 18.778C22.9359 18.3916 22.6122 18.0956 22.23 18.0215C21.8368 17.9448 21.4157 18.0718 21.2005 18.4226C21.1977 18.4272 21.1959 18.4318 21.1931 18.4363C21.1838 18.4473 21.1755 18.4583 21.169 18.4711C21.0874 18.6264 21.0567 18.7936 21.0679 18.9571C21.0734 19.0603 21.0966 19.1618 21.1365 19.2568C21.1384 19.2613 21.1402 19.265 21.1421 19.2696C21.1458 19.2778 21.1495 19.286 21.1532 19.2942C21.1987 19.3975 21.2599 19.4952 21.3369 19.582C21.6151 19.9 22.0714 19.9868 22.448 19.7903C22.8097 19.6012 23.0444 19.1791 22.9897 18.778H22.9888Z" fill="#1D2C3F"/>
<path id="Vector_20" d="M7.92308 18.778C7.87021 18.3916 7.54651 18.0956 7.16437 18.0215C6.77111 17.9448 6.35002 18.0718 6.13484 18.4226C6.13206 18.4272 6.1302 18.4318 6.12742 18.4363C6.11814 18.4473 6.1098 18.4583 6.1033 18.4711C6.02168 18.6264 5.99107 18.7936 6.0022 18.9571C6.00777 19.0603 6.03096 19.1618 6.07084 19.2568C6.0727 19.2613 6.07455 19.265 6.07641 19.2696C6.08012 19.2778 6.08383 19.286 6.08754 19.2942C6.13298 19.3975 6.1942 19.4952 6.27118 19.582C6.54944 19.9 7.00577 19.9868 7.38234 19.7903C7.74407 19.6012 7.97873 19.1791 7.924 18.778H7.92308Z" fill="#1D2C3F"/>
</g>
<defs>
<clipPath id="clip0_67_10295">
<rect width="32.6771" height="36" fill="white"/>
</clipPath>
</defs>
</svg>
