<svg width="40" height="40" viewBox="0 0 40 40" fill="none" xmlns="http://www.w3.org/2000/svg">
<g id="R_Img_5">
<g id="Group 14">
<path id="Vector" d="M35.7075 20.2577C35.2011 19.4624 34.1884 19.3168 33.3077 19.13C32.361 18.9308 31.4114 18.7426 30.4632 18.5503C28.6902 18.1918 26.9171 17.8319 25.1455 17.4734C25.7781 16.7029 26.4885 15.9872 27.3325 15.3801C27.899 14.9722 28.5243 14.6563 29.1143 14.2826C29.744 13.8843 30.2959 13.3747 30.3678 12.6302C30.497 11.2869 28.9984 10.5781 27.7816 10.4806C26.4313 10.3735 25.0296 10.9971 23.9801 11.7415C23.5985 12.0121 23.2419 12.3088 22.9043 12.6234C22.9189 12.0973 22.9145 11.5698 22.8896 11.0438C22.803 9.18945 22.4683 7.36398 21.9429 5.5756C21.6919 4.72124 21.1738 3.8243 20.0539 4.02759C19.2672 4.17044 18.4849 4.69239 17.9198 5.20336C16.5944 6.39974 16.1893 8.01368 16.1922 9.68806C16.1952 10.9957 16.2436 12.3061 16.3302 13.6137C15.8179 12.9668 15.2778 12.3404 14.7142 11.7402C14.0493 11.0342 13.3389 10.3652 12.5889 9.73751C12.2146 9.42433 11.8345 9.11391 11.4455 8.81722C10.9538 8.44223 10.468 8.12906 9.79869 8.24581C8.83584 8.41476 7.99481 9.17022 7.44734 9.88997C6.8896 10.6235 6.58871 11.4943 6.4933 12.383C6.27607 14.387 7.25507 16.3787 8.53642 17.9281C9.45963 19.0448 10.5971 19.9555 11.8785 20.6615C11.3633 20.7755 10.8496 20.8909 10.3359 21.0063C9.27763 21.2439 8.19736 21.4389 7.15673 21.7384C5.51137 22.2122 3.67228 23.2781 4.05242 25.1448C4.23589 26.0472 4.94482 26.892 5.53486 27.6035C6.10875 28.2944 6.8074 28.9056 7.71154 29.1858C8.81529 29.5279 9.95573 29.1666 10.9729 28.7545C11.8697 28.3919 12.7078 27.9153 13.4886 27.3686C14.4867 26.6695 15.382 25.8769 16.2377 25.0445C15.9882 26.083 15.7622 27.1269 15.5626 28.1749C15.3688 29.1955 15.1956 30.2229 15.0811 31.2531C14.9711 32.242 15.0151 33.2392 15.4583 34.1568C16.2157 35.7268 18.3542 36.6072 19.9409 35.507C21.3763 34.5112 21.7844 32.8176 21.9884 31.2489C22.1337 30.1309 22.1953 29.0114 22.1821 27.8933C22.4346 28.4908 22.6958 29.0869 23.0643 29.6281C24.1445 31.2146 26.0203 32.3025 27.9988 32.5909C29.1349 32.7557 30.3091 32.7077 31.4055 32.367C31.6668 32.286 31.9486 32.0882 31.997 31.8135C32.1908 30.7187 32.019 29.6927 31.5391 28.6831C31.1002 27.7601 30.4339 26.9414 29.7308 26.1805C29.1173 25.5157 28.4568 24.8893 27.7992 24.2616C28.0502 24.2932 28.3027 24.3234 28.5551 24.3454C30.2474 24.491 32.0998 24.3839 33.7128 23.855C34.4937 23.5995 35.2716 23.1792 35.6708 22.4718C36.0583 21.7864 36.1449 20.9431 35.7075 20.2563V20.2577Z" fill="#FF7638"/>
<path id="Vector_2" d="M22.3792 20.1188C22.4012 20.0858 22.4217 20.0501 22.4394 20.0117C22.5905 19.6916 22.6786 19.2576 22.4027 18.9705C22.0915 18.6463 21.5734 18.7425 21.1697 18.8098C21.0377 18.8318 20.91 18.862 20.7896 18.9032C20.7896 18.8427 20.7881 18.7823 20.7823 18.7219C20.7529 18.3826 20.7485 18.0571 20.637 17.7288C20.5753 17.5461 20.3229 17.5186 20.2128 17.6766C19.9911 17.9953 19.746 18.2988 19.5816 18.6477C19.5038 18.3661 19.4246 18.0859 19.3615 17.8016C19.2778 17.4239 18.7259 17.487 18.6085 17.8016C18.4118 18.3304 18.3884 18.9059 18.4588 19.465C18.0126 19.2315 17.5048 19.1078 16.9764 19.1463C16.241 19.1999 15.8638 19.9334 16.335 20.4883C16.5507 20.7424 16.878 20.8715 17.1936 20.9869C17.2009 20.9896 17.2068 20.991 17.2141 20.9938C17.1246 21.0377 17.0366 21.0872 16.95 21.1421C16.4964 21.4319 16.2073 22.0789 16.7856 22.4181C17.1628 22.6393 17.5958 22.6407 18.0155 22.5225C18.0126 22.5349 18.0097 22.5473 18.0067 22.5596C17.9113 23.0527 17.9201 23.6818 18.4544 23.9648C19.0635 24.2862 19.6242 23.7739 19.9471 23.3357C19.9633 23.3137 19.9794 23.2904 19.9955 23.267C20.1218 23.5664 20.2671 23.859 20.4285 24.142C20.565 24.381 20.9569 24.4895 21.202 24.3315C21.9344 23.8604 22.0108 23.0527 21.8669 22.2657C21.9286 22.2794 21.9932 22.2904 22.0621 22.2959C22.4981 22.333 22.9736 22.1956 23.2026 21.8248C23.5974 21.1833 23.0426 20.557 22.3777 20.1188H22.3792ZM18.0831 21.5816C17.9759 21.5995 17.8658 21.6064 17.7572 21.6064C17.9833 21.4718 18.2797 21.3921 18.4691 21.3893C18.5234 21.3893 18.5733 21.377 18.6173 21.3578C18.472 21.4745 18.2988 21.5432 18.0816 21.5816H18.0831ZM19.5728 21.4855C19.5684 21.4951 19.5655 21.5061 19.5611 21.5171C19.5538 21.5404 19.5464 21.5638 19.5405 21.5885C19.5317 21.5858 19.5244 21.5858 19.5156 21.583C19.5259 21.5665 19.5347 21.55 19.5464 21.5322C19.5567 21.5171 19.5655 21.5006 19.5728 21.4855ZM19.1765 22.4978C19.1765 22.4978 19.1795 22.4868 19.1795 22.4827C19.1883 22.4841 19.1971 22.4868 19.2059 22.4882C19.1897 22.5184 19.1736 22.5486 19.156 22.5789C19.1633 22.5528 19.1707 22.5253 19.1765 22.4992V22.4978ZM20.3713 18.7164C20.3463 18.8125 20.3126 18.9046 20.273 18.9938C20.2818 18.9224 20.292 18.851 20.3038 18.7782C20.3096 18.7397 20.3038 18.6972 20.2906 18.6559C20.3229 18.5735 20.3551 18.4897 20.3874 18.4073C20.4006 18.509 20.3977 18.6134 20.3713 18.7164Z" fill="#FFEE00"/>
</g>
</g>
</svg>
