<svg width="40" height="40" viewBox="0 0 40 40" fill="none" xmlns="http://www.w3.org/2000/svg">
<g id="R_Img_4">
<g id="Group 11">
<path id="Vector" d="M9.40503 24.077C9.40503 24.077 11.1164 14.94 15.5042 11.1319C19.4382 7.71826 26.6064 8.74501 30.2547 11.8093C35.0081 15.8018 36.7191 24.3323 36.7191 24.3323L32.9954 24.412C32.9954 24.412 32.1157 18.2293 27.4221 14.8444C23.8153 12.2432 19.2234 12.2358 16.5347 14.7848C13.8461 17.3339 12.5093 24.3233 12.5093 24.3233L9.40503 24.077Z" fill="#FF7638"/>
<path id="Vector_2" d="M13.2004 24.4101C13.2004 24.4101 15.4878 16.8705 18.3609 15.15C21.5652 13.2311 25.3463 14.3925 27.5238 16.283C30.8154 19.1416 32.1846 24.0558 32.1846 24.0558L30.5063 24.0377C30.5063 24.0377 28.9593 19.2282 25.1045 17.3262C22.0948 15.8417 20.1281 15.8159 18.1432 18.2893C16.3101 20.574 15.3324 24.6133 15.3324 24.6133L13.2004 24.4092V24.4101Z" fill="#8A401F"/>
<path id="Vector_3" d="M15.8621 24.6277C15.8621 24.6277 17.3287 18.984 20.1912 17.403C22.1723 16.3089 24.5527 17.3599 26.4994 19.1601C28.4465 20.9603 29.6234 23.9458 29.6234 23.9458L27.8091 24.0188C27.8091 24.0188 25.3308 19.5013 23.1889 19.1334C21.0471 18.7656 20.0223 19.2636 18.9848 21.095C17.9473 22.9264 17.546 24.7911 17.546 24.7911L15.8621 24.6277Z" fill="#183346"/>
<path id="Vector_4" d="M1.64158 24.0309C1.92891 23.9042 2.2411 23.8872 2.55105 23.8904C2.69793 23.892 2.8449 23.8992 2.99115 23.9018C3.02439 23.9021 3.05763 23.9025 3.0915 23.902L3.09451 23.9015C3.1107 23.9013 3.12676 23.9004 3.14282 23.8995C3.21785 23.8957 3.29252 23.8896 3.36623 23.8773C3.39711 23.8725 3.42775 23.8661 3.45828 23.8589C3.46882 23.8573 3.47837 23.8542 3.48868 23.851C3.49597 23.8483 3.51142 23.8435 3.51507 23.8421C3.54411 23.8304 3.57252 23.8196 3.60044 23.8058C3.61478 23.7988 3.62825 23.7911 3.64183 23.7842C3.64825 23.7808 3.65189 23.7795 3.65403 23.7783L3.6568 23.7763C3.68753 23.7556 3.71701 23.732 3.74487 23.7078C3.75168 23.7019 3.78624 23.6664 3.78585 23.6688C3.82638 23.622 3.86066 23.5698 3.89257 23.5171C3.89624 23.511 3.89877 23.5074 3.89991 23.5049C3.90701 23.4911 3.91336 23.4774 3.92034 23.4628C3.93367 23.4345 3.94612 23.4055 3.95783 23.3767C3.98568 23.3081 4.0094 23.2376 4.0315 23.1667C4.07238 23.0333 4.10525 22.8979 4.14137 22.7636C4.43126 21.6806 5.29234 21.0261 6.44439 20.8429C7.56481 20.6646 8.38438 21.0024 8.99669 21.8738C9.15948 22.1057 9.30992 22.3474 9.45671 22.5904C9.47225 22.6158 9.48704 22.6413 9.50257 22.6666C9.50879 22.6768 9.53079 22.7138 9.53601 22.7225C9.54111 22.7305 9.56672 22.7709 9.57469 22.7824C9.5987 22.8175 9.62398 22.8509 9.65215 22.883C9.65402 22.8851 9.65601 22.888 9.65601 22.888C9.66575 22.896 9.67537 22.9032 9.68511 22.9112C9.68686 22.9125 9.6886 22.9139 9.6886 22.9139C9.69349 22.9155 9.69849 22.9179 9.70262 22.9196C9.7129 22.9212 9.72957 22.9241 9.72957 22.9241C9.71275 22.9252 9.69453 22.932 9.75066 22.9208C9.78947 22.9124 9.7769 22.9159 9.82369 22.8943C9.95976 22.8318 10.0778 22.7379 10.2126 22.6525C10.3551 22.562 10.5006 22.4757 10.6496 22.3968C10.9539 22.2357 11.2714 22.1091 11.602 22.0177C12.1977 21.854 12.8582 21.8492 13.4352 22.1044C13.9592 22.3362 14.4274 22.7545 14.6624 23.2958C14.719 23.4259 14.7592 23.5594 14.7845 23.6968C15.7849 23.3872 16.8629 23.1306 17.8806 23.49C18.7775 23.8025 19.5487 24.6927 19.5589 25.6916C19.5635 26.1752 19.3484 26.6305 19.0167 26.9626C18.6971 27.2825 18.2595 27.4549 17.8289 27.5492C17.3717 27.65 16.9031 27.6637 16.4338 27.6386C16.4069 27.6936 16.353 27.7338 16.2758 27.7284C13.5392 28.7191 12.027 27.5023 12.027 27.5023C12.027 27.5023 10.8989 28.5036 8.0237 28.5821C7.32932 28.662 5.72726 28.0032 5.72726 28.0032C5.72726 28.0032 4.34543 28.2716 3.63916 28.2557C2.54885 28.2316 1.31489 27.7376 0.825154 26.658C0.412877 25.7482 0.697092 24.4461 1.64158 24.0309Z" fill="#A7D9FF"/>
<path id="Vector_5" d="M39.3237 23.4407C39.164 23.3958 39.0002 23.4132 38.8393 23.4415C38.7631 23.455 38.6872 23.4716 38.6114 23.4856C38.5941 23.4886 38.5769 23.4917 38.5592 23.4943H38.5576C38.5492 23.4956 38.5408 23.4964 38.5323 23.4973C38.493 23.5017 38.4537 23.5047 38.4144 23.5043C38.3979 23.5043 38.3815 23.5034 38.365 23.5021C38.3594 23.5021 38.3542 23.5012 38.3486 23.5004C38.3445 23.4995 38.3361 23.4982 38.3341 23.4978C38.3181 23.4938 38.3024 23.4903 38.2868 23.4851C38.2787 23.4825 38.2711 23.4795 38.2635 23.4768C38.2599 23.4755 38.2567 23.4747 38.2567 23.4747L38.2551 23.4738C38.2374 23.4651 38.2202 23.4546 38.2037 23.4437C38.1997 23.4411 38.1792 23.4258 38.1792 23.4258C38.1543 23.4036 38.1323 23.3779 38.1114 23.3518C38.109 23.3487 38.1066 23.3457 38.1066 23.3457C38.1018 23.3387 38.0974 23.3317 38.0925 23.3243C38.0833 23.3099 38.0745 23.2951 38.0661 23.2803C38.046 23.245 38.0279 23.2084 38.0107 23.1713C37.9786 23.1016 37.9505 23.0301 37.9208 22.9595C37.682 22.3899 37.1828 21.8316 36.5689 21.8298C35.9718 21.8281 35.5713 22.3568 35.3237 22.8876C35.2579 23.0288 35.1993 23.1744 35.1427 23.3204C35.1367 23.3356 35.1311 23.3509 35.1251 23.3661C35.1227 23.3722 35.1142 23.3945 35.1122 23.3997C35.1102 23.4045 35.1002 23.4289 35.097 23.4359C35.0873 23.4572 35.0769 23.4777 35.0649 23.4978L35.0633 23.5008C35.0588 23.506 35.0544 23.5108 35.05 23.5161L35.0484 23.5178C35.046 23.5191 35.0436 23.5209 35.0416 23.5222C35.0364 23.5239 35.0279 23.527 35.0279 23.527C35.0368 23.5261 35.0468 23.5283 35.0167 23.527C34.9958 23.5256 35.0027 23.5265 34.9766 23.5187C34.9007 23.496 34.8317 23.4546 34.7547 23.4193C34.6732 23.3818 34.5906 23.347 34.5067 23.3165C34.3353 23.2541 34.16 23.2119 33.9806 23.1901C33.6576 23.1513 33.3137 23.2053 33.0344 23.3949C32.7808 23.5671 32.5713 23.8368 32.493 24.1541C32.4742 24.2304 32.4642 24.3071 32.4622 24.3847C31.9168 24.3006 31.3353 24.2522 30.8354 24.5368C30.3943 24.7852 30.0657 25.34 30.1415 25.8892C30.1785 26.155 30.3273 26.3864 30.5268 26.5403C30.719 26.6885 30.9606 26.7456 31.1921 26.7604C31.4381 26.7765 31.6829 26.7438 31.9248 26.6898C31.9433 26.7177 31.9746 26.7351 32.0143 26.7255C33.5849 27.258 34.2053 26.2369 34.2053 26.2369C34.2053 26.2369 35.309 26.7211 36.0522 26.6898C37.0392 26.5403 37.2859 25.931 37.2859 25.931C37.2859 25.931 38.2623 26.0003 38.6283 25.931C39.1933 25.8242 39.7948 25.4472 39.9617 24.8127C40.1022 24.2779 39.8486 23.5875 39.3237 23.4407Z" fill="#CBE8FF"/>
</g>
</g>
</svg>
