<svg width="59" height="13" viewBox="0 0 59 13" fill="none" xmlns="http://www.w3.org/2000/svg">
<g clip-path="url(#clip0_88_1255)">
<path d="M11.5192 10.4722C11.478 9.80194 11.4006 9.13164 11.2724 8.47102C11.0328 7.25142 10.5295 6.00278 9.71882 5.04937C8.87914 4.06207 7.47321 3.90962 6.3141 4.37665C5.23243 4.81464 4.34435 5.68336 3.85554 6.74326C3.24332 8.07175 3.12717 9.49946 3.04974 10.9417C3.0207 11.5079 3.95476 11.6483 4.05155 11.0772C4.35887 9.27441 4.69523 7.02638 6.42058 6.00036C7.05457 5.62287 9.36794 7.92172 9.52281 8.83884C9.60993 9.34943 9.64623 9.91809 9.65833 10.4747C9.67526 11.128 9.59541 11.7838 9.79626 12.4129C10.0576 13.226 11.1078 13.1655 11.3909 12.4129C11.6232 11.7959 11.5579 11.1232 11.5168 10.4747L11.5192 10.4722Z" fill="#151941"/>
<path d="M14.1255 8.90658C14.0021 7.89266 13.8182 6.88601 13.4722 5.92291C12.8841 4.28952 11.8557 2.80131 10.3772 1.85757C8.94221 0.942874 7.13459 0.732348 5.54234 1.35183C3.86055 2.00519 2.49575 3.30948 1.64639 4.89206C0.615537 6.81099 0.359034 9.06145 0.172706 11.2006C0.124309 11.7523 1.06321 11.8878 1.15032 11.3337C1.63671 8.24838 2.44252 4.56296 5.46732 2.9828C6.68692 2.34638 8.09527 2.27863 9.31003 2.9344C10.5442 3.59986 11.4782 4.79284 11.984 6.08988C12.3348 6.99248 12.5526 7.95074 12.6736 8.91142C12.8091 9.96889 12.8043 11.0336 12.9955 12.0814C13.0511 12.3911 13.4092 12.5823 13.6972 12.5388C14.0287 12.4879 14.2223 12.2363 14.2514 11.9096C14.3433 10.9126 14.2465 9.90113 14.1255 8.909V8.90658Z" fill="#151941"/>
<path d="M8.09044 9.29377C7.8775 8.86545 7.45644 8.55813 6.9628 8.60895C6.48851 8.65735 6.11101 9.0179 5.90775 9.4317C5.6706 9.91324 5.7432 10.4771 5.50847 10.9562C5.31972 11.3434 5.85209 11.6628 6.08923 11.295C6.2804 10.9973 6.37235 10.6682 6.47157 10.3319C6.549 10.0633 6.64338 9.67368 6.91924 9.53333C7.15638 9.41234 7.27254 9.66642 7.31367 9.86969C7.39353 10.269 7.32819 10.6586 7.45402 11.0603C7.59438 11.5031 8.31065 11.445 8.29129 10.9465C8.26951 10.3875 8.35179 9.81645 8.09286 9.29619L8.09044 9.29377Z" fill="#151941"/>
</g>
<g clip-path="url(#clip1_88_1255)">
<path d="M33.6366 10.4722C33.5955 9.80194 33.518 9.13164 33.3898 8.47102C33.1502 7.25142 32.6469 6.00278 31.8363 5.04937C30.9966 4.06207 29.5906 3.90962 28.4315 4.37665C27.3499 4.81464 26.4618 5.68336 25.973 6.74326C25.3608 8.07175 25.2446 9.49946 25.1672 10.9417C25.1381 11.5079 26.0722 11.6483 26.169 11.0772C26.4763 9.27441 26.8127 7.02638 28.538 6.00036C29.172 5.62287 31.4854 7.92172 31.6402 8.83884C31.7274 9.34943 31.7637 9.91809 31.7758 10.4747C31.7927 11.128 31.7128 11.7838 31.9137 12.4129C32.175 13.226 33.2252 13.1655 33.5084 12.4129C33.7407 11.7959 33.6753 11.1232 33.6342 10.4747L33.6366 10.4722Z" fill="#151941"/>
<path d="M36.243 8.90658C36.1195 7.89266 35.9356 6.88601 35.5896 5.92291C35.0016 4.28952 33.9731 2.80131 32.4946 1.85757C31.0596 0.942874 29.252 0.732348 27.6598 1.35183C25.978 2.00519 24.6132 3.30948 23.7638 4.89206C22.733 6.81099 22.4765 9.06145 22.2901 11.2006C22.2417 11.7523 23.1806 11.8878 23.2678 11.3337C23.7541 8.24838 24.5599 4.56296 27.5848 2.9828C28.8044 2.34638 30.2127 2.27863 31.4275 2.9344C32.6616 3.59986 33.5956 4.79284 34.1014 6.08988C34.4523 6.99248 34.6701 7.95074 34.791 8.91142C34.9266 9.96889 34.9217 11.0336 35.1129 12.0814C35.1685 12.3911 35.5267 12.5823 35.8146 12.5388C36.1462 12.4879 36.3397 12.2363 36.3688 11.9096C36.4607 10.9126 36.3639 9.90113 36.243 8.909V8.90658Z" fill="#151941"/>
<path d="M30.2079 9.29377C29.9949 8.86545 29.5739 8.55813 29.0802 8.60895C28.6059 8.65735 28.2284 9.0179 28.0252 9.4317C27.788 9.91324 27.8606 10.4771 27.6259 10.9562C27.4372 11.3434 27.9695 11.6628 28.2067 11.295C28.3978 10.9973 28.4898 10.6682 28.589 10.3319C28.6664 10.0633 28.7608 9.67368 29.0367 9.53333C29.2738 9.41234 29.39 9.66642 29.4311 9.86969C29.511 10.269 29.4456 10.6586 29.5715 11.0603C29.7118 11.5031 30.4281 11.445 30.4087 10.9465C30.3869 10.3875 30.4692 9.81645 30.2103 9.29619L30.2079 9.29377Z" fill="#151941"/>
</g>
<g clip-path="url(#clip2_88_1255)">
<path d="M55.7538 10.4722C55.7127 9.80194 55.6352 9.13164 55.507 8.47102C55.2674 7.25142 54.7641 6.00278 53.9534 5.04937C53.1138 4.06207 51.7078 3.90962 50.5487 4.37665C49.4671 4.81464 48.579 5.68336 48.0902 6.74326C47.4779 8.07175 47.3618 9.49946 47.2844 10.9417C47.2553 11.5079 48.1894 11.6483 48.2862 11.0772C48.5935 9.27441 48.9298 7.02638 50.6552 6.00036C51.2892 5.62287 53.6026 7.92172 53.7574 8.83884C53.8445 9.34943 53.8808 9.91809 53.8929 10.4747C53.9099 11.128 53.83 11.7838 54.0309 12.4129C54.2922 13.226 55.3424 13.1655 55.6256 12.4129C55.8579 11.7959 55.7925 11.1232 55.7514 10.4747L55.7538 10.4722Z" fill="#151941"/>
<path d="M58.3601 8.90658C58.2367 7.89266 58.0528 6.88601 57.7068 5.92291C57.1188 4.28952 56.0903 2.80131 54.6118 1.85757C53.1768 0.942874 51.3692 0.732348 49.777 1.35183C48.0952 2.00519 46.7304 3.30948 45.881 4.89206C44.8502 6.81099 44.5937 9.06145 44.4073 11.2006C44.3589 11.7523 45.2978 11.8878 45.3849 11.3337C45.8713 8.24838 46.6771 4.56296 49.7019 2.9828C50.9215 2.34638 52.3299 2.27863 53.5447 2.9344C54.7788 3.59986 55.7128 4.79284 56.2186 6.08988C56.5695 6.99248 56.7872 7.95074 56.9082 8.91142C57.0437 9.96889 57.0389 11.0336 57.2301 12.0814C57.2857 12.3911 57.6439 12.5823 57.9318 12.5388C58.2633 12.4879 58.4569 12.2363 58.486 11.9096C58.5779 10.9126 58.4811 9.90113 58.3601 8.909V8.90658Z" fill="#151941"/>
<path d="M52.3251 9.29377C52.1121 8.86545 51.6911 8.55813 51.1974 8.60895C50.7231 8.65735 50.3456 9.0179 50.1424 9.4317C49.9052 9.91324 49.9778 10.4771 49.7431 10.9562C49.5543 11.3434 50.0867 11.6628 50.3239 11.295C50.515 10.9973 50.607 10.6682 50.7062 10.3319C50.7836 10.0633 50.878 9.67368 51.1539 9.53333C51.391 9.41234 51.5072 9.66642 51.5483 9.86969C51.6281 10.269 51.5628 10.6586 51.6886 11.0603C51.829 11.5031 52.5453 11.445 52.5259 10.9465C52.5041 10.3875 52.5864 9.81645 52.3275 9.29619L52.3251 9.29377Z" fill="#151941"/>
</g>
<defs>
<clipPath id="clip0_88_1255">
<rect width="14.1174" height="12" fill="white" transform="translate(0.172607 0.998535)"/>
</clipPath>
<clipPath id="clip1_88_1255">
<rect width="14.1174" height="12" fill="white" transform="translate(22.29 0.998535)"/>
</clipPath>
<clipPath id="clip2_88_1255">
<rect width="14.1174" height="12" fill="white" transform="translate(44.4072 0.998535)"/>
</clipPath>
</defs>
</svg>
