<svg width="40" height="40" viewBox="0 0 40 40" fill="none" xmlns="http://www.w3.org/2000/svg">
<g id="R_Img_6">
<g id="Group 28">
<path id="Vector" d="M33.3012 12.5455C33.0901 9.25152 32.1373 6.00511 30.5379 3.11693C29.9641 2.08087 29.3027 1.10279 28.5728 0.17078C28.2934 -0.184483 27.782 0.0726736 27.6557 0.413071C27.128 1.84898 26.5988 3.2849 26.0711 4.72081C25.8065 5.43877 25.5434 6.15673 25.2788 6.87468C25.0246 7.5644 24.8017 8.27492 24.5103 8.94977C24.4851 9.00774 24.3974 9.18166 24.3379 9.27382C24.2829 9.36003 24.2086 9.44476 24.1521 9.48787C23.9514 9.64246 23.6378 9.69746 23.4237 9.7257C22.6805 9.82232 21.9299 9.8788 21.1822 9.93678C19.66 10.0542 18.1335 10.1196 16.6069 10.136C15.0193 10.1523 13.4333 10.1122 11.8487 10.0185C11.0327 7.94642 9.97282 5.97835 8.67218 4.16934C8.49975 3.92853 8.19503 3.81259 7.92152 3.97313C7.85463 4.01177 7.79814 4.06975 7.75206 4.13664C7.42058 3.7561 6.81708 3.92853 6.771 4.46514C6.771 4.46514 6.5168 11.6834 6.13776 13.8238C5.75871 15.9643 6.29972 26.7248 6.13776 32.6275C5.87468 42.2151 23.4416 39.703 23.4416 39.703C23.4416 39.703 29.2893 39.0281 30.6137 32.9441C31.9381 26.86 34.2317 21.5534 33.2997 12.55L33.3012 12.5455Z" fill="#AB5A36"/>
<g id="Mask group">
<mask id="mask0_88_1273" style="mask-type:alpha" maskUnits="userSpaceOnUse" x="6" y="0" width="28" height="40">
<path id="Vector_2" d="M33.3012 12.5455C33.0901 9.25152 32.1373 6.00511 30.5379 3.11693C29.9641 2.08087 29.3027 1.10279 28.5728 0.17078C28.2934 -0.184483 27.782 0.0726736 27.6557 0.413071C27.128 1.84898 26.5988 3.2849 26.0711 4.72081C25.8065 5.43877 25.5434 6.15673 25.2788 6.87468C25.0246 7.5644 24.8017 8.27492 24.5103 8.94977C24.4851 9.00774 24.3974 9.18166 24.3379 9.27382C24.2829 9.36003 24.2086 9.44476 24.1521 9.48787C23.9514 9.64246 23.6378 9.69746 23.4237 9.7257C22.6805 9.82232 21.9299 9.8788 21.1822 9.93678C19.66 10.0542 18.1335 10.1196 16.6069 10.136C15.0193 10.1523 13.4333 10.1122 11.8487 10.0185C11.0327 7.94642 9.97282 5.97835 8.67218 4.16934C8.49975 3.92853 8.19503 3.81259 7.92152 3.97313C7.85463 4.01177 7.79814 4.06975 7.75206 4.13664C7.42058 3.7561 6.81708 3.92853 6.771 4.46514C6.771 4.46514 6.5168 11.6834 6.13776 13.8238C5.75871 15.9643 6.29972 26.7248 6.13776 32.6275C5.87468 42.2151 23.4416 39.703 23.4416 39.703C23.4416 39.703 29.2893 39.0281 30.6137 32.9441C31.9381 26.86 34.2317 21.5534 33.2997 12.55L33.3012 12.5455Z" fill="#AB5A36"/>
</mask>
<g mask="url(#mask0_88_1273)">
<path id="Vector 24" d="M16.5 30C10.1 26.8 6.5 32.6666 5.5 36.4999C8.5 43.4999 30 44.4999 30.5 35.9999C31 27.4999 21.5 29.5 19.5 30C17.9 30.4 17 30.1666 16.5 30Z" fill="#8A401F"/>
<ellipse id="Ellipse 22" cx="14.75" cy="31.5" rx="0.75" ry="0.5" fill="#151941"/>
<ellipse id="Ellipse 23" cx="19.75" cy="31.5" rx="0.75" ry="0.5" fill="#151941"/>
<path id="Union" fill-rule="evenodd" clip-rule="evenodd" d="M12 22C12.5523 22 13 21.5523 13 21C13 20.4477 12.5523 20 12 20C11.4477 20 11 20.4477 11 21C11 21.5523 11.4477 22 12 22ZM23 22C23.5523 22 24 21.5523 24 21C24 20.4477 23.5523 20 23 20C22.4477 20 22 20.4477 22 21C22 21.5523 22.4477 22 23 22Z" fill="#151941"/>
</g>
</g>
<path id="Vector 22" d="M13 30.9127C13 29.9127 13.4 28.2127 15 29.4127" stroke="#151941" stroke-width="0.5" stroke-linecap="round"/>
<path id="Vector 23" d="M21 30.9127C21 29.9127 20.6 28.2127 19 29.4127" stroke="#151941" stroke-width="0.5" stroke-linecap="round"/>
<path id="Vector_3" d="M29.5848 6.65024C29.4243 6.30835 29.2444 5.9739 29.0482 5.65134C28.9085 5.42094 28.7256 4.99879 28.3942 5.04933C28.079 5.09838 27.9735 5.5458 27.8724 5.79404C27.7223 6.15822 27.59 6.53132 27.477 6.90888C27.2228 7.75318 27.0653 8.62425 26.9954 9.50274C26.9746 9.76287 27.3804 9.76138 27.4012 9.50274C27.4562 8.81897 27.5692 8.14412 27.7401 7.47968C27.9096 6.82415 28.1177 6.1493 28.4209 5.54283C28.4313 5.52053 28.4417 5.49378 28.4566 5.47445C28.4566 5.47445 28.4566 5.47445 28.4581 5.47297C28.5012 5.51607 28.5398 5.60526 28.5666 5.64688C28.6558 5.78661 28.742 5.92782 28.8252 6.07052C28.9902 6.3574 29.1433 6.65172 29.2801 6.95199C29.5536 7.54805 29.7661 8.17236 29.9207 8.81005C30.0961 9.52801 30.1913 10.2608 30.2091 11.0011C30.2151 11.2627 30.6223 11.2627 30.6149 11.0011C30.5763 9.49679 30.224 8.01331 29.5848 6.65172V6.65024Z" fill="#151941"/>
<path id="Vector_4" d="M10.1823 11.2241C10.1823 11.2092 10.1808 11.1943 10.1778 11.181C10.1184 9.78666 9.53124 8.44588 8.53977 7.45887C8.45207 7.37117 8.28113 7.38158 8.22018 7.50049C7.59141 8.74317 7.36547 10.136 7.55871 11.5139C7.59439 11.7711 7.98681 11.6626 7.95114 11.4054C7.78763 10.2356 7.96749 9.03005 8.45207 7.95683C9.283 8.88141 9.75866 10.0884 9.7765 11.337C9.77947 11.5986 10.1838 11.5986 10.1823 11.337C10.1823 11.2999 10.1823 11.2627 10.1823 11.2255V11.2241Z" fill="#151941"/>
<path id="Vector_5" d="M29.6369 10.2251C29.521 9.23962 29.3798 8.23478 28.8446 7.3771C28.8298 7.35183 28.8105 7.33102 28.7896 7.31318C28.7896 7.31021 28.7896 7.30872 28.7896 7.30575C28.7807 7.19426 28.7703 7.08129 28.7569 6.96981C28.7376 6.79589 28.6217 6.64428 28.4314 6.64428C28.4284 6.64428 28.4269 6.64428 28.424 6.64428C28.262 6.60712 28.0821 6.67103 28.0509 6.86724C28.042 6.92819 28.0316 6.99062 28.0226 7.05305C27.9097 7.08129 27.8086 7.16305 27.7863 7.28048C27.6376 8.04897 27.492 8.81896 27.4355 9.60083C27.4295 9.68407 27.4637 9.7584 27.5172 9.81637C27.5172 9.82529 27.5172 9.83421 27.5158 9.84312C27.492 10.2118 28.0643 10.2816 28.1549 9.92934C28.1549 9.92785 28.1549 9.92488 28.1564 9.92339C28.2828 10.1478 28.6142 10.1404 28.7257 9.89961C28.7911 9.9442 28.8729 9.95609 28.9532 9.94272C28.965 10.0364 28.9769 10.1315 28.9873 10.2251C29.0082 10.3991 29.1226 10.5507 29.3129 10.5507C29.4734 10.5507 29.6592 10.4005 29.6384 10.2251H29.6369Z" fill="#FFF9F2"/>
<path id="Vector_6" d="M9.44356 10.7841C9.26519 10.1746 9.08682 9.56371 8.90844 8.95426C8.8475 8.74765 8.66466 8.69116 8.51007 8.73873C8.3644 8.69859 8.19643 8.74765 8.134 8.88737C8.08346 8.92751 8.0463 8.98102 8.03589 9.04791C7.92441 9.81195 7.95563 10.573 8.14886 11.3237C8.189 11.4783 8.34954 11.5793 8.50561 11.557C8.5948 11.5437 8.66169 11.502 8.70926 11.4426C8.72858 11.4337 8.7479 11.4233 8.76574 11.4099C8.93817 11.6091 9.38262 11.5095 9.34249 11.1958C9.33951 11.1706 9.33505 11.1453 9.33208 11.1185C9.4287 11.0502 9.48816 10.9327 9.44505 10.7841H9.44356Z" fill="#FFF9F2"/>
<path id="Vector_7" d="M18.0337 7.86464C17.8791 7.84681 17.7558 7.91667 17.68 8.03707C17.6309 7.91964 17.5105 7.83046 17.3901 7.81559C17.2102 7.79478 17.0497 7.89883 16.9947 8.07275C16.8758 8.45923 16.7465 8.84273 16.6097 9.22475C16.6053 9.14299 16.6008 9.05975 16.5963 8.978C16.5859 8.78327 16.4388 8.61828 16.2366 8.61828C16.0493 8.61828 15.8665 8.78327 15.8769 8.978C15.9111 9.61123 15.9453 10.2445 15.9795 10.8777C15.9884 11.0367 16.085 11.1809 16.244 11.2255C16.3853 11.2642 16.5874 11.2032 16.6498 11.0605C16.7152 10.9089 16.7792 10.7573 16.8431 10.6057C16.8788 10.6651 16.9338 10.7142 16.9947 10.7454C16.9352 10.9148 16.9679 11.1021 17.1374 11.2017C17.289 11.2909 17.5521 11.2523 17.6294 11.0724C18.0248 10.1612 18.2656 9.2084 18.3429 8.21842C18.3563 8.04153 18.1958 7.88397 18.0308 7.86464H18.0337Z" fill="#151941"/>
<path id="Vector_8" d="M20.0286 7.86464C19.874 7.84681 19.7506 7.91667 19.6748 8.03707C19.6258 7.91964 19.5054 7.83046 19.385 7.81559C19.2051 7.79478 19.0446 7.89883 18.9896 8.07275C18.8707 8.45923 18.7413 8.84273 18.6046 9.22475C18.6001 9.14299 18.5957 9.05975 18.5912 8.978C18.5808 8.78327 18.4336 8.61828 18.2315 8.61828C18.0442 8.61828 17.8614 8.78327 17.8718 8.978C17.906 9.61123 17.9401 10.2445 17.9743 10.8777C17.9832 11.0367 18.0799 11.1809 18.2389 11.2255C18.3801 11.2642 18.5823 11.2032 18.6447 11.0605C18.7101 10.9089 18.774 10.7573 18.838 10.6057C18.8736 10.6651 18.9286 10.7142 18.9896 10.7454C18.9301 10.9148 18.9628 11.1021 19.1323 11.2017C19.2839 11.2909 19.547 11.2523 19.6243 11.0724C20.0197 10.1612 20.2605 9.2084 20.3378 8.21842C20.3512 8.04153 20.1906 7.88397 20.0256 7.86464H20.0286Z" fill="#151941"/>
<path id="Vector_9" d="M15.5782 7.85724C15.2958 7.85724 15.0847 8.02223 15.0743 8.21696C15.0624 8.44439 15.0253 8.67181 14.9658 8.89478L14.8409 8.18574C14.8097 8.00737 14.673 7.85575 14.4039 7.83197C14.1676 7.81264 13.906 7.91224 13.851 8.08912C13.7633 8.37601 13.6934 8.66438 13.6429 8.95573C13.5448 8.83681 13.4422 8.72087 13.3322 8.60938C13.1776 8.45033 12.8907 8.37601 12.6425 8.48006C12.421 8.57222 12.3051 8.81154 12.4611 8.97208C13.0498 9.57558 13.4362 10.2475 13.6146 10.9728C13.7127 11.3682 14.6566 11.282 14.6046 10.8777C14.6001 10.8391 14.5957 10.8004 14.5912 10.7633C14.5927 10.7633 14.5942 10.7633 14.5957 10.7633C14.7562 10.7945 14.942 10.7633 15.0684 10.683V10.7083C15.0684 11.172 16.0762 11.172 16.0762 10.7083L16.0806 8.21547C16.0806 8.02075 15.8488 7.85575 15.5767 7.85575L15.5782 7.85724Z" fill="#151941"/>
<path id="Vector_10" d="M20.1623 7.85724C20.4522 7.85724 20.6707 8.02223 20.6811 8.21696C20.6945 8.44439 20.7316 8.67181 20.7926 8.89478L20.9219 8.18574C20.9546 8.00737 21.0943 7.85575 21.3723 7.83197C21.6146 7.81264 21.8851 7.91224 21.9416 8.08912C22.0323 8.37601 22.1036 8.66438 22.1556 8.95573C22.2567 8.83681 22.3623 8.72087 22.4752 8.60938C22.6358 8.45033 22.9301 8.37601 23.1843 8.48006C23.4117 8.57222 23.5306 8.81154 23.3701 8.97208C22.7636 9.57558 22.3667 10.2475 22.1839 10.9728C22.0843 11.3682 21.1121 11.282 21.1657 10.8777C21.1701 10.8391 21.1746 10.8004 21.179 10.7633C21.1776 10.7633 21.1761 10.7633 21.1746 10.7633C21.0096 10.7945 20.8178 10.7633 20.6885 10.683V10.7083C20.6885 11.172 19.6525 11.172 19.651 10.7083L19.645 8.21547C19.645 8.02075 19.8843 7.85575 20.1638 7.85575L20.1623 7.85724Z" fill="#151941"/>
</g>
</g>
</svg>
