<svg width="53" height="12" viewBox="0 0 53 12" fill="none" xmlns="http://www.w3.org/2000/svg">
<path d="M10.6008 3.75861C10.0028 3.6836 9.41104 3.71277 8.81511 3.80654C8.54839 3.85029 8.28376 3.91281 8.02747 3.99407C8.00872 4.00032 7.89828 4.02741 7.80451 4.05658C7.76909 3.9649 7.73575 3.87322 7.7045 3.78153C7.6274 3.55858 7.55864 3.33354 7.48988 3.1085C7.17107 2.06248 6.81684 0.94354 5.93336 0.228833C5.54579 -0.0837216 4.90193 -0.119144 4.6373 0.395528C3.96426 1.70201 3.61837 3.14809 3.66213 4.61918C3.17871 4.63168 2.69321 4.65252 2.20979 4.68377C1.34714 4.74003 0.315714 5.01508 0.0573357 5.96941C-0.251051 7.10503 0.73662 7.99476 1.7743 8.15104C2.44733 8.25314 3.13704 8.28231 3.82466 8.30523C3.56628 9.32624 3.44751 10.3952 3.83924 11.3912C3.94759 11.6683 4.11637 11.885 4.41643 11.9684C4.67897 12.0413 5.03945 11.9767 5.22073 11.7558C5.85209 10.9849 6.45636 10.191 7.03146 9.37834C7.05022 9.40126 7.06689 9.42626 7.08564 9.44918C7.35444 9.79924 7.60865 10.1806 7.91287 10.4994C8.55464 11.1703 9.49647 11.4829 10.2633 10.8286C10.4758 10.6473 10.5592 10.2868 10.4758 10.0243C10.2841 9.42626 10.0924 8.82616 9.90071 8.22814C9.82153 7.97809 9.74027 7.73013 9.66109 7.48009C9.69651 7.45717 9.7236 7.4405 9.73193 7.43633C10.2279 7.14878 10.6946 6.80914 11.1322 6.44033C11.5927 6.05276 12.2324 5.55476 12.2324 4.89423C12.2324 3.99615 11.2885 3.83988 10.6029 3.75444L10.6008 3.75861ZM9.37562 7.64054C9.37562 7.64054 9.41313 7.63012 9.4548 7.60511C9.43188 7.64262 9.40479 7.65929 9.37562 7.64054Z" fill="#EC9B12"/>
<path d="M6.951 6.12641C6.96016 6.112 6.96872 6.0964 6.97605 6.07959C7.03897 5.93972 7.07562 5.75002 6.96077 5.62455C6.83126 5.48288 6.61562 5.5249 6.44762 5.55432C6.39264 5.56392 6.33949 5.57713 6.2894 5.59514C6.2894 5.56873 6.28878 5.54231 6.28634 5.5159C6.27412 5.36762 6.27229 5.22535 6.22586 5.08188C6.2002 5.00204 6.09513 4.99003 6.04931 5.05907C5.95707 5.19834 5.85504 5.331 5.78662 5.48348C5.75425 5.36042 5.72126 5.23796 5.69499 5.11369C5.66017 4.94861 5.43047 4.97622 5.3816 5.11369C5.29974 5.34481 5.28996 5.59634 5.31928 5.84066C5.13357 5.73861 4.9222 5.68458 4.70228 5.70139C4.39621 5.72481 4.23921 6.04537 4.43531 6.28789C4.52511 6.39895 4.66134 6.45538 4.79269 6.5058C4.79574 6.50701 4.79819 6.50761 4.80124 6.50881C4.76398 6.52802 4.72732 6.54963 4.69128 6.57364C4.50251 6.7003 4.38216 6.98305 4.62286 7.13132C4.77986 7.22797 4.96007 7.22857 5.13479 7.17695C5.13357 7.18235 5.13235 7.18775 5.13113 7.19316C5.09142 7.40867 5.09508 7.68361 5.31745 7.80727C5.57098 7.94774 5.80434 7.72383 5.93874 7.53233C5.94546 7.52272 5.95218 7.51252 5.9589 7.50231C6.01144 7.63318 6.07191 7.76105 6.13911 7.88471C6.19593 7.98916 6.35904 8.03659 6.46106 7.96755C6.7659 7.76165 6.79766 7.40867 6.7378 7.06469C6.76345 7.07069 6.79033 7.0755 6.81905 7.0779C7.00048 7.09411 7.19842 7.03408 7.29372 6.87199C7.45805 6.59165 7.22713 6.31791 6.95039 6.12641H6.951ZM5.16289 6.76574C5.1183 6.77354 5.07248 6.77654 5.02727 6.77654C5.12135 6.71771 5.24475 6.6829 5.32356 6.68169C5.34616 6.68169 5.36693 6.67629 5.38526 6.66789C5.32478 6.71891 5.2527 6.74893 5.16228 6.76574H5.16289ZM5.78296 6.72372C5.78113 6.72792 5.7799 6.73272 5.77807 6.73752C5.77502 6.74773 5.77196 6.75793 5.76952 6.76874C5.76585 6.76754 5.7628 6.76754 5.75913 6.76634C5.76341 6.75913 5.76707 6.75193 5.77196 6.74413C5.77624 6.73752 5.7799 6.73032 5.78296 6.72372ZM5.61802 7.16614C5.61802 7.16614 5.61924 7.16134 5.61924 7.15954C5.6229 7.16014 5.62657 7.16134 5.63023 7.16194C5.62351 7.17515 5.61679 7.18835 5.60946 7.20156C5.61252 7.19015 5.61557 7.17815 5.61802 7.16674V7.16614ZM6.11529 5.5135C6.1049 5.55552 6.09085 5.59574 6.07436 5.63476C6.07802 5.60354 6.0823 5.57233 6.08719 5.54051C6.08963 5.5237 6.08719 5.50509 6.08169 5.48708C6.09513 5.45107 6.10857 5.41445 6.12201 5.37843C6.12751 5.42285 6.12628 5.46847 6.11529 5.5135Z" fill="white"/>
<path d="M30.8333 3.75861C30.2352 3.6836 29.6435 3.71277 29.0475 3.80654C28.7808 3.85029 28.5162 3.91281 28.2599 3.99407C28.2411 4.00032 28.1307 4.02741 28.0369 4.05658C28.0015 3.9649 27.9682 3.87322 27.9369 3.78153C27.8598 3.55858 27.7911 3.33354 27.7223 3.1085C27.4035 2.06248 27.0493 0.94354 26.1658 0.228833C25.7782 -0.0837216 25.1343 -0.119144 24.8697 0.395528C24.1967 1.70201 23.8508 3.14809 23.8945 4.61918C23.4111 4.63168 22.9256 4.65252 22.4422 4.68377C21.5796 4.74003 20.5481 5.01508 20.2898 5.96941C19.9814 7.10503 20.969 7.99476 22.0067 8.15104C22.6798 8.25314 23.3695 8.28231 24.0571 8.30523C23.7987 9.32624 23.6799 10.3952 24.0717 11.3912C24.18 11.6683 24.3488 11.885 24.6488 11.9684C24.9114 12.0413 25.2719 11.9767 25.4532 11.7558C26.0845 10.9849 26.6888 10.191 27.2639 9.37834C27.2826 9.40126 27.2993 9.42626 27.3181 9.44918C27.5869 9.79924 27.8411 10.1806 28.1453 10.4994C28.7871 11.1703 29.7289 11.4829 30.4957 10.8286C30.7082 10.6473 30.7916 10.2868 30.7082 10.0243C30.5165 9.42626 30.3248 8.82616 30.1331 8.22814C30.054 7.97809 29.9727 7.73013 29.8935 7.48009C29.9289 7.45717 29.956 7.4405 29.9644 7.43633C30.4603 7.14878 30.927 6.80914 31.3646 6.44033C31.8251 6.05276 32.4648 5.55476 32.4648 4.89423C32.4648 3.99615 31.5209 3.83988 30.8353 3.75444L30.8333 3.75861ZM29.608 7.64054C29.608 7.64054 29.6455 7.63012 29.6872 7.60511C29.6643 7.64262 29.6372 7.65929 29.608 7.64054Z" fill="#EC9B12"/>
<path d="M27.1834 6.12641C27.1926 6.112 27.2011 6.0964 27.2085 6.07959C27.2714 5.93972 27.308 5.75002 27.1932 5.62455C27.0637 5.48288 26.848 5.5249 26.68 5.55432C26.6251 5.56392 26.5719 5.57713 26.5218 5.59514C26.5218 5.56873 26.5212 5.54231 26.5188 5.5159C26.5065 5.36762 26.5047 5.22535 26.4583 5.08188C26.4326 5.00204 26.3276 4.99003 26.2817 5.05907C26.1895 5.19834 26.0875 5.331 26.019 5.48348C25.9867 5.36042 25.9537 5.23796 25.9274 5.11369C25.8926 4.94861 25.6629 4.97622 25.614 5.11369C25.5322 5.34481 25.5224 5.59634 25.5517 5.84066C25.366 5.73861 25.1546 5.68458 24.9347 5.70139C24.6286 5.72481 24.4716 6.04537 24.6677 6.28789C24.7575 6.39895 24.8938 6.45538 25.0251 6.5058C25.0282 6.50701 25.0306 6.50761 25.0337 6.50881C24.9964 6.52802 24.9597 6.54963 24.9237 6.57364C24.7349 6.7003 24.6146 6.98305 24.8553 7.13132C25.0123 7.22797 25.1925 7.22857 25.3672 7.17695C25.366 7.18235 25.3648 7.18775 25.3635 7.19316C25.3238 7.40867 25.3275 7.68361 25.5499 7.80727C25.8034 7.94774 26.0368 7.72383 26.1712 7.53233C26.1779 7.52272 26.1846 7.51252 26.1913 7.50231C26.2439 7.63318 26.3043 7.76105 26.3715 7.88471C26.4283 7.98916 26.5915 8.03659 26.6935 7.96755C26.9983 7.76165 27.0301 7.40867 26.9702 7.06469C26.9959 7.07069 27.0228 7.0755 27.0515 7.0779C27.2329 7.09411 27.4308 7.03408 27.5261 6.87199C27.6905 6.59165 27.4595 6.31791 27.1828 6.12641H27.1834ZM25.3953 6.76574C25.3507 6.77354 25.3049 6.77654 25.2597 6.77654C25.3538 6.71771 25.4772 6.6829 25.556 6.68169C25.5786 6.68169 25.5994 6.67629 25.6177 6.66789C25.5572 6.71891 25.4851 6.74893 25.3947 6.76574H25.3953ZM26.0154 6.72372C26.0135 6.72792 26.0123 6.73272 26.0105 6.73752C26.0074 6.74773 26.0044 6.75793 26.0019 6.76874C25.9983 6.76754 25.9952 6.76754 25.9916 6.76634C25.9958 6.75913 25.9995 6.75193 26.0044 6.74413C26.0087 6.73752 26.0123 6.73032 26.0154 6.72372ZM25.8504 7.16614C25.8504 7.16614 25.8517 7.16134 25.8517 7.15954C25.8553 7.16014 25.859 7.16134 25.8627 7.16194C25.8559 7.17515 25.8492 7.18835 25.8419 7.20156C25.8449 7.19015 25.848 7.17815 25.8504 7.16674V7.16614ZM26.3477 5.5135C26.3373 5.55552 26.3233 5.59574 26.3068 5.63476C26.3104 5.60354 26.3147 5.57233 26.3196 5.54051C26.3221 5.5237 26.3196 5.50509 26.3141 5.48708C26.3276 5.45107 26.341 5.41445 26.3544 5.37843C26.3599 5.42285 26.3587 5.46847 26.3477 5.5135Z" fill="white"/>
<path d="M51.0656 3.75861C50.4675 3.6836 49.8758 3.71277 49.2798 3.80654C49.0131 3.85029 48.7485 3.91281 48.4922 3.99407C48.4734 4.00032 48.363 4.02741 48.2692 4.05658C48.2338 3.9649 48.2005 3.87322 48.1692 3.78153C48.0921 3.55858 48.0234 3.33354 47.9546 3.1085C47.6358 2.06248 47.2816 0.94354 46.3981 0.228833C46.0105 -0.0837216 45.3666 -0.119144 45.102 0.395528C44.429 1.70201 44.0831 3.14809 44.1268 4.61918C43.6434 4.63168 43.1579 4.65252 42.6745 4.68377C41.8119 4.74003 40.7804 5.01508 40.5221 5.96941C40.2137 7.10503 41.2013 7.99476 42.239 8.15104C42.9121 8.25314 43.6018 8.28231 44.2894 8.30523C44.031 9.32624 43.9122 10.3952 44.304 11.3912C44.4123 11.6683 44.5811 11.885 44.8811 11.9684C45.1437 12.0413 45.5042 11.9767 45.6855 11.7558C46.3168 10.9849 46.9211 10.191 47.4962 9.37834C47.5149 9.40126 47.5316 9.42626 47.5504 9.44918C47.8192 9.79924 48.0734 10.1806 48.3776 10.4994C49.0194 11.1703 49.9612 11.4829 50.728 10.8286C50.9405 10.6473 51.0239 10.2868 50.9405 10.0243C50.7488 9.42626 50.5571 8.82616 50.3654 8.22814C50.2863 7.97809 50.205 7.73013 50.1258 7.48009C50.1612 7.45717 50.1883 7.4405 50.1967 7.43633C50.6926 7.14878 51.1593 6.80914 51.5969 6.44033C52.0574 6.05276 52.6971 5.55476 52.6971 4.89423C52.6971 3.99615 51.7532 3.83988 51.0676 3.75444L51.0656 3.75861ZM49.8403 7.64054C49.8403 7.64054 49.8778 7.63012 49.9195 7.60511C49.8966 7.64262 49.8695 7.65929 49.8403 7.64054Z" fill="#EC9B12"/>
<path d="M47.4157 6.12641C47.4249 6.112 47.4334 6.0964 47.4408 6.07959C47.5037 5.93972 47.5403 5.75002 47.4255 5.62455C47.296 5.48288 47.0803 5.5249 46.9123 5.55432C46.8574 5.56392 46.8042 5.57713 46.7541 5.59514C46.7541 5.56873 46.7535 5.54231 46.7511 5.5159C46.7388 5.36762 46.737 5.22535 46.6906 5.08188C46.6649 5.00204 46.5599 4.99003 46.514 5.05907C46.4218 5.19834 46.3198 5.331 46.2513 5.48348C46.219 5.36042 46.186 5.23796 46.1597 5.11369C46.1249 4.94861 45.8952 4.97622 45.8463 5.11369C45.7645 5.34481 45.7547 5.59634 45.784 5.84066C45.5983 5.73861 45.3869 5.68458 45.167 5.70139C44.8609 5.72481 44.7039 6.04537 44.9 6.28789C44.9898 6.39895 45.1261 6.45538 45.2574 6.5058C45.2605 6.50701 45.2629 6.50761 45.266 6.50881C45.2287 6.52802 45.192 6.54963 45.156 6.57364C44.9672 6.7003 44.8469 6.98305 45.0876 7.13132C45.2446 7.22797 45.4248 7.22857 45.5995 7.17695C45.5983 7.18235 45.5971 7.18775 45.5958 7.19316C45.5561 7.40867 45.5598 7.68361 45.7822 7.80727C46.0357 7.94774 46.2691 7.72383 46.4035 7.53233C46.4102 7.52272 46.4169 7.51252 46.4236 7.50231C46.4762 7.63318 46.5366 7.76105 46.6038 7.88471C46.6606 7.98916 46.8238 8.03659 46.9258 7.96755C47.2306 7.76165 47.2624 7.40867 47.2025 7.06469C47.2282 7.07069 47.2551 7.0755 47.2838 7.0779C47.4652 7.09411 47.6631 7.03408 47.7584 6.87199C47.9228 6.59165 47.6918 6.31791 47.4151 6.12641H47.4157ZM45.6276 6.76574C45.583 6.77354 45.5372 6.77654 45.492 6.77654C45.5861 6.71771 45.7095 6.6829 45.7883 6.68169C45.8109 6.68169 45.8317 6.67629 45.85 6.66789C45.7895 6.71891 45.7174 6.74893 45.627 6.76574H45.6276ZM46.2477 6.72372C46.2458 6.72792 46.2446 6.73272 46.2428 6.73752C46.2397 6.74773 46.2367 6.75793 46.2342 6.76874C46.2306 6.76754 46.2275 6.76754 46.2239 6.76634C46.2281 6.75913 46.2318 6.75193 46.2367 6.74413C46.241 6.73752 46.2446 6.73032 46.2477 6.72372ZM46.0827 7.16614C46.0827 7.16614 46.084 7.16134 46.084 7.15954C46.0876 7.16014 46.0913 7.16134 46.095 7.16194C46.0882 7.17515 46.0815 7.18835 46.0742 7.20156C46.0772 7.19015 46.0803 7.17815 46.0827 7.16674V7.16614ZM46.58 5.5135C46.5696 5.55552 46.5556 5.59574 46.5391 5.63476C46.5427 5.60354 46.547 5.57233 46.5519 5.54051C46.5544 5.5237 46.5519 5.50509 46.5464 5.48708C46.5599 5.45107 46.5733 5.41445 46.5867 5.37843C46.5922 5.42285 46.591 5.46847 46.58 5.5135Z" fill="white"/>
</svg>
