<svg
  xmlns="http://www.w3.org/2000/svg"
  width="20"
  height="21"
  viewBox="0 0 20 21"
  fill="none"
>
  <g clip-path="url(#clip0_97_7119)">
    <path
      d="M19.7837 10.669C19.483 10.1471 18.8817 10.0516 18.3588 9.92896C17.7967 9.79826 17.2328 9.67476 16.6699 9.54857C15.6171 9.3133 14.5644 9.07713 13.5125 8.84187C13.8881 8.33618 14.3099 7.86655 14.811 7.46813C15.1474 7.20041 15.5186 6.99309 15.869 6.74791C16.2428 6.4865 16.5705 6.15208 16.6132 5.66352C16.6899 4.78195 15.8001 4.31682 15.0777 4.25282C14.2759 4.18251 13.4437 4.59175 12.8205 5.08031C12.594 5.25789 12.3822 5.45259 12.1817 5.65901C12.1905 5.31377 12.1878 4.96763 12.173 4.6224C12.1216 3.4055 11.9229 2.20754 11.6109 1.03391C11.4619 0.473236 11.1543 -0.115381 10.4893 0.0180271C10.0222 0.111773 9.55772 0.454307 9.2222 0.789629C8.43526 1.57475 8.19473 2.6339 8.19647 3.73271C8.19822 4.59085 8.22697 5.45079 8.27839 6.30892C7.97425 5.88436 7.65354 5.47332 7.31889 5.07941C6.92411 4.61609 6.50232 4.1771 6.05699 3.76516C5.83476 3.55964 5.60905 3.35592 5.37811 3.16122C5.08616 2.91514 4.7977 2.70962 4.40031 2.78624C3.82862 2.89711 3.32926 3.39288 3.0042 3.86522C2.67303 4.34657 2.49438 4.91806 2.43773 5.50127C2.30876 6.81641 2.89003 8.12345 3.65083 9.14023C4.19899 9.87307 4.87439 10.4707 5.63519 10.934C5.3293 11.0088 5.02429 11.0846 4.71927 11.1603C4.09093 11.3162 3.44952 11.4442 2.83164 11.6407C1.85471 11.9517 0.76275 12.6512 0.988464 13.8762C1.0974 14.4684 1.51832 15.0228 1.86866 15.4897C2.20941 15.9431 2.62423 16.3442 3.16106 16.5281C3.81642 16.7526 4.49355 16.5155 5.09749 16.2451C5.62996 16.0071 6.12758 15.6943 6.59121 15.3356C7.18381 14.8768 7.71542 14.3567 8.22349 13.8104C8.07534 14.4919 7.94113 15.1769 7.82261 15.8647C7.70757 16.5344 7.60474 17.2087 7.53676 17.8847C7.4714 18.5338 7.49755 19.1882 7.76073 19.7903C8.21042 20.8206 9.48016 21.3984 10.4222 20.6764C11.2745 20.0229 11.5168 18.9114 11.6379 17.882C11.7242 17.1483 11.7608 16.4137 11.753 15.6799C11.9029 16.072 12.058 16.4632 12.2767 16.8184C12.9181 17.8595 14.0319 18.5734 15.2067 18.7627C15.8812 18.8709 16.5784 18.8393 17.2294 18.6158C17.3845 18.5626 17.5518 18.4328 17.5806 18.2525C17.6956 17.5341 17.5936 16.8608 17.3087 16.1982C17.0481 15.5925 16.6524 15.0552 16.235 14.5559C15.8707 14.1196 15.4786 13.7085 15.0881 13.2966C15.2372 13.3173 15.3871 13.3372 15.5369 13.3516C16.5418 13.4471 17.6416 13.3768 18.5993 13.0298C19.063 12.8621 19.5248 12.5863 19.7619 12.1221C19.9919 11.6723 20.0434 11.1188 19.7837 10.6681V10.669Z"
      fill="#151941"
    />
    <path
      d="M11.8698 10.578C11.8828 10.5563 11.895 10.5329 11.9055 10.5077C11.9952 10.2976 12.0475 10.0128 11.8837 9.82441C11.6989 9.61168 11.3913 9.67478 11.1517 9.71895C11.0732 9.73337 10.9974 9.7532 10.9259 9.78024C10.9259 9.74058 10.9251 9.70092 10.9216 9.66126C10.9042 9.43861 10.9015 9.22498 10.8353 9.00954C10.7987 8.88965 10.6488 8.87163 10.5834 8.97529C10.4519 9.18441 10.3063 9.38362 10.2087 9.61258C10.1625 9.42779 10.1155 9.24391 10.078 9.05732C10.0283 8.80943 9.70064 8.85089 9.63092 9.05732C9.51414 9.40436 9.5002 9.78204 9.54203 10.1489C9.2771 9.99568 8.97557 9.91455 8.66184 9.93979C8.22523 9.97494 8.00125 10.4563 8.281 10.8205C8.40911 10.9872 8.60345 11.072 8.79082 11.1477C8.79517 11.1495 8.79866 11.1504 8.80302 11.1522C8.74986 11.181 8.69757 11.2135 8.64615 11.2495C8.37686 11.4397 8.20518 11.8643 8.54854 12.0869C8.77251 12.2321 9.0296 12.233 9.27884 12.1554C9.2771 12.1636 9.27536 12.1717 9.27362 12.1798C9.21697 12.5034 9.2222 12.9162 9.53942 13.1019C9.90108 13.3128 10.234 12.9766 10.4257 12.6891C10.4353 12.6746 10.4449 12.6593 10.4545 12.644C10.5294 12.8405 10.6157 13.0325 10.7116 13.2182C10.7926 13.375 11.0253 13.4462 11.1708 13.3426C11.6057 13.0334 11.651 12.5034 11.5656 11.9869C11.6022 11.9959 11.6406 12.0031 11.6815 12.0067C11.9403 12.031 12.2227 11.9409 12.3587 11.6975C12.5931 11.2766 12.2637 10.8655 11.8689 10.578H11.8698ZM9.31893 11.538C9.25531 11.5497 9.18995 11.5542 9.12546 11.5542C9.25967 11.4659 9.43571 11.4136 9.54813 11.4118C9.58038 11.4118 9.61001 11.4037 9.63615 11.391C9.54987 11.4677 9.44704 11.5127 9.31806 11.538H9.31893ZM10.2035 11.4749C10.2009 11.4812 10.1991 11.4884 10.1965 11.4956C10.1922 11.5109 10.1878 11.5263 10.1843 11.5425C10.1791 11.5407 10.1747 11.5407 10.1695 11.5389C10.1756 11.5281 10.1808 11.5172 10.1878 11.5055C10.1939 11.4956 10.1991 11.4848 10.2035 11.4749ZM9.96818 12.1392C9.96818 12.1392 9.96993 12.132 9.96993 12.1293C9.97516 12.1302 9.98038 12.132 9.98561 12.1329C9.97603 12.1527 9.96644 12.1726 9.95598 12.1924C9.96034 12.1753 9.9647 12.1572 9.96818 12.1401V12.1392ZM10.6776 9.65765C10.6628 9.72075 10.6427 9.78114 10.6192 9.83973C10.6244 9.79286 10.6305 9.74599 10.6375 9.69821C10.641 9.67297 10.6375 9.64503 10.6296 9.61799C10.6488 9.5639 10.668 9.50892 10.6872 9.45483C10.695 9.52154 10.6933 9.59004 10.6776 9.65765Z"
      fill="#EC9B12"
    />
  </g>
  <defs>
    <clipPath id="clip0_97_7119">
      <rect
        width="19"
        height="21"
        fill="white"
        transform="translate(0.957031)"
      />
    </clipPath>
  </defs>
</svg>
