<svg xmlns="http://www.w3.org/2000/svg" width="25" height="23" viewBox="0 0 25 23" fill="none">
  <g clip-path="url(#clip0_97_7096)">
    <path d="M13.7588 4.22494C13.1711 4.08537 12.5691 4.10123 11.9766 4.19163C12.1347 3.73011 12.2401 3.25114 12.2928 2.75949C12.3615 2.1124 12.3072 1.44312 11.9957 0.859472C11.6715 0.250452 11.0327 -0.112739 10.338 0.0299998C9.59702 0.180669 9.11152 0.859472 8.72345 1.44629C8.34974 2.01407 8.02555 2.60882 7.74447 3.22418C7.68858 3.12902 7.64067 3.0291 7.58956 2.93236C7.43465 2.63261 7.28613 2.32968 7.09449 2.05055C6.75592 1.55413 6.27362 1.16715 5.66675 1.05931C5.11897 0.962561 4.53127 1.10054 4.22944 1.60171C3.85254 2.22818 4.12563 3.04655 4.31088 3.68887C4.41788 4.06158 4.54405 4.42794 4.68299 4.78796C4.24541 4.8514 3.84136 4.97511 3.44849 5.19398C3.04764 5.4176 2.67234 5.70784 2.35134 6.03614C1.71892 6.68322 1.25259 7.50952 1.06414 8.3945C0.864517 9.33182 0.915621 10.4325 1.50492 11.2302C2.21559 12.1914 3.40218 12.3182 4.5153 12.1644C5.29465 12.0565 6.03886 11.7806 6.70002 11.3682C6.80223 11.9011 6.97631 12.4166 7.25579 12.886C7.70615 13.6394 8.46154 14.2595 9.3367 14.4435C10.2151 14.6274 11.0934 14.3657 11.745 13.7567C12.3646 13.1778 12.7144 12.3611 12.8182 11.5332C12.9204 10.7037 12.7895 9.83458 12.5627 9.01145C13.0913 9.01462 13.6215 8.96704 14.115 8.78148C14.765 8.53724 15.367 8.08841 15.6577 7.44449C16.2981 6.03138 15.1483 4.55641 13.7573 4.22494H13.7588ZM14.6404 7.13523C14.4967 7.35409 14.2459 7.52221 13.9744 7.64116C13.7269 7.749 13.3117 7.80769 12.9827 7.80927C12.5451 7.81086 12.1091 7.75376 11.6763 7.69667C11.2531 7.64116 10.9577 8.14709 11.0567 8.50393C11.2787 9.29376 11.5805 10.0677 11.6172 10.8845C11.6364 11.3064 11.6252 11.5205 11.5198 11.8916C11.5007 11.9614 11.4783 12.0312 11.4528 12.101C11.4416 12.1327 11.4288 12.166 11.416 12.1977C11.4096 12.212 11.3953 12.2437 11.3937 12.2485C11.3186 12.3991 11.2356 12.5387 11.1445 12.6798C11.1413 12.683 11.1142 12.7227 11.1094 12.729C11.0886 12.7544 11.0679 12.7798 11.0455 12.8035C10.9992 12.8575 10.9497 12.9082 10.897 12.9574C10.7612 13.0874 10.7453 13.0985 10.5808 13.1937C10.3524 13.3238 10.1256 13.3666 9.81421 13.3586C9.29837 13.346 8.68831 12.9225 8.38488 12.4752C7.93452 11.8139 7.79877 11.0304 7.77322 10.2533C7.75725 9.73149 7.13282 9.47773 6.74953 9.83299C6.16662 10.3722 5.46233 10.7322 4.67341 10.9067C4.4626 10.9527 4.3572 10.9701 4.17354 10.9844C3.94836 11.0035 3.71999 11.0066 3.49481 10.9923C3.3351 10.9812 3.16422 10.9543 2.97578 10.8813C2.81448 10.8195 2.72664 10.7402 2.60367 10.6212C2.59888 10.6165 2.56854 10.5816 2.56215 10.5752C2.54458 10.5499 2.52701 10.5245 2.51104 10.4991C2.45994 10.4198 2.41363 10.3357 2.3737 10.2501C2.3737 10.2485 2.3721 10.2469 2.37051 10.2438C2.36891 10.239 2.36731 10.2311 2.36252 10.2216C2.34495 10.1708 2.32739 10.1201 2.31142 10.0693C2.27948 9.96622 2.25392 9.86154 2.23316 9.75528C2.22518 9.71722 2.21879 9.67915 2.214 9.64109C2.214 9.62999 2.214 9.6173 2.2108 9.59985C2.20601 9.51579 2.19962 9.43332 2.19803 9.34927C2.19803 9.25728 2.19803 9.16371 2.20442 9.07172C2.20761 9.02097 2.2124 8.97021 2.21559 8.91788C2.21559 8.90202 2.21719 8.8925 2.21719 8.88457C2.21719 8.8814 2.21879 8.87664 2.22039 8.86713C2.24753 8.69425 2.28586 8.52455 2.33377 8.35644C2.35933 8.26762 2.38807 8.18039 2.42001 8.09316C2.43439 8.05193 2.45036 8.01228 2.46633 7.97104C2.47271 7.95677 2.49348 7.91077 2.49986 7.89491C2.57492 7.73632 2.65797 7.58089 2.7506 7.43181C2.8001 7.35251 2.85121 7.27479 2.90391 7.19867C2.92786 7.16536 2.95182 7.13205 2.97578 7.09875C2.98216 7.08923 2.98695 7.08289 2.99015 7.07972C3.00452 7.06069 3.02049 7.04165 3.03646 7.02421C3.54751 6.41043 4.1959 5.98539 4.94809 5.70942C4.98483 5.69515 5.01996 5.67929 5.0535 5.65867C5.12856 5.81727 5.20521 5.97428 5.28666 6.12971C5.45435 6.45167 5.93186 6.16936 5.77375 5.8474C5.4815 5.25583 5.23715 4.64205 5.04232 4.01242C4.9449 3.69839 4.86026 3.37961 4.78839 3.05924C4.72611 2.78328 4.65105 2.4867 4.69257 2.20122C4.75805 1.75714 5.1605 1.63185 5.55336 1.72859C6.03087 1.84596 6.3375 2.1695 6.57705 2.58027C6.74155 2.86257 6.8757 3.16074 7.02422 3.45098C7.18552 3.765 7.31168 4.08696 7.54165 4.36133C7.77961 4.64523 8.16609 4.43905 8.27948 4.16784C8.535 3.55882 8.84482 2.96884 9.19457 2.4074C9.48363 1.94112 9.81102 1.34796 10.2949 1.05138C10.477 0.938771 10.6463 0.913395 10.7996 0.960975C10.7964 0.962561 10.8874 1.00221 10.9018 1.01173C10.9178 1.02124 10.9241 1.02441 10.9241 1.02441C10.9369 1.03552 10.9497 1.04662 10.9609 1.05772C11.0471 1.14019 11.0583 1.14971 11.1238 1.26231C11.2276 1.43836 11.2899 1.64136 11.3314 1.87292C11.3426 1.93794 11.3521 2.03152 11.3553 2.13461C11.3601 2.27734 11.3537 2.42167 11.3426 2.56441C11.2899 3.28128 11.0711 3.97911 10.7293 4.61033C10.5249 4.98463 10.8619 5.42712 11.2819 5.32403C12.0436 5.1353 12.8629 4.99097 13.6311 5.23045C14.1837 5.40174 14.6739 5.86168 14.7873 6.4247C14.8304 6.6404 14.7809 6.90526 14.634 7.12888L14.6404 7.13523Z" fill="#4378BB"/>
    <path d="M9.14333 5.98546C8.86066 5.35583 8.18512 5.04021 7.51277 5.18295C6.88674 5.31618 6.39965 5.81259 6.23037 6.41844C6.07546 6.97353 6.18565 7.63965 6.62802 8.03932C7.03686 8.40727 7.64213 8.4945 8.15158 8.29783C8.57798 8.13448 9.03313 7.71578 9.07625 7.24949C9.30303 6.87679 9.33657 6.41526 9.14173 5.98388L9.14333 5.98546ZM7.83697 6.00925C8.0318 5.99656 8.1931 6.08538 8.29691 6.21702C8.19789 6.17895 8.09409 6.15358 7.98868 6.1393C7.92161 6.08379 7.84336 6.04414 7.75871 6.02035C7.78427 6.0156 7.81141 6.01242 7.83856 6.01084L7.83697 6.00925Z" fill="#151941"/>
    <path d="M22.8218 20.4862C22.7436 20.1056 22.6318 19.7313 22.488 19.3697C22.2134 18.6782 21.8588 17.9058 21.1801 17.522C20.5173 17.1477 19.7699 17.3222 19.3259 17.9265C18.9059 18.499 18.7909 19.2888 18.7303 19.9756C18.6504 20.878 18.743 21.7947 18.9874 22.667C19.0592 22.9255 19.4393 22.8161 19.3882 22.5575C19.2541 21.8914 19.2173 21.2126 19.2748 20.537C19.3259 19.9375 19.4393 19.2809 19.6837 18.7258C19.8705 18.3008 20.2251 17.8947 20.7233 18.1612C21.204 18.4181 21.4005 19.108 21.5442 19.5902C21.6416 19.9169 21.7183 20.2547 21.7582 20.5925C21.8045 20.9827 21.747 21.4061 21.8444 21.7852C21.9786 22.307 22.7947 22.3197 22.9224 21.7852C23.0199 21.3728 22.9081 20.897 22.8234 20.4878L22.8218 20.4862Z" fill="#4378BB"/>
    <path d="M24.842 19.993C24.7861 19.7265 24.7222 19.4617 24.6504 19.2C24.505 18.6687 24.3182 18.15 24.0818 17.652C23.6363 16.7131 22.8537 15.6759 21.8236 15.3413C21.2248 15.1462 20.5013 15.2318 19.8928 15.3349C19.3147 15.4332 18.7462 15.6299 18.2288 15.9027C17.7401 16.1596 17.2929 16.5149 16.9719 16.9653C16.6142 17.4665 16.5136 18.0533 16.5359 18.6576C16.5615 19.3744 16.6014 20.0897 16.6349 20.805C16.6669 21.4917 16.7068 22.1642 17.0645 22.7732C17.1923 22.9905 17.4877 23.0682 17.7065 22.9413C17.9477 22.8017 17.9748 22.5353 17.8758 22.3037C17.6985 21.8946 17.689 21.4029 17.673 20.9668C17.6522 20.3958 17.6347 19.8248 17.6139 19.2523C17.5979 18.786 17.5181 18.2119 17.7161 17.8075C17.887 17.457 18.1776 17.181 18.5082 16.9701C18.9123 16.71 19.3594 16.5323 19.8242 16.415C20.2793 16.3008 20.8016 16.2135 21.2663 16.3119C21.7055 16.4055 22.0217 16.7417 22.2948 17.0763C22.3155 17.1017 22.373 17.1778 22.4209 17.246C22.4832 17.3364 22.5423 17.4284 22.5982 17.522C22.7228 17.7298 22.833 17.9486 22.9288 18.1707C22.9176 18.1453 22.8952 18.0834 22.9416 18.204C22.9655 18.2658 22.9911 18.3277 23.0134 18.3911C23.0597 18.5164 23.1029 18.6449 23.1428 18.7717C23.2162 19.0096 23.2801 19.2491 23.336 19.4918C23.3919 19.736 23.4398 19.9819 23.4813 20.2277C23.5261 20.4941 23.5436 20.7685 23.641 21.0207C23.7624 21.3315 24.0227 21.5425 24.3741 21.4949C24.7142 21.4489 24.9314 21.1777 24.9522 20.843C24.9698 20.5576 24.8995 20.2721 24.8404 19.9945L24.842 19.993Z" fill="#4378BB"/>
  </g>
  <defs>
    <clipPath id="clip0_97_7096">
      <rect width="24" height="23" fill="white" transform="translate(0.957031)"/>
    </clipPath>
  </defs>
</svg>