<svg width="24" height="24" viewBox="0 0 24 24" fill="none" xmlns="http://www.w3.org/2000/svg">
<path d="M1.84985 15.5659C1.84985 15.5659 3.16271 8.55672 6.52865 5.63541C9.54649 3.01675 15.0454 3.80439 17.8441 6.15505C21.4905 9.21776 22.803 15.7617 22.803 15.7617L19.9465 15.8228C19.9465 15.8228 19.2717 11.08 15.6712 8.48334C12.9043 6.48793 9.38171 6.48226 7.31919 8.43768C5.25667 10.3931 4.23123 15.7548 4.23123 15.7548L1.84985 15.5659Z" fill="#FF7638"/>
<path d="M4.76135 15.8213C4.76135 15.8213 6.51602 10.0376 8.72004 8.71773C11.1781 7.24573 14.0787 8.13668 15.7491 9.58694C18.2742 11.7798 19.3245 15.5496 19.3245 15.5496L18.0371 15.5357C18.0371 15.5357 16.8503 11.8463 13.8932 10.3872C11.5844 9.24839 10.0757 9.22855 8.55307 11.126C7.14682 12.8786 6.39684 15.9772 6.39684 15.9772L4.76135 15.8207V15.8213Z" fill="#8A401F"/>
<path d="M6.8031 15.9883C6.8031 15.9883 7.92823 11.6589 10.1241 10.4461C11.6438 9.60681 13.4699 10.413 14.9632 11.794C16.4569 13.175 17.3597 15.4652 17.3597 15.4652L15.9679 15.5212C15.9679 15.5212 14.0667 12.0557 12.4237 11.7735C10.7807 11.4914 9.99452 11.8734 9.19863 13.2783C8.40274 14.6832 8.09489 16.1136 8.09489 16.1136L6.8031 15.9883Z" fill="#183346"/>
<path d="M2.92641 13.5C2.16914 13.6208 1.67327 14.6769 1.50007 15.5001C0.499952 15.5001 -0.123974 16.9164 0.163357 17.6189C0.450688 18.3213 0.832474 18.8175 1.55247 18.8542C2.01886 18.8782 2.92636 18.6961 2.92636 18.6961C2.92636 18.6961 3.99474 19.2266 4.45168 19.1771C6.34799 19.1652 7.07573 18.4186 7.07573 18.4186C7.07573 18.4186 8.0941 19.3742 9.88365 18.6626C9.93471 18.668 9.96962 18.6382 9.98645 18.5966C10.2966 18.6237 10.6056 18.6211 10.9057 18.5516C11.1883 18.4868 11.4742 18.3623 11.6798 18.123C11.8931 17.8747 12.0275 17.5303 12.0164 17.1604C11.9929 16.3966 11.4691 15.7031 10.8719 15.4493C10.1942 15.1574 9.48697 15.3356 8.83194 15.5555C8.81292 15.45 8.78419 15.3473 8.74465 15.2469C8.58044 14.8291 8.26443 14.5015 7.91477 14.3155C7.52969 14.1108 7.09379 14.1033 6.70343 14.2186C6.48672 14.2829 6.27934 14.3744 6.08118 14.4924C5.98419 14.5502 5.88961 14.6137 5.79708 14.6806C5.70953 14.7436 5.63318 14.8134 5.54442 14.859C5.51391 14.8747 5.52214 14.8722 5.49667 14.878C5.45981 14.8856 5.47172 14.8807 5.4828 14.8802C5.4828 14.8802 5.47175 14.8776 5.46494 14.8762C5.46219 14.8748 5.45885 14.8729 5.4556 14.8716L5.45324 14.8695C5.44668 14.8633 5.44021 14.8576 5.43365 14.8513C5.43365 14.8513 5.43229 14.8491 5.43102 14.8474C5.41189 14.8224 5.39465 14.7965 5.37821 14.7692C5.37276 14.7603 5.35518 14.7289 5.35168 14.7228L5.32868 14.6795C5.318 14.6598 5.30781 14.6401 5.29713 14.6205C5.19618 14.4322 5.09285 14.2449 4.98153 14.0649C4.56282 13.3885 3.66289 13.3825 2.92641 13.5Z" fill="#A7D9FF"/>
<path d="M23.4811 14.9737C23.3586 14.9393 23.233 14.9527 23.1096 14.9744C23.0511 14.9848 22.9929 14.9975 22.9347 15.0082C22.9215 15.0105 22.9083 15.0129 22.8947 15.0149H22.8935C22.887 15.0159 22.8806 15.0165 22.8741 15.0172C22.8439 15.0205 22.8138 15.0229 22.7836 15.0225C22.771 15.0225 22.7584 15.0219 22.7457 15.0209C22.7414 15.0209 22.7374 15.0202 22.7331 15.0195C22.73 15.0189 22.7236 15.0179 22.722 15.0175C22.7097 15.0145 22.6977 15.0119 22.6857 15.0078C22.6795 15.0058 22.6737 15.0035 22.6679 15.0015C22.6651 15.0005 22.6626 14.9998 22.6626 14.9998L22.6614 14.9991C22.6478 14.9925 22.6346 14.9844 22.622 14.9761C22.6189 14.9741 22.6032 14.9624 22.6032 14.9624C22.5841 14.9453 22.5672 14.9256 22.5512 14.9055C22.5493 14.9032 22.5475 14.9009 22.5475 14.9009C22.5438 14.8955 22.5404 14.8902 22.5367 14.8845C22.5296 14.8734 22.5229 14.8621 22.5164 14.8507C22.501 14.8236 22.4872 14.7955 22.4739 14.7671C22.4493 14.7136 22.4277 14.6588 22.405 14.6046C22.2218 14.1677 21.8389 13.7394 21.3679 13.738C20.9098 13.7367 20.6026 14.1422 20.4127 14.5495C20.3622 14.6578 20.3172 14.7695 20.2738 14.8815C20.2692 14.8932 20.2649 14.9049 20.2603 14.9166C20.2584 14.9212 20.252 14.9383 20.2504 14.9423C20.2489 14.946 20.2412 14.9647 20.2387 14.9701C20.2314 14.9864 20.2234 15.0022 20.2141 15.0175L20.2129 15.0199C20.2095 15.0239 20.2061 15.0276 20.2027 15.0316L20.2015 15.0329C20.1997 15.0339 20.1978 15.0353 20.1963 15.0363C20.1923 15.0376 20.1858 15.0399 20.1858 15.0399C20.1926 15.0393 20.2003 15.0409 20.1772 15.0399C20.1612 15.0389 20.1664 15.0396 20.1464 15.0336C20.0882 15.0162 20.0353 14.9844 19.9762 14.9574C19.9137 14.9286 19.8503 14.9019 19.7859 14.8785C19.6545 14.8306 19.52 14.7982 19.3824 14.7815C19.1346 14.7517 18.8707 14.7932 18.6565 14.9386C18.4619 15.0707 18.3013 15.2776 18.2412 15.521C18.2268 15.5795 18.2191 15.6384 18.2175 15.6979C17.7992 15.6334 17.3531 15.5963 16.9696 15.8146C16.6313 16.0052 16.3792 16.4308 16.4373 16.852C16.4657 17.056 16.5799 17.2335 16.7329 17.3515C16.8803 17.4652 17.0656 17.509 17.2432 17.5204C17.4319 17.5327 17.6197 17.5077 17.8053 17.4662C17.8195 17.4876 17.8435 17.501 17.874 17.4936C19.0788 17.9021 19.5547 17.1188 19.5547 17.1188C19.5547 17.1188 20.4014 17.4903 20.9715 17.4662C21.7286 17.3515 21.9179 16.8841 21.9179 16.8841C21.9179 16.8841 22.6669 16.9373 22.9477 16.8841C23.3811 16.8022 23.8425 16.513 23.9706 16.0262C24.0783 15.616 23.8838 15.0864 23.4811 14.9737Z" fill="#CBE8FF"/>
</svg>
