<svg width="24" height="24" viewBox="0 0 24 24" fill="none" xmlns="http://www.w3.org/2000/svg">
<path d="M4.37802 20C4.37802 20 3.32144 15.9558 2.26487 11.5607C1.20721 7.16441 0 5.23067 0 5.23067C0 5.23067 2.4155 8.21963 3.32144 10.1534C4.22739 12.0871 4.98162 13.6699 4.98162 13.6699C4.98162 13.6699 5.28397 10.8564 5.73694 8.39508C6.18991 5.93373 6.79352 4.70306 6.79352 4.70306C6.79352 4.70306 7.39712 7.69202 7.54775 10.3301C7.69838 12.9669 7.85009 14.5497 7.85009 14.5497C7.85009 14.5497 8.4537 12.0884 9.20901 9.4503C9.96325 6.81351 11.3211 4 11.3211 4C11.3211 4 12.3777 5.58283 12.3777 9.62701C12.3777 13.6712 12.68 15.0773 12.68 15.0773C12.68 15.0773 12.68 13.8466 14.7932 10.5055C16.9063 7.16441 19.4724 5.58283 19.4724 5.58283C19.4724 5.58283 19.0195 9.97791 17.6605 12.2638C16.3016 14.5497 15.8486 15.2528 15.8486 15.2528C15.8486 15.2528 18.2641 12.616 19.9243 10.3301C21.5845 8.04418 24 5.935 24 5.935C24 5.935 22.6411 8.92395 21.2832 12.2651C19.9243 15.6062 19.0195 19.2982 19.0195 19.2982C19.0195 19.2982 15.2461 18.243 11.3211 18.0675C7.39604 17.8921 4.37694 20.0013 4.37694 20.0013L4.37802 20Z" fill="#00C400"/>
</svg>
