<svg xmlns="http://www.w3.org/2000/svg" width="43" height="24" viewBox="0 0 43 24" fill="none">
  <path d="M11.8175 16.2741C11.8175 16.2741 13.451 7.55337 17.6389 3.91868C21.3936 0.660552 28.2353 1.64054 31.7174 4.56522C36.2543 8.37584 37.8874 16.5178 37.8874 16.5178L34.3333 16.5939C34.3333 16.5939 33.4937 10.6928 29.0139 7.46207C25.5714 4.97939 21.1886 4.97233 18.6224 7.40525C16.0563 9.83818 14.7804 16.5092 14.7804 16.5092L11.8175 16.2741Z" fill="#FF7638"/>
  <path d="M15.4402 16.592C15.4402 16.592 17.6233 9.3959 20.3656 7.75371C23.4239 5.92226 27.0328 7.03077 29.1111 8.83518C32.2528 11.5635 33.5596 16.2538 33.5596 16.2538L31.9578 16.2366C31.9578 16.2366 30.4812 11.6462 26.802 9.83084C23.9294 8.41395 22.0522 8.38927 20.1578 10.7501C18.4082 12.9307 17.4751 16.786 17.4751 16.786L15.4402 16.5912V16.592Z" fill="#8A401F"/>
  <path d="M17.9805 16.7997C17.9805 16.7997 19.3803 11.4131 22.1124 9.90413C24.0033 8.85988 26.2753 9.86298 28.1333 11.5812C29.9917 13.2994 31.115 16.1488 31.115 16.1488L29.3833 16.2186C29.3833 16.2186 27.0179 11.9068 24.9736 11.5557C22.9293 11.2046 21.9512 11.6799 20.961 13.4279C19.9707 15.1759 19.5877 16.9556 19.5877 16.9556L17.9805 16.7997Z" fill="#183346"/>
  <path d="M4.40755 16.2302C4.6818 16.1092 4.97977 16.093 5.27559 16.096C5.41578 16.0976 5.55607 16.1045 5.69565 16.1069C5.72738 16.1073 5.7591 16.1076 5.79143 16.1071L5.79431 16.1067C5.80975 16.1065 5.82508 16.1056 5.84041 16.1048C5.91203 16.1011 5.9833 16.0953 6.05364 16.0836C6.08312 16.079 6.11237 16.0729 6.1415 16.066C6.15156 16.0645 6.16068 16.0615 6.17051 16.0585C6.17747 16.0559 6.19222 16.0513 6.1957 16.05C6.22342 16.0388 6.25054 16.0285 6.27719 16.0153C6.29088 16.0086 6.30373 16.0013 6.31669 15.9947C6.32282 15.9915 6.3263 15.9902 6.32834 15.9891L6.33098 15.9872C6.36031 15.9674 6.38845 15.9448 6.41504 15.9217C6.42153 15.9162 6.45453 15.8822 6.45415 15.8846C6.49283 15.8399 6.52556 15.79 6.55601 15.7398C6.55951 15.734 6.56193 15.7305 6.56302 15.7281C6.5698 15.7149 6.57585 15.7018 6.58252 15.6879C6.59524 15.6609 6.60713 15.6333 6.61829 15.6058C6.64488 15.5402 6.66752 15.473 6.68861 15.4053C6.72763 15.278 6.759 15.1488 6.79347 15.0206C7.07016 13.9869 7.89202 13.3623 8.99159 13.1874C10.061 13.0172 10.8432 13.3396 11.4276 14.1714C11.583 14.3926 11.7266 14.6233 11.8667 14.8553C11.8815 14.8795 11.8956 14.9038 11.9105 14.928C11.9164 14.9377 11.9374 14.9731 11.9424 14.9814C11.9473 14.989 11.9717 15.0276 11.9793 15.0385C12.0022 15.0721 12.0263 15.1039 12.0532 15.1346C12.055 15.1366 12.0569 15.1393 12.0569 15.1393C12.0662 15.147 12.0754 15.1539 12.0847 15.1615C12.0864 15.1628 12.088 15.164 12.088 15.164C12.0927 15.1656 12.0975 15.1678 12.1014 15.1695C12.1112 15.171 12.1271 15.1738 12.1271 15.1738C12.1111 15.1748 12.0937 15.1813 12.1473 15.1707C12.1843 15.1626 12.1723 15.166 12.217 15.1454C12.3468 15.0857 12.4595 14.9961 12.5882 14.9146C12.7242 14.8281 12.8631 14.7458 13.0052 14.6705C13.2957 14.5168 13.5987 14.3959 13.9143 14.3087C14.4828 14.1524 15.1133 14.1479 15.664 14.3915C16.1641 14.6127 16.6109 15.0119 16.8353 15.5286C16.8893 15.6528 16.9276 15.7802 16.9518 15.9113C17.9066 15.6158 18.9356 15.3709 19.9069 15.7139C20.763 16.0121 21.499 16.8619 21.5088 17.8152C21.5131 18.2768 21.3078 18.7113 20.9913 19.0283C20.6862 19.3337 20.2685 19.4982 19.8576 19.5882C19.4211 19.6844 18.9739 19.6975 18.526 19.6735C18.5003 19.726 18.4489 19.7644 18.3751 19.7592C15.7632 20.7048 14.3199 19.5434 14.3199 19.5434C14.3199 19.5434 13.2432 20.4991 10.499 20.574C9.83622 20.6503 8.30713 20.0216 8.30713 20.0216C8.30713 20.0216 6.98824 20.2777 6.31415 20.2625C5.2735 20.2395 4.09574 19.768 3.62832 18.7376C3.23482 17.8693 3.50609 16.6264 4.40755 16.2302Z" fill="#A7D9FF"/>
  <path d="M40.3734 15.6668C40.221 15.624 40.0647 15.6406 39.9111 15.6677C39.8384 15.6806 39.766 15.6964 39.6936 15.7097C39.6771 15.7126 39.6607 15.7155 39.6438 15.718H39.6423C39.6342 15.7193 39.6262 15.7201 39.6181 15.7209C39.5806 15.7251 39.5431 15.728 39.5055 15.7276C39.4898 15.7276 39.4741 15.7267 39.4584 15.7255C39.4531 15.7255 39.4481 15.7247 39.4427 15.7238C39.4389 15.723 39.4309 15.7218 39.4289 15.7213C39.4136 15.7176 39.3987 15.7143 39.3838 15.7093C39.3761 15.7068 39.3688 15.7039 39.3615 15.7014C39.3581 15.7001 39.355 15.6993 39.355 15.6993L39.3535 15.6985C39.3366 15.6901 39.3202 15.6802 39.3045 15.6698C39.3006 15.6673 39.2811 15.6527 39.2811 15.6527C39.2574 15.6315 39.2363 15.6069 39.2164 15.582C39.2141 15.5791 39.2118 15.5762 39.2118 15.5762C39.2072 15.5695 39.203 15.5629 39.1984 15.5558C39.1896 15.5421 39.1811 15.5279 39.1731 15.5138C39.1539 15.4801 39.1367 15.4451 39.1202 15.4098C39.0896 15.3432 39.0628 15.275 39.0345 15.2076C38.8066 14.6639 38.3301 14.1311 37.7441 14.1294C37.1742 14.1277 36.792 14.6323 36.5557 15.139C36.4928 15.2738 36.4369 15.4127 36.3829 15.552C36.3772 15.5666 36.3718 15.5812 36.3661 15.5957C36.3638 15.6015 36.3557 15.6228 36.3538 15.6277C36.3519 15.6323 36.3423 15.6556 36.3393 15.6623C36.3301 15.6827 36.3201 15.7022 36.3086 15.7213L36.3071 15.7243C36.3029 15.7292 36.2987 15.7338 36.2944 15.7388L36.2929 15.7405C36.2906 15.7417 36.2883 15.7434 36.2864 15.7446C36.2814 15.7463 36.2734 15.7492 36.2734 15.7492C36.2818 15.7484 36.2914 15.7505 36.2627 15.7492C36.2427 15.748 36.2492 15.7488 36.2244 15.7413C36.152 15.7197 36.0861 15.6802 36.0126 15.6465C35.9348 15.6107 35.8559 15.5774 35.7759 15.5483C35.6123 15.4888 35.4449 15.4485 35.2737 15.4277C34.9654 15.3906 34.6372 15.4422 34.3706 15.6232C34.1286 15.7875 33.9286 16.045 33.8539 16.3478C33.8359 16.4206 33.8264 16.4938 33.8245 16.5679C33.304 16.4876 32.749 16.4414 32.2718 16.713C31.8508 16.9501 31.5372 17.4797 31.6095 18.0038C31.6448 18.2576 31.7869 18.4784 31.9772 18.6253C32.1607 18.7667 32.3913 18.8212 32.6122 18.8353C32.847 18.8507 33.0807 18.8195 33.3116 18.768C33.3292 18.7946 33.3591 18.8112 33.397 18.8021C34.896 19.3103 35.4882 18.3358 35.4882 18.3358C35.4882 18.3358 36.5417 18.7979 37.251 18.768C38.193 18.6253 38.4285 18.0437 38.4285 18.0437C38.4285 18.0437 39.3604 18.1099 39.7097 18.0437C40.249 17.9418 40.8231 17.582 40.9824 16.9763C41.1165 16.4659 40.8744 15.807 40.3734 15.6668Z" fill="#CBE8FF"/>
</svg>