<svg xmlns="http://www.w3.org/2000/svg" width="24" height="18" viewBox="0 0 24 18" fill="none">
  <g clip-path="url(#clip0_97_7108)">
    <path d="M23.8563 7.74034C23.6783 6.13413 23.2537 4.55221 22.593 3.07273C22.455 2.76344 22.3057 2.4594 22.1477 2.15995C22.1704 2.15995 22.1937 2.15339 22.2177 2.13631C22.7417 1.76333 22.8043 0.995021 22.469 0.478221C22.295 0.2103 22.0064 0.0270884 21.6824 0.00344824C21.3324 -0.0228186 20.9937 0.120992 20.7384 0.351484C20.4937 0.572782 20.3311 0.88864 20.3344 1.21566C18.2365 0.836107 16.1232 0.531411 13.9933 0.399421C11.842 0.26546 9.67073 0.31077 7.54146 0.660119C6.39949 0.847927 5.27286 1.12307 4.17822 1.49606C3.94089 1.07448 3.40558 0.870254 2.93026 0.983201C2.38627 1.11257 2.12161 1.67336 2.22561 2.18819C2.27561 2.4351 2.40427 2.65443 2.60027 2.8094C1.77762 3.92246 1.27297 5.23514 1.06898 6.59511C0.855651 8.01746 0.952982 9.47855 1.30897 10.8707C1.67363 12.2996 2.31094 13.6924 3.27158 14.8304C3.75357 15.4017 4.31422 15.8982 4.94487 16.3053C5.58151 16.7157 6.27749 17.0257 6.99814 17.2627C8.5201 17.7644 10.1434 17.9384 11.7407 17.9877C13.5426 18.0442 15.3512 17.9004 17.1212 17.5595C18.5505 17.2844 20.0018 16.8956 21.2324 16.1011C21.813 15.7261 22.337 15.2559 22.7317 14.6912C23.181 14.049 23.4557 13.3109 23.629 12.5537C23.9876 10.9889 24.033 9.33146 23.8563 7.73969V7.74034Z" fill="#EEC456"/>
    <path d="M19.0205 9.82383C18.5205 9.66426 17.9845 9.96633 17.7932 10.4286C17.7712 10.4818 17.7565 10.535 17.7465 10.5882C17.6825 10.7583 17.6625 10.9454 17.6979 11.1313C17.7872 11.6014 18.2945 11.9501 18.7698 11.9193C19.3025 11.8845 19.7145 11.4563 19.7771 10.9441C19.8371 10.4556 19.4871 9.97159 19.0211 9.82318L19.0205 9.82383Z" fill="#F19993"/>
    <path d="M5.35696 9.49547C4.85698 9.33589 4.32099 9.63796 4.129 10.1003C4.107 10.1534 4.09233 10.2066 4.08233 10.2598C4.01833 10.4299 3.99833 10.6171 4.03367 10.8029C4.123 11.2731 4.63032 11.6218 5.10564 11.5909C5.63829 11.5561 6.05027 11.1279 6.11294 10.6157C6.17294 10.1272 5.82295 9.64322 5.35696 9.49481V9.49547Z" fill="#F19993"/>
    <path d="M18.2172 7.70411C18.1792 7.42634 17.9465 7.21358 17.6719 7.16039C17.3892 7.10523 17.0865 7.1965 16.9319 7.44866C16.9299 7.45195 16.9285 7.45523 16.9265 7.45851C16.9199 7.46639 16.9139 7.47427 16.9092 7.48347C16.8505 7.5951 16.8285 7.71527 16.8365 7.83282C16.8405 7.90702 16.8572 7.97991 16.8859 8.0482C16.8872 8.05149 16.8885 8.05411 16.8899 8.0574C16.8925 8.06331 16.8952 8.06922 16.8979 8.07513C16.9305 8.14933 16.9745 8.2196 17.0299 8.28198C17.2299 8.5105 17.5579 8.57288 17.8285 8.4317C18.0885 8.29577 18.2572 7.99239 18.2178 7.70411H18.2172Z" fill="#1D2C3F"/>
    <path d="M17.5039 7.81827C17.5032 7.81696 17.5019 7.81564 17.5012 7.81433C17.5012 7.81433 17.5012 7.81433 17.5012 7.81499C17.5019 7.81564 17.5032 7.81696 17.5039 7.81827Z" fill="#1D2C3F"/>
    <path d="M7.3888 7.70411C7.3508 7.42634 7.11814 7.21358 6.84349 7.16039C6.56083 7.10523 6.25817 7.1965 6.10351 7.44866C6.10151 7.45195 6.10017 7.45523 6.09817 7.45851C6.09151 7.46639 6.08551 7.47427 6.08084 7.48347C6.02218 7.5951 6.00018 7.71527 6.00818 7.83282C6.01218 7.90702 6.02884 7.97991 6.05751 8.0482C6.05884 8.05149 6.06017 8.05411 6.06151 8.0574C6.06417 8.06331 6.06684 8.06922 6.06951 8.07513C6.10217 8.14933 6.14617 8.2196 6.2015 8.28198C6.4015 8.5105 6.72949 8.57288 7.00015 8.4317C7.26014 8.29577 7.4288 7.99239 7.38947 7.70411H7.3888Z" fill="#1D2C3F"/>
    <path d="M6.67552 7.81827C6.67485 7.81696 6.67352 7.81564 6.67285 7.81433C6.67285 7.81433 6.67285 7.81433 6.67285 7.81499C6.67352 7.81564 6.67485 7.81696 6.67552 7.81827Z" fill="#1D2C3F"/>
    <path d="M14.7867 2.86501C14.3633 4.52705 13.9394 6.18908 13.516 7.85111C13.4034 8.2924 13.2914 8.73368 13.1787 9.17562C12.7494 9.09747 12.3127 9.09025 11.8814 9.15329C11.6074 7.45383 11.3334 5.75502 11.0601 4.05556L10.8054 2.47692C10.7801 2.32063 10.5388 2.38696 10.5641 2.54259C10.8621 4.39111 11.1601 6.23964 11.4581 8.08817C11.5268 8.51566 11.5961 8.94316 11.6648 9.37131C11.6488 9.61624 11.7114 9.86315 11.8574 10.0654C11.9907 10.2499 12.1801 10.3898 12.3961 10.464C12.1741 10.7313 11.9521 10.9985 11.7294 11.2658C11.6721 11.3348 11.6614 11.4313 11.7294 11.4983C11.7881 11.556 11.9081 11.5672 11.9654 11.4983C12.1774 11.2428 12.3901 10.9874 12.6021 10.7319C12.8074 11.1443 13.1307 11.493 13.54 11.7235C13.7267 11.8286 13.8954 11.5442 13.7087 11.4392C13.3367 11.2297 13.0394 10.9066 12.8674 10.5211C12.8707 10.5179 12.874 10.5139 12.8767 10.5106C12.9134 10.4601 12.948 10.4075 12.982 10.355C13.1987 10.1278 13.332 9.82638 13.3547 9.51446C13.3654 9.47637 13.3754 9.43894 13.384 9.40086C13.3874 9.38641 13.3887 9.37131 13.388 9.35686C13.3927 9.34832 13.3967 9.33847 13.3994 9.32796C13.8227 7.66593 14.2467 6.0039 14.67 4.34186L15.0293 2.93134C15.0687 2.77702 14.8273 2.71135 14.788 2.86567L14.7867 2.86501Z" fill="#1D2C3F"/>
    <path d="M22.1771 0.839905C22.0691 0.640933 21.8751 0.493839 21.6465 0.459692C21.4092 0.424232 21.1658 0.499749 20.9832 0.652097C20.7712 0.829398 20.6619 1.09798 20.6399 1.3659C20.6312 1.47162 20.7985 1.47097 20.8072 1.3659C20.8385 0.978462 21.1232 0.60416 21.5472 0.614667C21.9385 0.624517 22.1751 1.02771 22.0971 1.38231C22.0491 1.60033 21.9098 1.79076 21.7278 1.92144C21.6418 1.98317 21.7252 2.12632 21.8118 2.06328C22.1985 1.78485 22.4151 1.28184 22.1758 0.839905H22.1771Z" fill="#1D2C3F"/>
    <path d="M3.84298 1.70336C3.69098 1.44332 3.37966 1.26339 3.071 1.30607C2.71768 1.35467 2.58968 1.72503 2.63968 2.03432C2.66701 2.2044 2.75034 2.36331 2.87367 2.48546C2.94967 2.56097 3.06767 2.44409 2.99167 2.36922C2.883 2.26153 2.81234 2.11772 2.79767 1.96537C2.78367 1.81959 2.81234 1.64426 2.927 1.54116C3.04367 1.4361 3.22499 1.45251 3.36299 1.50242C3.50499 1.5543 3.62365 1.65805 3.69898 1.7861C3.75298 1.87803 3.89698 1.79529 3.84298 1.70336Z" fill="#1D2C3F"/>
  </g>
  <defs>
    <clipPath id="clip0_97_7108">
      <rect width="23" height="18" fill="white" transform="translate(0.957031)"/>
    </clipPath>
  </defs>
</svg>