<svg xmlns="http://www.w3.org/2000/svg" width="24" height="26" viewBox="0 0 24 26" fill="none">
  <path d="M10.7734 18.7719C10.7734 18.7719 13.571 24.7872 17.4881 23.3884C21.4051 21.9896 21.8241 19.3317 21.8241 16.3944C21.8241 13.4572 19.7259 9.26086 19.7259 9.26086C19.7259 9.26086 18.0478 12.0584 17.7674 13.4572C17.4881 14.856 17.2076 15.9755 17.2076 15.9755C17.2076 15.9755 16.2289 13.598 15.3887 12.6182C14.5497 11.6395 13.1509 9.96026 13.1509 9.96026C13.1509 9.96026 12.8716 12.8975 13.2905 14.4359C13.7106 15.9743 14.5497 17.6536 14.5497 17.6536C14.5497 17.6536 12.5911 15.5554 11.4728 15.2761C10.3533 14.9968 9.51428 15.4158 9.51428 15.4158L10.7734 18.7731V18.7719Z" fill="#FF7638"/>
  <path d="M9.9093 2.54531C9.7896 2.33376 9.50773 2.25054 9.31212 2.42337C8.5538 3.09699 7.997 3.97278 7.73584 4.95427C7.70452 4.68554 7.66858 4.41767 7.62665 4.14974C7.56994 3.79025 7.53001 3.39299 7.34001 3.07404C7.16083 2.77455 6.85155 2.55798 6.48911 2.64987C6.12206 2.74263 5.89505 3.11716 5.78265 3.45346C5.55049 4.14415 5.73493 4.87248 5.94467 5.54473C5.8846 5.42824 5.82475 5.31292 5.76353 5.19665C5.54137 4.77628 5.32056 4.28043 4.98307 3.93901C4.62035 3.57128 4.03151 3.32837 3.58608 3.7224C3.17438 4.08621 3.17397 4.73938 3.26308 5.23965C3.45118 6.29921 4.20591 7.18438 4.88372 7.97773C5.23896 8.39462 5.61862 8.78902 6.04002 9.13857C6.49812 9.51825 6.97927 9.79808 7.5812 9.84989C7.76329 9.86587 7.90305 9.76442 7.97281 9.62716C8.09239 9.55815 8.19379 9.44957 8.25325 9.32738C8.80266 8.22134 9.35373 7.11142 9.77929 5.94982C10.1758 4.8689 10.5203 3.61865 9.90952 2.54647L9.9093 2.54531ZM6.31622 4.29894C6.31077 4.02177 6.3374 3.73739 6.47245 3.48997C6.50279 3.43532 6.59301 3.26079 6.67923 3.28759C6.72602 3.30149 6.77678 3.42569 6.79452 3.46296C6.93074 3.75618 6.94572 4.12231 6.99054 4.43746C7.04401 4.81785 7.08365 5.20084 7.11153 5.58484C7.16116 6.26922 7.16588 6.95605 7.13218 7.64174C7.12267 7.6292 7.11409 7.61529 7.10572 7.60253C6.98671 7.15922 6.86748 6.71476 6.74732 6.27166C6.57421 5.63553 6.32923 4.96632 6.31643 4.3001L6.31622 4.29894ZM4.36922 5.54786C4.28622 5.36643 4.22578 5.18435 4.1936 4.98741C4.18559 4.94474 4.18859 4.71255 4.19505 4.57522C4.31062 4.68845 4.36896 4.81481 4.45131 4.97368C4.83745 5.7143 5.17356 6.48103 5.5664 7.21921C5.10108 6.71194 4.65053 6.16249 4.36922 5.54786ZM8.83876 5.82425C8.60788 6.34994 8.35162 6.86129 8.08253 7.36788C8.20389 6.72305 8.25591 6.06497 8.40668 5.42417C8.58094 4.68584 8.92815 3.99743 9.41694 3.42095C9.56002 4.22152 9.14653 5.12295 8.83897 5.82541L8.83876 5.82425Z" fill="#151941"/>
</svg>