<svg xmlns="http://www.w3.org/2000/svg" width="28" height="16" viewBox="0 0 28 16" fill="none">
  <g clip-path="url(#clip0_97_7094)">
    <path d="M5.0994 16C5.0994 16 3.86873 11.9558 2.63806 7.56075C1.40612 3.16441 0 1.23067 0 1.23067C0 1.23067 2.81351 4.21963 3.86873 6.15336C4.92395 8.08709 5.80246 9.66993 5.80246 9.66993C5.80246 9.66993 6.15462 6.85642 6.68223 4.39508C7.20984 1.93373 7.91291 0.703061 7.91291 0.703061C7.91291 0.703061 8.61597 3.69202 8.79142 6.33007C8.96687 8.96687 9.14358 10.5497 9.14358 10.5497C9.14358 10.5497 9.84664 8.08836 10.7264 5.4503C11.6049 2.81351 13.1865 0 13.1865 0C13.1865 0 14.4172 1.58283 14.4172 5.62701C14.4172 9.67119 14.7693 11.0773 14.7693 11.0773C14.7693 11.0773 14.7693 9.84664 17.2307 6.50552C19.692 3.16441 22.681 1.58283 22.681 1.58283C22.681 1.58283 22.1534 5.97791 20.5705 8.26381C18.9877 10.5497 18.4601 11.2528 18.4601 11.2528C18.4601 11.2528 21.2736 8.61597 23.2073 6.33007C25.1411 4.04418 27.9546 1.935 27.9546 1.935C27.9546 1.935 26.3717 4.92395 24.7902 8.26507C23.2073 11.6062 22.1534 15.2982 22.1534 15.2982C22.1534 15.2982 17.7583 14.243 13.1865 14.0675C8.6147 13.8921 5.09814 16.0013 5.09814 16.0013L5.0994 16Z" fill="#00C400"/>
  </g>
  <defs>
    <clipPath id="clip0_97_7094">
      <rect width="27.9571" height="16" fill="white"/>
    </clipPath>
  </defs>
</svg>