<svg xmlns="http://www.w3.org/2000/svg" width="65" height="64" viewBox="0 0 65 64" fill="none">
  <g filter="url(#filter0_d_84_1093)">
    <mask id="path-1-outside-1_84_1093" maskUnits="userSpaceOnUse" x="2.5" y="13.1357" width="56" height="43" fill="black">
      <rect fill="white" x="2.5" y="13.1357" width="56" height="43"/>
      <path fill-rule="evenodd" clip-rule="evenodd" d="M30.8458 26.7884C32.4404 23.0586 36.397 18.915 44.819 16.5519C46.4896 16.1595 50.6645 15.7292 54.8172 16.8737C55.3636 17.0243 55.6403 17.6153 55.3785 18.118C53.8387 21.0754 49.327 26.9393 40.2473 32.7356C38.5342 33.6828 35.5388 35.2474 33.3912 36.1288C33.1592 37.7507 33.5347 39.0679 33.7412 39.7924C33.7793 39.926 33.8116 40.0395 33.8333 40.131C34.1469 41.4515 33.9885 43.8764 33.8909 45.37C33.8588 45.8611 33.8333 46.2515 33.8333 46.4689C33.8333 47.7189 34.25 50.6356 34.6667 51.8856C33.6667 53.2189 32.0278 52.9967 31.3333 52.7189C31.75 51.4689 31.75 50.8023 31.75 49.8023C31.75 48.5522 31.75 44.6265 32.5833 40.9644C32.9167 39.631 31.6111 38.7422 30.9167 38.4644C14.25 35.7977 7.02778 26.5199 5.5 22.2143C5.5 18.881 13.2778 19.7143 17.1667 20.5476C24.4146 22.0302 28.5367 24.3593 30.8458 26.7884Z"/>
    </mask>
    <path d="M44.819 16.5519L44.133 13.6314L44.0704 13.6461L44.0085 13.6634L44.819 16.5519ZM30.8458 26.7884L28.6715 28.8554L31.8123 32.1593L33.6043 27.9677L30.8458 26.7884ZM54.8172 16.8737L55.6143 13.9815L55.6143 13.9815L54.8172 16.8737ZM55.3785 18.118L52.7176 16.7326L52.7176 16.7326L55.3785 18.118ZM40.2473 32.7356L41.6989 35.361L41.7817 35.3152L41.8615 35.2643L40.2473 32.7356ZM33.3912 36.1288L32.2521 33.3534L30.6644 34.0051L30.4214 35.704L33.3912 36.1288ZM33.7412 39.7924L30.8561 40.6148L30.8561 40.6148L33.7412 39.7924ZM33.8333 40.131L30.9145 40.8241L30.9145 40.8241L33.8333 40.131ZM33.8909 45.37L36.8845 45.5656L36.8845 45.5656L33.8909 45.37ZM33.8333 46.4689L36.8333 46.4689V46.4689H33.8333ZM34.6667 51.8856L37.0667 53.6856L38.0098 52.4281L37.5127 50.9369L34.6667 51.8856ZM31.3333 52.7189L28.4873 51.7702L27.5928 54.4538L30.2192 55.5044L31.3333 52.7189ZM32.5833 40.9644L29.6729 40.2368L29.6652 40.2677L29.6581 40.2987L32.5833 40.9644ZM30.9167 38.4644L32.0308 35.6789L31.7206 35.5548L31.3906 35.5021L30.9167 38.4644ZM5.5 22.2143H2.5V22.7308L2.67271 23.2175L5.5 22.2143ZM17.1667 20.5476L16.5381 23.481L16.5518 23.484L16.5655 23.4868L17.1667 20.5476ZM44.0085 13.6634C34.9093 16.2166 30.1125 20.8722 28.0873 25.6091L33.6043 27.9677C34.7683 25.245 37.8847 21.6134 45.6295 19.4403L44.0085 13.6634ZM55.6143 13.9815C50.8764 12.6758 46.1794 13.1507 44.133 13.6314L45.505 19.4724C46.7999 19.1682 50.4525 18.7826 54.0201 19.7659L55.6143 13.9815ZM58.0394 19.5035C59.234 17.2092 57.8946 14.61 55.6143 13.9815L54.0201 19.7659C52.8326 19.4386 52.0466 18.0214 52.7176 16.7326L58.0394 19.5035ZM41.8615 35.2643C51.3 29.239 56.2145 23.0084 58.0394 19.5035L52.7176 16.7326C51.4629 19.1424 47.3541 24.6396 38.633 30.2069L41.8615 35.2643ZM34.5303 38.9041C36.8436 37.9547 39.9621 36.3213 41.6989 35.361L38.7956 30.1102C37.1063 31.0442 34.2339 32.5401 32.2521 33.3534L34.5303 38.9041ZM30.4214 35.704C30.0934 37.9976 30.6357 39.8414 30.8561 40.6148L36.6263 38.9701C36.4337 38.2944 36.2251 37.5038 36.361 36.5536L30.4214 35.704ZM30.8561 40.6148C30.8761 40.6849 30.8898 40.733 30.9011 40.774C30.9125 40.8156 30.9155 40.8282 30.9145 40.8241L36.7522 39.4378C36.7115 39.2667 36.6576 39.0798 36.6263 38.9701L30.8561 40.6148ZM30.9145 40.8241C30.9791 41.0962 31.0289 41.7119 31.0166 42.6461C31.0052 43.5141 30.9467 44.418 30.8973 45.1745L36.8845 45.5656C36.9327 44.8284 37.0023 43.773 37.0161 42.725C37.029 41.7433 37.0011 40.4862 36.7522 39.4378L30.9145 40.8241ZM30.8973 45.1745C30.8691 45.6056 30.8333 46.1265 30.8333 46.4689H36.8333C36.8333 46.4702 36.8333 46.4643 36.8337 46.4497C36.834 46.4354 36.8346 46.4159 36.8356 46.3904C36.8376 46.3386 36.8408 46.2724 36.8454 46.1892C36.8549 46.0203 36.8682 45.8157 36.8845 45.5656L30.8973 45.1745ZM30.8333 46.4689C30.8333 47.3194 30.964 48.5359 31.1269 49.6223C31.288 50.6957 31.5262 51.9509 31.8206 52.8343L37.5127 50.9369C37.3905 50.5703 37.212 49.7422 37.0606 48.7322C36.911 47.7353 36.8333 46.8684 36.8333 46.4689L30.8333 46.4689ZM32.2667 50.0856C32.2728 50.0775 32.2894 50.0575 32.3182 50.0329C32.3468 50.0085 32.3793 49.9866 32.4126 49.9689C32.4794 49.9333 32.5226 49.9285 32.5195 49.9288C32.5126 49.9297 32.4833 49.9312 32.4409 49.925C32.4222 49.9223 32.4092 49.9192 32.4046 49.918C32.3986 49.9164 32.4129 49.9196 32.4475 49.9335L30.2192 55.5044C30.9716 55.8053 32.0638 56.03 33.2514 55.884C34.5216 55.7279 35.9874 55.1246 37.0667 53.6856L32.2667 50.0856ZM34.1794 53.6676C34.7478 51.9624 34.75 50.9165 34.75 49.8023H28.75C28.75 50.3296 28.7467 50.5733 28.718 50.8203C28.6933 51.0326 28.641 51.309 28.4873 51.7702L34.1794 53.6676ZM34.75 49.8023C34.75 48.5494 34.7579 44.9286 35.5086 41.63L29.6581 40.2987C28.7421 44.3243 28.75 48.5551 28.75 49.8023H34.75ZM35.4938 41.692C35.9674 39.7974 35.2004 38.2635 34.3909 37.3404C33.6371 36.481 32.7051 35.9486 32.0308 35.6789L29.8025 41.2498C29.7805 41.241 29.8083 41.2511 29.8528 41.2808C29.897 41.3103 29.9023 41.3221 29.88 41.2967C29.8572 41.2707 29.7646 41.1581 29.6989 40.9487C29.625 40.7135 29.618 40.4564 29.6729 40.2368L35.4938 41.692ZM31.3906 35.5021C15.6641 32.9858 9.44185 24.3521 8.32729 21.2111L2.67271 23.2175C4.61371 28.6876 12.8359 38.6096 30.4427 41.4267L31.3906 35.5021ZM8.5 22.2143C8.5 22.8886 7.9619 23.1887 8.06988 23.1371C8.31395 23.0204 8.92669 22.8619 10.0035 22.8157C12.0807 22.7267 14.7215 23.0918 16.5381 23.481L17.7953 17.6142C15.723 17.1702 12.5304 16.7019 9.74655 16.8212C8.39276 16.8792 6.81799 17.0852 5.4822 17.7238C4.01032 18.4274 2.5 19.8733 2.5 22.2143H8.5ZM16.5655 23.4868C23.4701 24.8991 26.9361 27.0298 28.6715 28.8554L33.0201 24.7215C30.1372 21.6888 25.3591 19.1612 17.7679 17.6085L16.5655 23.4868Z" fill="white" mask="url(#path-1-outside-1_84_1093)"/>
  </g>
  <path d="M33.4167 35.9643C33.0833 37.9643 33.6898 39.5266 33.8333 40.1309C34.25 41.8856 33.8333 45.59 33.8333 46.4689C33.8333 47.7189 34.25 50.6356 34.6667 51.8856C33.6667 53.2189 32.0278 52.9967 31.3333 52.7189C31.75 51.4689 31.75 50.8022 31.75 49.8022V49.8022C31.75 48.5522 31.75 44.6264 32.5833 40.9644C32.9167 39.631 31.6111 38.7421 30.9167 38.4644C14.25 35.7977 7.02778 26.5199 5.5 22.2143C5.5 18.8809 13.2778 19.7143 17.1667 20.5476C35.5 24.2976 33.8333 33.4643 33.4167 35.9643Z" fill="#00C400"/>
  <path d="M44.819 16.5518C30.7818 20.4905 29.1495 29.3753 30.1829 33.0464L30.9295 36.113C31.0272 36.5143 31.3661 36.7971 31.7668 36.697C33.6601 36.2241 38.0289 33.9621 40.2473 32.7355C49.327 26.9393 53.8387 21.0754 55.3785 18.118C55.6403 17.6153 55.3636 17.0243 54.8172 16.8737C50.6645 15.7292 46.4896 16.1595 44.819 16.5518Z" fill="#6CEF64"/>
  <defs>
    <filter id="filter0_d_84_1093" x="0.5" y="13.1357" width="57.9854" height="44.7939" filterUnits="userSpaceOnUse" color-interpolation-filters="sRGB">
      <feFlood flood-opacity="0" result="BackgroundImageFix"/>
      <feColorMatrix in="SourceAlpha" type="matrix" values="0 0 0 0 0 0 0 0 0 0 0 0 0 0 0 0 0 0 127 0" result="hardAlpha"/>
      <feOffset dx="-1" dy="1"/>
      <feGaussianBlur stdDeviation="0.5"/>
      <feComposite in2="hardAlpha" operator="out"/>
      <feColorMatrix type="matrix" values="0 0 0 0 0.0980392 0 0 0 0 0.121569 0 0 0 0 0.156863 0 0 0 0.25 0"/>
      <feBlend mode="normal" in2="BackgroundImageFix" result="effect1_dropShadow_84_1093"/>
      <feBlend mode="normal" in="SourceGraphic" in2="effect1_dropShadow_84_1093" result="shape"/>
    </filter>
  </defs>
</svg>