<svg width="108" height="89" viewBox="0 0 108 89" fill="none" xmlns="http://www.w3.org/2000/svg">
<path d="M17.6106 3.92C18.5706 3.92 19.0106 4.72 19.0106 5.64C19.0106 6.56 18.5706 7.36 17.6106 7.36H12.4906V11.36C12.4906 14.64 13.0906 16.52 14.8906 18.68C16.2906 20.36 17.7306 21.84 18.7306 22.88C19.4106 23.64 19.3306 24.76 18.6506 25.44C17.9706 26.08 16.9306 26.24 16.1706 25.48C15.4906 24.8 14.2106 23.4 12.9306 22C11.1706 19.96 10.7306 18.96 10.5706 18.12H10.5306C10.4106 19 9.89062 20.12 8.13063 22.12C6.85063 23.56 5.61063 24.88 4.29063 26.2C3.53063 26.96 2.41063 26.76 1.77063 26.12C1.09063 25.4 0.890625 24.32 1.65063 23.52C3.21063 21.96 4.73063 20.36 6.17063 18.68C7.97063 16.52 8.57063 14.64 8.57063 11.36V7.36H3.13063C2.13063 7.36 1.69063 6.56 1.69063 5.64C1.69063 4.72 2.13063 3.92 3.13063 3.92H17.6106ZM23.5706 1.28C24.4906 1.28 25.4106 1.76 25.4106 2.84V32.2C25.4106 33.28 24.4906 33.76 23.5706 33.76C22.6106 33.76 21.6906 33.28 21.6906 32.2V15.96H17.8106C16.8106 15.96 16.3706 15.2 16.3706 14.24C16.3706 13.28 16.8106 12.52 17.8106 12.52H21.6906V2.84C21.6906 1.76 22.6106 1.28 23.5706 1.28ZM30.7306 0.879998C31.6906 0.879998 32.6106 1.36 32.6106 2.44V33.88C32.6106 34.96 31.6906 35.44 30.7306 35.44C29.8106 35.44 28.8906 34.96 28.8906 33.88V2.44C28.8906 1.36 29.8106 0.879998 30.7306 0.879998ZM65.7769 2.68C66.7769 2.68 67.2169 3.44 67.2169 4.4C67.2169 5.28 66.7769 6.08 65.7769 6.08H56.5369V6.56C56.5369 9.08 57.2969 10.28 60.0969 11.72C62.7369 13.08 64.9369 14.12 67.4169 15.24C68.2969 15.64 68.4569 16.68 68.0169 17.56C67.6169 18.44 66.6569 18.88 65.8169 18.52C63.1369 17.32 61.0169 16.32 58.5369 15.04C55.6969 13.6 54.7769 12.6 54.5369 11.64H54.4969C54.2569 12.68 53.2969 13.68 50.4969 15.12C47.9769 16.4 45.8569 17.4 43.2169 18.6C42.3369 18.96 41.3769 18.52 40.9769 17.6C40.4969 16.72 40.6969 15.64 41.5769 15.24C44.0569 14.12 46.2569 13.08 48.9369 11.72C51.6969 10.28 52.4569 9.08 52.4569 6.56V6.08H43.2169C42.2169 6.08 41.7769 5.28 41.7769 4.4C41.7769 3.44 42.2169 2.68 43.2169 2.68H65.7769ZM69.8969 21.92C70.8569 21.92 71.2969 22.72 71.2969 23.64C71.2969 24.56 70.8569 25.32 69.8969 25.32H56.4969V36.56C56.4969 37.72 55.5369 38.24 54.4969 38.24C53.4569 38.24 52.4969 37.72 52.4969 36.56V25.32H39.0969C38.1369 25.32 37.6969 24.56 37.6969 23.64C37.6969 22.72 38.1369 21.92 39.0969 21.92H69.8969ZM99.8231 1.96C102.143 1.96 102.903 2.68 102.903 4.96V8C102.903 10.28 102.143 11 99.8231 11H83.3431C82.9431 11 82.7431 11.2 82.7431 11.6V13.28C82.7431 13.68 82.9431 13.88 83.3431 13.88H102.503C103.383 13.88 103.783 14.6 103.783 15.44C103.783 16.28 103.383 17.04 102.503 17.04H92.8631V20.2H106.343C107.263 20.2 107.703 20.92 107.703 21.84C107.703 22.76 107.263 23.48 106.343 23.48H75.4631C74.5431 23.48 74.1031 22.76 74.1031 21.84C74.1031 20.92 74.5431 20.2 75.4631 20.2H88.9431V17.04H81.9431C79.6231 17.04 78.8631 16.32 78.8631 14.04V10.96C78.8631 8.68 79.6231 7.96 81.9431 7.96H98.3831C98.8231 7.96 99.0231 7.8 99.0231 7.36V5.72C99.0231 5.32 98.8231 5.12 98.3831 5.12H80.0631C79.1831 5.12 78.7831 4.4 78.7831 3.52C78.7831 2.72 79.1831 1.96 80.0631 1.96H99.8231ZM90.9031 25.64C98.6231 25.64 103.143 27.56 103.143 32.04C103.143 36.48 98.6231 38.44 90.9031 38.44C83.1831 38.44 78.6631 36.48 78.6631 32.04C78.6631 27.56 83.1831 25.64 90.9031 25.64ZM90.9031 28.8C85.1431 28.8 82.6231 29.96 82.6231 32.04C82.6231 34.12 85.1431 35.24 90.9031 35.24C96.6631 35.24 99.1831 34.12 99.1831 32.04C99.1831 29.96 96.6631 28.8 90.9031 28.8ZM27.7706 52.04C30.0906 52.04 30.8106 52.76 30.8106 55.04V56.8C30.8106 58.8 30.6106 60.8 30.1706 62.36C29.8906 63.4 28.8506 63.84 27.7306 63.6C26.7306 63.36 26.0506 62.68 26.3306 61.56C26.6906 60.04 26.8906 58.56 26.8906 56.92V56.32C26.8906 55.68 26.6506 55.48 26.0506 55.48H18.5706C17.6106 55.48 17.1706 54.68 17.1706 53.76C17.1706 52.84 17.6106 52.04 18.5706 52.04H27.7706ZM12.0106 52.04C14.3306 52.04 15.0906 52.76 15.0906 55.04V56.2C15.0906 58.84 13.9306 61.6 12.0906 63.4C11.3706 64.08 10.2906 64.12 9.49063 63.44C8.77063 62.84 8.45063 61.84 9.21063 61.08C10.5306 59.48 11.2106 58.12 11.2106 56.24C11.2106 55.68 10.9706 55.48 10.3706 55.48H4.73063C3.77063 55.48 3.33063 54.68 3.33063 53.76C3.33063 52.84 3.77063 52.04 4.73063 52.04H12.0106ZM18.8106 60.16C19.8106 60.16 20.7706 60.68 20.7706 61.8V66.08H33.5306C34.4506 66.08 34.8906 66.8 34.8906 67.68C34.8906 68.64 34.4506 69.36 33.5306 69.36H2.65063C1.73063 69.36 1.29063 68.64 1.29063 67.68C1.29063 66.8 1.73063 66.08 2.65063 66.08H16.8106V61.8C16.8106 60.68 17.7706 60.16 18.8106 60.16ZM18.0906 71.4C19.1306 71.4 20.0906 71.92 20.0906 73.08V75.04H29.6506C30.5306 75.04 30.9706 75.8 30.9706 76.64C30.9706 77.48 30.5306 78.24 29.6506 78.24H20.0906V78.6C20.0906 80.32 21.2106 81.28 23.7706 82.24C26.2906 83.16 28.4506 83.88 30.4906 84.48C31.3706 84.72 31.6506 85.56 31.3706 86.48C31.0906 87.32 30.4106 87.8 29.4506 87.56C27.2906 86.92 25.2906 86.2 23.0506 85.4C20.2106 84.4 18.4506 83.2 18.1306 82.08H18.0906C17.7706 83.32 15.9706 84.48 13.1706 85.48C10.9306 86.28 8.93063 86.96 6.77063 87.64C5.77062 87.88 5.13063 87.4 4.81063 86.52C4.49063 85.6 4.77063 84.72 5.69063 84.48C7.77063 83.88 9.93063 83.16 12.4106 82.24C15.0106 81.28 16.0906 80.32 16.0906 78.6V78.24H6.37063C5.49063 78.24 5.05063 77.48 5.05063 76.64C5.05063 75.8 5.49063 75.04 6.37063 75.04H16.0906V73.08C16.0906 71.92 17.0506 71.4 18.0906 71.4ZM53.4169 52.52C55.7369 52.52 56.4969 53.24 56.4969 55.52V58.04C56.4969 63.28 54.4569 64.64 41.9769 70.2C41.0569 70.6 40.0969 70.08 39.6569 69.2C39.2969 68.44 39.3369 67.28 40.3769 66.8C51.6169 61.92 52.4969 61.12 52.4969 57.92V56.76C52.4969 56.16 52.2969 55.96 51.6569 55.96H41.2169C40.2569 55.96 39.8169 55.16 39.8169 54.24C39.8169 53.32 40.2569 52.52 41.2169 52.52H53.4169ZM65.8569 50.88C66.8969 50.88 67.8569 51.4 67.8569 52.56V68.08C67.8569 69.24 66.8969 69.76 65.8569 69.76C64.8169 69.76 63.8569 69.24 63.8569 68.08V52.56C63.8569 51.4 64.8169 50.88 65.8569 50.88ZM64.7769 71.48C67.0969 71.48 67.8569 72.2 67.8569 74.48V78.16C67.8569 80.44 67.0969 81.16 64.7769 81.16H49.2969C48.6969 81.16 48.4569 81.36 48.4569 82V83.72C48.4569 84.32 48.6969 84.56 49.2969 84.56H67.4169C68.3369 84.56 68.7369 85.32 68.7369 86.16C68.7369 87 68.3369 87.76 67.4169 87.76H47.6569C45.3369 87.76 44.5769 87.04 44.5769 84.76V81.08C44.5769 78.8 45.3369 78.08 47.6569 78.08H63.0969C63.7369 78.08 63.9369 77.88 63.9369 77.24V75.52C63.9369 74.92 63.7369 74.72 63.0969 74.72H45.8169C44.8969 74.72 44.4969 73.96 44.4969 73.08C44.4969 72.24 44.8969 71.48 45.8169 71.48H64.7769ZM99.8231 51.96C102.143 51.96 102.903 52.68 102.903 54.96V58C102.903 60.28 102.143 61 99.8231 61H83.3431C82.9431 61 82.7431 61.2 82.7431 61.6V63.28C82.7431 63.68 82.9431 63.88 83.3431 63.88H102.503C103.383 63.88 103.783 64.6 103.783 65.44C103.783 66.28 103.383 67.04 102.503 67.04H92.8631V70.2H106.343C107.263 70.2 107.703 70.92 107.703 71.84C107.703 72.76 107.263 73.48 106.343 73.48H75.4631C74.5431 73.48 74.1031 72.76 74.1031 71.84C74.1031 70.92 74.5431 70.2 75.4631 70.2H88.9431V67.04H81.9431C79.6231 67.04 78.8631 66.32 78.8631 64.04V60.96C78.8631 58.68 79.6231 57.96 81.9431 57.96H98.3831C98.8231 57.96 99.0231 57.8 99.0231 57.36V55.72C99.0231 55.32 98.8231 55.12 98.3831 55.12H80.0631C79.1831 55.12 78.7831 54.4 78.7831 53.52C78.7831 52.72 79.1831 51.96 80.0631 51.96H99.8231ZM90.9031 75.64C98.6231 75.64 103.143 77.56 103.143 82.04C103.143 86.48 98.6231 88.44 90.9031 88.44C83.1831 88.44 78.6631 86.48 78.6631 82.04C78.6631 77.56 83.1831 75.64 90.9031 75.64ZM90.9031 78.8C85.1431 78.8 82.6231 79.96 82.6231 82.04C82.6231 84.12 85.1431 85.24 90.9031 85.24C96.6631 85.24 99.1831 84.12 99.1831 82.04C99.1831 79.96 96.6631 78.8 90.9031 78.8Z" fill="black"/>
</svg>
